STARTFONT 2.1
FONT -FontForge-Bebas Neue-Regular-R-Normal--62-600-75-75-P-241-ISO10646-1
SIZE 60 75 75
FONTBOUNDINGBOX 70 68 -8 -12
COMMENT "Generated by fontforge, http://fontforge.sourceforge.net"
COMMENT "Copyright \\\(c\\\) 2010 by Ryoichi Tsunekawa. All rights reserved."
STARTPROPERTIES 40
FOUNDRY "FontForge"
FAMILY_NAME "Bebas Neue"
WEIGHT_NAME "Regular"
SLANT "R"
SETWIDTH_NAME "Normal"
ADD_STYLE_NAME ""
PIXEL_SIZE 62
POINT_SIZE 600
RESOLUTION_X 75
RESOLUTION_Y 75
SPACING "P"
AVERAGE_WIDTH 241
CHARSET_REGISTRY "ISO10646"
CHARSET_ENCODING "1"
FONTNAME_REGISTRY ""
CHARSET_COLLECTIONS "ISO8859-2 ISO8859-5 ISO8859-9 ISO8859-4 ISO10646-1"
FONT_NAME "BebasNeue-Bold"
FACE_NAME "Bebas Neue Bold"
COPYRIGHT "Copyright \\\(c\\\) 2010 by Ryoichi Tsunekawa. All rights reserved."
FONT_VERSION "001.003"
FONT_ASCENT 46
FONT_DESCENT 16
UNDERLINE_POSITION -7
UNDERLINE_THICKNESS 4
X_HEIGHT 43
CAP_HEIGHT 43
RAW_ASCENT 750
RAW_DESCENT 250
NORM_SPACE 10
RELATIVE_WEIGHT 70
RELATIVE_SETWIDTH 50
SUPERSCRIPT_X 0
SUPERSCRIPT_Y 21
SUPERSCRIPT_SIZE 37
SUBSCRIPT_X 0
SUBSCRIPT_Y 4
SUBSCRIPT_SIZE 37
FIGURE_WIDTH 25
AVG_LOWERCASE_WIDTH 248
AVG_UPPERCASE_WIDTH 247
ENDPROPERTIES
CHARS 486
STARTCHAR space
ENCODING 32
SWIDTH 155 0
DWIDTH 10 0
BBX 1 1 0 0
BITMAP
00
ENDCHAR
STARTCHAR exclam
ENCODING 33
SWIDTH 190 0
DWIDTH 12 0
BBX 7 45 2 -1
BITMAP
FE
FE
FE
FE
FE
FE
FE
FE
FE
FE
FE
FE
FE
FE
FE
FE
FE
FE
FE
FE
7E
7E
7E
7E
7E
7E
7E
7E
7E
7E
7E
7E
7E
7E
7C
00
00
00
7E
7E
7E
7E
7E
7E
7E
ENDCHAR
STARTCHAR quotedbl
ENCODING 34
SWIDTH 325 0
DWIDTH 20 0
BBX 16 13 2 31
BITMAP
FE7F
7E7F
7E7E
7E7E
7E7E
7E7E
7E3E
7C3E
7C3E
7C3E
7C3E
7C3E
7C3E
ENDCHAR
STARTCHAR numbersign
ENCODING 35
SWIDTH 410 0
DWIDTH 25 0
BBX 23 45 1 -1
BITMAP
03F0F8
03F0F8
03E0F8
03E1F8
03E1F8
03E1F8
03E1F8
07E1F8
07E1F0
07E1F0
3FFFFE
3FFFFE
3FFFFE
3FFFFE
3FFFFE
07C3F0
0FC3F0
0FC3F0
0FC3E0
0FC3E0
0FC3E0
0FC3E0
0F83E0
0F87E0
0F87E0
0F87E0
0F87E0
FFFFFC
FFFFFC
FFFFFC
FFFFF8
FFFFF8
1F07C0
1F0FC0
1F0FC0
1F0FC0
1F0FC0
3F0FC0
3F0F80
3F0F80
3F0F80
3F0F80
3E0F80
3E1F80
3E1F80
ENDCHAR
STARTCHAR dollar
ENCODING 36
SWIDTH 396 0
DWIDTH 25 0
BBX 20 49 2 -3
BITMAP
01F800
01F800
01F800
03FC00
0FFF00
1FFFC0
3FFFC0
3FFFE0
7FFFE0
7F8FF0
7F07F0
FE03F0
FE03F0
FE03F0
FE03F0
FE0000
FF0000
7F0000
7F8000
7FC000
3FE000
1FF000
1FF800
0FFC00
07FF00
03FF80
00FF80
007FC0
003FE0
001FE0
000FF0
000FF0
FE07F0
FE07F0
FE03F0
FE03F0
FE03F0
FE07F0
FE07F0
7F0FF0
7FFFF0
7FFFE0
3FFFC0
1FFFC0
0FFF00
03FC00
01F800
01F800
01F800
ENDCHAR
STARTCHAR percent
ENCODING 37
SWIDTH 627 0
DWIDTH 39 0
BBX 35 45 2 -1
BITMAP
0FC000F000
3FE001E000
7FF001E000
7FF803C000
F8F803C000
F87803C000
F078078000
F078078000
F078078000
F0780F0000
F0780F0000
F0781E0000
F0781E0000
F0781E0000
F0783C0000
F0783C0000
F0783C3E00
F07878FF80
F07879FF80
F078F3FFC0
F078F3E3C0
F078F3C3E0
F079E3C3E0
F879E3C3E0
F8FBC3C3E0
7FFBC3C3E0
7FF3C3C3E0
3FE783C3E0
0F8783C3E0
000783C3E0
000F03C3E0
000F03C3E0
001E03C3E0
001E03C3E0
001E03C3E0
003C03C3E0
003C03C3E0
003C03C3E0
007803C3E0
007803C3E0
00F003E3C0
00F003FFC0
00F001FFC0
01E000FF80
01E0007E00
ENDCHAR
STARTCHAR ampersand
ENCODING 38
SWIDTH 414 0
DWIDTH 26 0
BBX 22 45 3 -1
BITMAP
03FFC0
0FFFC0
3FFFC0
7FFFC0
7FFFC0
FFFFC0
FF0000
FE0000
FE0000
FC0000
FC0000
FC0000
FC0000
FC07F0
FC07F0
FE07F0
FE07F0
7F07F0
7FFFFC
3FFFFC
0FFFFC
1FFFFC
3FFFFC
7FFFFC
7F87F0
FE07F0
FE07F0
FE07F0
FC07F0
FC07F0
FC07F0
FC07F0
FC07F0
FC07F0
FC07F0
FC07F0
FE07F0
FE07F0
FF0FF0
FFFFF0
FFFFF0
7FFFF0
7FFFF0
3FF3F0
0FC3F8
ENDCHAR
STARTCHAR quotesingle
ENCODING 39
SWIDTH 180 0
DWIDTH 11 0
BBX 7 13 2 31
BITMAP
FE
FE
FE
7E
7E
7C
7C
7C
7C
7C
7C
7C
7C
ENDCHAR
STARTCHAR parenleft
ENCODING 40
SWIDTH 251 0
DWIDTH 16 0
BBX 12 45 3 -1
BITMAP
07F0
1FF0
3FF0
7FF0
7FF0
FFF0
FE00
FE00
FE00
FE00
FE00
FE00
FE00
FE00
FE00
FE00
FE00
FE00
FE00
FE00
FE00
FE00
FE00
FE00
FE00
FE00
FE00
FE00
FE00
FE00
FE00
FE00
FE00
FE00
FE00
FE00
FE00
FE00
FE00
FFF0
7FF0
7FF0
3FF0
1FF0
07F0
ENDCHAR
STARTCHAR parenright
ENCODING 41
SWIDTH 251 0
DWIDTH 16 0
BBX 12 45 1 -1
BITMAP
FC00
FF80
FFC0
FFC0
FFE0
FFE0
0FE0
07F0
07F0
07F0
07F0
07F0
07F0
07F0
07F0
07F0
07F0
07F0
07F0
07F0
07F0
07F0
07F0
07F0
07F0
07F0
07F0
07F0
07F0
07F0
07F0
07F0
07F0
07F0
07F0
07F0
07F0
07F0
0FE0
FFE0
FFE0
FFC0
FFC0
FF80
FC00
ENDCHAR
STARTCHAR asterisk
ENCODING 42
SWIDTH 396 0
DWIDTH 25 0
BBX 24 23 0 21
BITMAP
003E00
003E00
003E00
003E00
003C00
003C00
303C06
7C1C1E
7F1C7F
7FDDFF
FFFFFF
0FFFF8
003E00
007E00
00F700
01E780
03E3C0
07C3E0
0FC1F0
1F81F8
0F80F8
0700E0
010040
ENDCHAR
STARTCHAR plus
ENCODING 43
SWIDTH 396 0
DWIDTH 25 0
BBX 21 21 2 11
BITMAP
00F800
00F800
00F800
00F800
00F800
00F800
00F800
00F800
FFFFF8
FFFFF8
FFFFF8
FFFFF8
FFFFF8
00F800
00F800
00F800
00F800
00F800
00F800
00F800
00F800
ENDCHAR
STARTCHAR comma
ENCODING 44
SWIDTH 186 0
DWIDTH 12 0
BBX 7 13 2 -7
BITMAP
FE
FE
FE
FE
FE
FE
FE
1E
1C
3C
38
38
70
ENDCHAR
STARTCHAR hyphen
ENCODING 45
SWIDTH 270 0
DWIDTH 17 0
BBX 13 6 2 19
BITMAP
FFF8
FFF8
FFF8
FFF8
FFF8
FFF8
ENDCHAR
STARTCHAR period
ENCODING 46
SWIDTH 186 0
DWIDTH 12 0
BBX 7 7 2 -1
BITMAP
FE
FE
FE
FE
FE
FE
FE
ENDCHAR
STARTCHAR slash
ENCODING 47
SWIDTH 381 0
DWIDTH 24 0
BBX 23 45 0 -1
BITMAP
00007E
00007E
0000FC
0000FC
0000FC
0001F8
0001F8
0001F0
0003F0
0003F0
0007E0
0007E0
0007E0
000FC0
000FC0
000F80
001F80
001F80
003F00
003F00
003F00
007E00
007E00
00FC00
00FC00
00FC00
01F800
01F800
01F000
03F000
03F000
07E000
07E000
07E000
0FC000
0FC000
0F8000
1F8000
1F8000
3F0000
3F0000
3F0000
7E0000
7E0000
FC0000
ENDCHAR
STARTCHAR zero
ENCODING 48
SWIDTH 396 0
DWIDTH 25 0
BBX 21 45 2 -1
BITMAP
03FC00
0FFF00
1FFFC0
3FFFC0
7FFFE0
7FFFF0
7F8FF0
FE07F0
FE03F0
FE03F8
FE03F8
FE03F8
FE03F8
FE03F8
FE03F8
FE03F8
FE03F8
FE03F8
FE03F8
FE03F8
FE03F8
FE03F8
FE03F8
FE03F8
FE03F8
FE03F8
FE03F8
FE03F8
FE03F8
FE03F8
FE03F8
FE03F8
FE03F8
FE03F8
FE03F8
FE03F8
FE03F0
FE07F0
7F8FF0
7FFFF0
7FFFE0
3FFFE0
1FFFC0
0FFF00
01FC00
ENDCHAR
STARTCHAR one
ENCODING 49
SWIDTH 396 0
DWIDTH 25 0
BBX 12 45 7 -1
BITMAP
01F0
01F0
03F0
03F0
07F0
1FF0
FFF0
FFF0
FFF0
FFF0
FFF0
07F0
07F0
07F0
07F0
07F0
07F0
07F0
07F0
07F0
07F0
07F0
07F0
07F0
07F0
07F0
07F0
07F0
07F0
07F0
07F0
07F0
07F0
07F0
07F0
07F0
07F0
07F0
07F0
07F0
07F0
07F0
07F0
07F0
07F0
ENDCHAR
STARTCHAR two
ENCODING 50
SWIDTH 396 0
DWIDTH 25 0
BBX 21 45 2 -1
BITMAP
01FC00
07FF80
1FFFC0
3FFFE0
3FFFE0
7FFFF0
7F8FF0
7F07F0
7E03F8
7E03F8
FE03F8
FE03F8
FE03F8
FE03F8
FE03F8
0007F0
0007F0
0007F0
000FE0
000FE0
001FE0
003FC0
003F80
007F80
00FF00
01FE00
03FC00
07FC00
07F800
0FF000
1FE000
1FC000
3F8000
3F8000
7F0000
7F0000
7E0000
7E0000
FE0000
FFFFF0
FFFFF0
FFFFF0
FFFFF0
FFFFF0
FFFFF0
ENDCHAR
STARTCHAR three
ENCODING 51
SWIDTH 396 0
DWIDTH 25 0
BBX 20 45 2 -1
BITMAP
03FC00
0FFF00
1FFF80
3FFFC0
7FFFE0
7FFFE0
7F0FF0
FE07F0
FE07F0
FE07F0
FE03F0
FE03F0
FE03F0
0003F0
0003F0
0007F0
0007F0
000FE0
01FFE0
01FFC0
01FF00
01FF80
01FFC0
01FFE0
001FE0
0007F0
0007F0
0007F0
0003F0
0003F0
FE03F0
FE03F0
FE03F0
FE03F0
FE03F0
FE07F0
FE07F0
FE07F0
7F0FF0
7FFFE0
3FFFE0
3FFFC0
1FFF80
0FFF00
01FC00
ENDCHAR
STARTCHAR four
ENCODING 52
SWIDTH 396 0
DWIDTH 25 0
BBX 23 45 1 -1
BITMAP
000FF0
000FF0
001FF0
001FF0
003FF0
003FF0
003FF0
007FF0
007FF0
00FFF0
00FFF0
00FFF0
01FFF0
01FFF0
03FFF0
03F7F0
03F7F0
07E7F0
07E7F0
0FE7F0
0FC7F0
0FC7F0
1F87F0
1F87F0
3F87F0
3F07F0
3F07F0
7E07F0
7E07F0
FE07F0
FC07F0
FFFFFE
FFFFFE
FFFFFE
FFFFFE
FFFFFE
FFFFFE
0007F0
0007F0
0007F0
0007F0
0007F0
0007F0
0007F0
0007F0
ENDCHAR
STARTCHAR five
ENCODING 53
SWIDTH 396 0
DWIDTH 25 0
BBX 21 45 2 -1
BITMAP
7FFFE0
7FFFE0
7FFFE0
7FFFE0
7FFFE0
7FFFE0
7F0000
7E0000
7E0000
7E0000
7E0000
7E0000
7E0000
7E0000
7E3F00
7EFFC0
7FFFE0
7FFFE0
7FFFF0
FFFFF0
FF0FF0
FE07F0
FE07F0
FE03F0
FE03F8
FE03F8
0003F8
0003F8
0003F8
0003F8
FE03F8
FE03F8
FE03F8
FE03F8
FE03F0
FE03F0
FE07F0
FE07F0
7F8FF0
7FFFF0
3FFFE0
3FFFC0
1FFFC0
0FFF00
01FC00
ENDCHAR
STARTCHAR six
ENCODING 54
SWIDTH 396 0
DWIDTH 25 0
BBX 21 45 2 -1
BITMAP
01FC00
0FFF00
1FFFC0
3FFFE0
7FFFE0
7FFFF0
7F8FF0
FF07F0
FE03F0
FE03F8
FE03F8
FE03F8
FE0000
FE0000
FE0000
FE0000
FE3F80
FEFFC0
FEFFE0
FFFFF0
FFFFF0
FFFFF0
FF0FF0
FE07F8
FE03F8
FE03F8
FE03F8
FE03F8
FE03F8
FE03F8
FE03F8
FE03F8
FE03F8
FE03F8
FE03F8
FE03F8
FE03F8
FF07F0
7F8FF0
7FFFF0
7FFFE0
3FFFE0
1FFFC0
0FFF00
01FC00
ENDCHAR
STARTCHAR seven
ENCODING 55
SWIDTH 396 0
DWIDTH 25 0
BBX 21 45 2 -1
BITMAP
FFFFF8
FFFFF8
FFFFF8
FFFFF8
FFFFF8
FFFFF8
0003F0
0007F0
0007F0
0007F0
0007E0
000FE0
000FE0
000FE0
001FC0
001FC0
001FC0
001FC0
003F80
003F80
003F80
003F00
007F00
007F00
007F00
007E00
00FE00
00FE00
00FE00
00FC00
01FC00
01FC00
01FC00
01F800
03F800
03F800
03F800
03F000
07F000
07F000
07F000
07E000
0FE000
0FE000
0FE000
ENDCHAR
STARTCHAR eight
ENCODING 56
SWIDTH 396 0
DWIDTH 25 0
BBX 21 45 2 -1
BITMAP
03FC00
0FFF00
1FFFC0
3FFFE0
7FFFE0
7FFFF0
FF8FF0
FE07F8
FE03F8
FE03F8
FC03F8
FC03F8
FC03F8
FC03F8
FC03F8
FE03F8
FE03F0
FE07F0
7F8FF0
7FFFE0
3FFFC0
0FFF80
1FFFC0
3FFFE0
7FFFF0
FF0FF0
FE07F0
FE03F8
FC03F8
FC03F8
FC03F8
FC03F8
FC03F8
FC03F8
FC03F8
FE03F8
FE03F8
FE07F8
FF8FF0
7FFFF0
7FFFE0
3FFFE0
1FFFC0
0FFF00
03FC00
ENDCHAR
STARTCHAR nine
ENCODING 57
SWIDTH 396 0
DWIDTH 25 0
BBX 21 45 2 -1
BITMAP
03FC00
0FFF00
1FFF80
3FFFC0
7FFFE0
7FFFE0
FF8FF0
FE07F0
FE07F0
FE03F0
FE03F0
FE03F8
FE03F8
FE03F8
FE03F8
FE03F8
FE03F8
FE03F8
FE03F8
FE03F8
FE07F8
FE07F8
FF0FF8
FFFFF8
7FFFF8
7FFFF8
3FFBF8
3FF3F8
0FE3F8
0003F8
0003F8
0003F8
0003F8
FC03F8
FC03F0
FC07F0
FE07F0
FE07F0
FF0FF0
7FFFF0
7FFFE0
3FFFC0
1FFFC0
0FFF00
03FC00
ENDCHAR
STARTCHAR colon
ENCODING 58
SWIDTH 186 0
DWIDTH 12 0
BBX 7 30 2 -1
BITMAP
FE
FE
FE
FE
FE
FE
FE
00
00
00
00
00
00
00
00
00
00
00
00
00
00
00
00
FE
FE
FE
FE
FE
FE
FE
ENDCHAR
STARTCHAR semicolon
ENCODING 59
SWIDTH 186 0
DWIDTH 12 0
BBX 7 36 2 -7
BITMAP
FE
FE
FE
FE
FE
FE
FE
00
00
00
00
00
00
00
00
00
00
00
00
00
00
00
00
FE
FE
FE
FE
FE
FE
FE
1E
1C
3C
38
38
70
ENDCHAR
STARTCHAR less
ENCODING 60
SWIDTH 396 0
DWIDTH 25 0
BBX 20 19 2 12
BITMAP
000070
0003F0
001FF0
007FF0
03FFE0
1FFF00
7FFC00
FFE000
FF0000
FE0000
FFC000
FFF800
3FFF00
07FFC0
00FFF0
001FF0
0007F0
0000F0
000010
ENDCHAR
STARTCHAR equal
ENCODING 61
SWIDTH 396 0
DWIDTH 25 0
BBX 20 15 2 14
BITMAP
FFFFF0
FFFFF0
FFFFF0
FFFFF0
FFFFF0
000000
000000
000000
000000
000000
FFFFF0
FFFFF0
FFFFF0
FFFFF0
FFFFF0
ENDCHAR
STARTCHAR greater
ENCODING 62
SWIDTH 396 0
DWIDTH 25 0
BBX 21 20 2 12
BITMAP
800000
F00000
FC0000
FF8000
FFF000
7FFE00
0FFF80
01FFF0
003FF8
0007F8
0007F8
001FF8
00FFF8
07FFC0
3FFE00
FFF800
FFC000
FE0000
F80000
C00000
ENDCHAR
STARTCHAR question
ENCODING 63
SWIDTH 360 0
DWIDTH 22 0
BBX 20 45 1 -1
BITMAP
01FC00
0FFF00
1FFF80
3FFFC0
3FFFE0
7FFFE0
7F8FF0
7E07F0
FE07F0
FE07F0
FE07F0
FE07F0
FE07F0
FE07F0
FE07F0
FE07F0
0007F0
000FE0
000FE0
001FE0
001FC0
003F80
007F80
007F00
00FE00
00FE00
01FC00
01FC00
01F800
03F800
03F000
03F000
03F000
03F000
03F000
000000
000000
000000
03F800
03F800
03F800
03F800
03F800
03F800
03F800
ENDCHAR
STARTCHAR at
ENCODING 64
SWIDTH 689 0
DWIDTH 43 0
BBX 41 50 1 -4
BITMAP
00003FF00000
0001FFFF0000
0007FFFFC000
001FFFFFE000
003FFFFFF000
007FF83FF800
00FF8007FC00
01FE0001FC00
03F80000FE00
07F000007E00
07E000003F00
0FE000003F00
0FC000003F00
1F80FC7E1F00
1F81FF7E1F00
3F03FF7E1F00
3F03FFFE1F80
3F07FFFE1F80
7E07FFFE1F80
7E0FE0FC1F80
7E0FE0FC1F80
7E0FC0FC1F00
7E0FC0FC1F00
7E0FC0FC1F00
7C0FC0FC1F00
7C0FC0FC1F00
FC0FC0FC1F00
FC0FC0FC3E00
FC1F80F83E00
FC1F81F83E00
7C1FC1F87C00
7C1FC3F8FC00
7E1FFFFFF800
7E0FFFFFF800
7E0FFFFFF000
7E07FDFFE000
7F07F8FF8000
3F01E07E0000
3F8000000000
1F8000000000
1FC000004000
1FE00000C000
0FF000018000
07FC00078000
03FF003F8000
01FFFFFF8000
00FFFFFF8000
007FFFFF0000
001FFFFC0000
0003FFE00000
ENDCHAR
STARTCHAR A
ENCODING 65
SWIDTH 407 0
DWIDTH 25 0
BBX 23 45 1 -1
BITMAP
01FF80
03FF80
03FF80
03FF80
03FF80
03FF80
03FFC0
07FFC0
07FFC0
07EFC0
07EFC0
07EFC0
07EFE0
07CFE0
0FCFE0
0FCFE0
0FCFE0
0FC7E0
0FC7E0
0FC7F0
1F87F0
1F87F0
1F87F0
1F87F0
1F83F0
1F83F8
1F83F8
3F03F8
3F03F8
3F03F8
3F03F8
3FFFF8
3FFFFC
7FFFFC
7FFFFC
7FFFFC
7FFFFC
7E00FC
7E00FE
7E00FE
FE00FE
FC00FE
FC00FE
FC00FE
FC007E
ENDCHAR
STARTCHAR B
ENCODING 66
SWIDTH 406 0
DWIDTH 25 0
BBX 22 45 2 -1
BITMAP
FFFE00
FFFF80
FFFFC0
FFFFE0
FFFFF0
FFFFF0
FE0FF0
FE07F8
FE03F8
FE03F8
FE03F8
FE03F8
FE03F8
FE03F8
FE03F8
FE03F8
FE03F0
FE07F0
FE0FF0
FFFFE0
FFFFC0
FFFF80
FFFFC0
FFFFE0
FFFFF0
FE07F8
FE03F8
FE03F8
FE01F8
FE01F8
FE01FC
FE01FC
FE01FC
FE01FC
FE01FC
FE01FC
FE03F8
FE03F8
FE07F8
FFFFF8
FFFFF0
FFFFF0
FFFFE0
FFFF80
FFFE00
ENDCHAR
STARTCHAR C
ENCODING 67
SWIDTH 386 0
DWIDTH 24 0
BBX 20 45 2 -1
BITMAP
03FC00
0FFF00
1FFF80
3FFFC0
7FFFE0
7FFFE0
FF8FF0
FE07F0
FE03F0
FE03F0
FE03F0
FE03F0
FE03F0
FE03F0
FE03F0
FE0000
FE0000
FE0000
FE0000
FE0000
FE0000
FE0000
FE0000
FE0000
FE0000
FE0000
FE0000
FE0000
FE03F0
FE03F0
FE03F0
FE03F0
FE03F0
FE03F0
FE03F0
FE03F0
FE03F0
FE07F0
FF8FF0
7FFFE0
7FFFE0
3FFFC0
1FFF80
0FFF00
03FC00
ENDCHAR
STARTCHAR D
ENCODING 68
SWIDTH 408 0
DWIDTH 25 0
BBX 21 45 2 -1
BITMAP
FFFE00
FFFF80
FFFFE0
FFFFE0
FFFFF0
FFFFF8
FE07F8
FE03F8
FE03F8
FE01F8
FE01F8
FE01F8
FE01F8
FE01F8
FE01F8
FE01F8
FE01F8
FE01F8
FE01F8
FE01F8
FE01F8
FE01F8
FE01F8
FE01F8
FE01F8
FE01F8
FE01F8
FE01F8
FE01F8
FE01F8
FE01F8
FE01F8
FE01F8
FE01F8
FE01F8
FE01F8
FE03F8
FE03F8
FE07F8
FFFFF8
FFFFF0
FFFFE0
FFFFE0
FFFF80
FFFE00
ENDCHAR
STARTCHAR E
ENCODING 69
SWIDTH 368 0
DWIDTH 23 0
BBX 19 45 2 -1
BITMAP
FFFFE0
FFFFE0
FFFFE0
FFFFE0
FFFFE0
FFFFE0
FE0000
FE0000
FE0000
FE0000
FE0000
FE0000
FE0000
FE0000
FE0000
FE0000
FE0000
FE0000
FE0000
FFFF80
FFFF80
FFFF80
FFFF80
FFFF80
FFFF80
FE0000
FE0000
FE0000
FE0000
FE0000
FE0000
FE0000
FE0000
FE0000
FE0000
FE0000
FE0000
FE0000
FE0000
FFFFE0
FFFFE0
FFFFE0
FFFFE0
FFFFE0
FFFFE0
ENDCHAR
STARTCHAR F
ENCODING 70
SWIDTH 344 0
DWIDTH 21 0
BBX 19 45 2 -1
BITMAP
FFFFE0
FFFFE0
FFFFE0
FFFFE0
FFFFE0
FFFFE0
FE0000
FE0000
FE0000
FE0000
FE0000
FE0000
FE0000
FE0000
FE0000
FE0000
FE0000
FE0000
FE0000
FE0000
FFFF00
FFFF00
FFFF00
FFFF00
FFFF00
FFFF00
FE0000
FE0000
FE0000
FE0000
FE0000
FE0000
FE0000
FE0000
FE0000
FE0000
FE0000
FE0000
FE0000
FE0000
FE0000
FE0000
FE0000
FE0000
FE0000
ENDCHAR
STARTCHAR G
ENCODING 71
SWIDTH 390 0
DWIDTH 24 0
BBX 20 45 2 -1
BITMAP
03FC00
0FFF00
1FFF80
3FFFC0
7FFFE0
7FFFE0
FF8FF0
FE07F0
FE03F0
FE03F0
FE03F0
FE03F0
FE03F0
FE03F0
FE03F0
FE0000
FE0000
FE0000
FE0000
FE0000
FE1FF0
FE1FF0
FE1FF0
FE1FF0
FE1FF0
FE1FF0
FE03F0
FE03F0
FE03F0
FE03F0
FE03F0
FE03F0
FE03F0
FE03F0
FE03F0
FE03F0
FE03F0
FE07F0
FF8FF0
7FFFE0
7FFFE0
3FFFC0
1FFF80
0FFF00
03FC00
ENDCHAR
STARTCHAR H
ENCODING 72
SWIDTH 427 0
DWIDTH 26 0
BBX 22 45 2 -1
BITMAP
FE01FC
FE01FC
FE01FC
FE01FC
FE01FC
FE01FC
FE01FC
FE01FC
FE01FC
FE01FC
FE01FC
FE01FC
FE01FC
FE01FC
FE01FC
FE01FC
FE01FC
FE01FC
FE01FC
FE01FC
FFFFFC
FFFFFC
FFFFFC
FFFFFC
FFFFFC
FFFFFC
FE01FC
FE01FC
FE01FC
FE01FC
FE01FC
FE01FC
FE01FC
FE01FC
FE01FC
FE01FC
FE01FC
FE01FC
FE01FC
FE01FC
FE01FC
FE01FC
FE01FC
FE01FC
FE01FC
ENDCHAR
STARTCHAR I
ENCODING 73
SWIDTH 190 0
DWIDTH 12 0
BBX 7 45 2 -1
BITMAP
FE
FE
FE
FE
FE
FE
FE
FE
FE
FE
FE
FE
FE
FE
FE
FE
FE
FE
FE
FE
FE
FE
FE
FE
FE
FE
FE
FE
FE
FE
FE
FE
FE
FE
FE
FE
FE
FE
FE
FE
FE
FE
FE
FE
FE
ENDCHAR
STARTCHAR J
ENCODING 74
SWIDTH 256 0
DWIDTH 16 0
BBX 13 45 1 -1
BITMAP
03F8
03F8
03F8
03F8
03F8
03F8
03F8
03F8
03F8
03F8
03F8
03F8
03F8
03F8
03F8
03F8
03F8
03F8
03F8
03F8
03F8
03F8
03F8
03F8
03F8
03F8
03F8
03F8
03F8
03F8
03F8
03F8
03F8
03F8
03F8
03F8
03F8
07F0
0FF0
FFF0
FFE0
FFE0
FFC0
FF80
FE00
ENDCHAR
STARTCHAR K
ENCODING 75
SWIDTH 414 0
DWIDTH 26 0
BBX 23 45 2 -1
BITMAP
FE00FE
FE00FC
FE01FC
FE01F8
FE03F8
FE03F0
FE07F0
FE07E0
FE0FE0
FE0FE0
FE1FC0
FE1FC0
FE1F80
FE3F80
FE3F00
FE7F00
FE7E00
FEFE00
FEFC00
FFFC00
FFFC00
FFFC00
FFFC00
FFFE00
FFFE00
FFFF00
FFFF00
FFBF00
FFBF80
FF3F80
FF1FC0
FE1FC0
FE1FC0
FE0FE0
FE0FE0
FE07E0
FE07F0
FE07F0
FE03F8
FE03F8
FE03F8
FE01FC
FE01FC
FE01FC
FE00FE
ENDCHAR
STARTCHAR L
ENCODING 76
SWIDTH 339 0
DWIDTH 21 0
BBX 19 45 2 -1
BITMAP
FE0000
FE0000
FE0000
FE0000
FE0000
FE0000
FE0000
FE0000
FE0000
FE0000
FE0000
FE0000
FE0000
FE0000
FE0000
FE0000
FE0000
FE0000
FE0000
FE0000
FE0000
FE0000
FE0000
FE0000
FE0000
FE0000
FE0000
FE0000
FE0000
FE0000
FE0000
FE0000
FE0000
FE0000
FE0000
FE0000
FE0000
FE0000
FE0000
FFFFE0
FFFFE0
FFFFE0
FFFFE0
FFFFE0
FFFFE0
ENDCHAR
STARTCHAR M
ENCODING 77
SWIDTH 541 0
DWIDTH 34 0
BBX 29 45 2 -1
BITMAP
FFC01FF8
FFC01FF8
FFC01FF8
FFC01FF8
FFE01FF8
FFE01FF8
FFE01FF8
FFE03FF8
FFE03FF8
FFE03FF8
FFF03FF8
FFF03FF8
FFF03FF8
FFF03FF8
FDF07DF8
FDF07DF8
FDF07DF8
FDF87DF8
FDF87DF8
FDF87DF8
FCF879F8
FCF8F9F8
FCF8F9F8
FCFCF9F8
FCFCF9F8
FCFCF9F8
FCFCF9F8
FC7CF1F8
FC7DF1F8
FC7FF1F8
FC7FF1F8
FC7FF1F8
FC7FF1F8
FC3FF1F8
FC3FE1F8
FC3FE1F8
FC3FE1F8
FC3FE1F8
FC3FE1F8
FC1FE1F8
FC1FE1F8
FC1FC1F8
FC1FC1F8
FC1FC1F8
FC1FC1F8
ENDCHAR
STARTCHAR N
ENCODING 78
SWIDTH 427 0
DWIDTH 26 0
BBX 22 45 2 -1
BITMAP
FF80FC
FF80FC
FFC0FC
FFC0FC
FFC0FC
FFC0FC
FFE0FC
FFE0FC
FFE0FC
FFE0FC
FFF0FC
FFF0FC
FFF0FC
FFF0FC
FFF8FC
FFF8FC
FEF8FC
FEFCFC
FEFCFC
FEFCFC
FE7CFC
FE7EFC
FE7EFC
FE7EFC
FE3EFC
FE3FFC
FE3FFC
FE3FFC
FE1FFC
FE1FFC
FE1FFC
FE0FFC
FE0FFC
FE0FFC
FE0FFC
FE07FC
FE07FC
FE07FC
FE07FC
FE03FC
FE03FC
FE03FC
FE03FC
FE01FC
FE01FC
ENDCHAR
STARTCHAR O
ENCODING 79
SWIDTH 396 0
DWIDTH 25 0
BBX 21 45 2 -1
BITMAP
03FC00
0FFF00
1FFFC0
3FFFC0
7FFFE0
7FFFF0
7F8FF0
FE07F0
FE03F0
FE03F8
FE03F8
FE03F8
FE03F8
FE03F8
FE03F8
FE03F8
FE03F8
FE03F8
FE03F8
FE03F8
FE03F8
FE03F8
FE03F8
FE03F8
FE03F8
FE03F8
FE03F8
FE03F8
FE03F8
FE03F8
FE03F8
FE03F8
FE03F8
FE03F8
FE03F8
FE03F8
FE03F0
FE07F0
7F8FF0
7FFFF0
7FFFE0
3FFFE0
1FFFC0
0FFF00
01FC00
ENDCHAR
STARTCHAR P
ENCODING 80
SWIDTH 382 0
DWIDTH 24 0
BBX 21 45 2 -1
BITMAP
FFFC00
FFFF80
FFFFC0
FFFFE0
FFFFE0
FFFFF0
FE0FF0
FE07F0
FE03F8
FE03F8
FE03F8
FE03F8
FE03F8
FE03F8
FE03F8
FE03F8
FE03F8
FE03F8
FE03F8
FE03F8
FE07F0
FE0FF0
FFFFF0
FFFFE0
FFFFE0
FFFFC0
FFFF80
FFFC00
FE0000
FE0000
FE0000
FE0000
FE0000
FE0000
FE0000
FE0000
FE0000
FE0000
FE0000
FE0000
FE0000
FE0000
FE0000
FE0000
FE0000
ENDCHAR
STARTCHAR Q
ENCODING 81
SWIDTH 396 0
DWIDTH 25 0
BBX 22 47 2 -3
BITMAP
03FC00
0FFF00
1FFFC0
3FFFC0
7FFFE0
7FFFF0
7F8FF0
FE07F0
FE03F0
FE03F8
FE03F8
FE03F8
FE03F8
FE03F8
FE03F8
FE03F8
FE03F8
FE03F8
FE03F8
FE03F8
FE03F8
FE03F8
FE03F8
FE03F8
FE03F8
FE03F8
FE03F8
FE03F8
FE03F8
FE03F8
FE03F8
FE03F8
FE03F8
FE03F8
FE03F8
FE03F8
FE07F0
FF07F0
7F9FF0
7FFFF0
7FFFF0
3FFFFC
1FFFFC
0FFFFC
01FDFC
0000FC
00003C
ENDCHAR
STARTCHAR R
ENCODING 82
SWIDTH 402 0
DWIDTH 25 0
BBX 22 45 2 -1
BITMAP
FFFE00
FFFF80
FFFFC0
FFFFE0
FFFFF0
FFFFF0
FE0FF8
FE07F8
FE03F8
FE03F8
FE03F8
FE03F8
FE03F8
FE03F8
FE03F8
FE03F8
FE03F8
FE03F0
FE07F0
FE0FF0
FFFFE0
FFFFC0
FFFF80
FFFFC0
FFFFE0
FFFFF0
FE0FF0
FE07F0
FE03F8
FE03F8
FE03F8
FE03F8
FE03F8
FE03F8
FE03F8
FE03F8
FE03F8
FE03F8
FE03F8
FE03F8
FE03F8
FE03F8
FE03F8
FE03F8
FE01FC
ENDCHAR
STARTCHAR S
ENCODING 83
SWIDTH 374 0
DWIDTH 23 0
BBX 21 45 1 -1
BITMAP
01FC00
07FF00
1FFFC0
1FFFE0
3FFFE0
3FFFF0
7F8FF0
7F03F0
7F03F8
7E03F8
7E03F8
7E03F8
7F0000
7F0000
7F0000
7F8000
3FC000
3FE000
1FE000
1FF000
0FFC00
07FE00
03FF00
01FF80
00FF80
007FC0
003FE0
001FE0
000FF0
000FF0
0007F0
FE07F8
FE03F8
FE03F8
FE03F8
FE03F8
7E03F8
7F07F0
7F8FF0
7FFFF0
3FFFE0
3FFFE0
1FFFC0
07FF80
01FC00
ENDCHAR
STARTCHAR T
ENCODING 84
SWIDTH 356 0
DWIDTH 22 0
BBX 22 45 0 -1
BITMAP
FFFFFC
FFFFFC
FFFFFC
FFFFFC
FFFFFC
FFFFFC
00FC00
00FC00
00FC00
00FC00
00FC00
00FC00
00FC00
00FC00
00FC00
00FC00
00FC00
00FC00
00FC00
00FC00
00FC00
00FC00
00FC00
00FC00
00FC00
00FC00
00FC00
00FC00
00FC00
00FC00
00FC00
00FC00
00FC00
00FC00
00FC00
00FC00
00FC00
00FC00
00FC00
00FC00
00FC00
00FC00
00FC00
00FC00
00FC00
ENDCHAR
STARTCHAR U
ENCODING 85
SWIDTH 398 0
DWIDTH 25 0
BBX 21 44 2 0
BITMAP
FE03F8
FE03F8
FE03F8
FE03F8
FE03F8
FE03F8
FE03F8
FE03F8
FE03F8
FE03F8
FE03F8
FE03F8
FE03F8
FE03F8
FE03F8
FE03F8
FE03F8
FE03F8
FE03F8
FE03F8
FE03F8
FE03F8
FE03F8
FE03F8
FE03F8
FE03F8
FE03F8
FE03F8
FE03F8
FE03F8
FE03F8
FE03F8
FE03F8
FE03F0
FE03F0
FE03F0
FF07F0
7F07F0
7FFFF0
7FFFE0
3FFFE0
1FFFC0
0FFF80
03FE00
ENDCHAR
STARTCHAR V
ENCODING 86
SWIDTH 402 0
DWIDTH 25 0
BBX 23 45 1 -1
BITMAP
FE007E
FE007E
FE007E
FE00FE
FE00FE
FE00FC
7E00FC
7F00FC
7F00FC
7F00FC
7F00FC
7F01FC
3F01F8
3F01F8
3F81F8
3F81F8
3F81F8
3F81F8
3F83F0
1F83F0
1F83F0
1FC3F0
1FC3F0
1FC3F0
1FC3F0
1FC7E0
0FC7E0
0FC7E0
0FE7E0
0FE7E0
0FE7E0
0FE7E0
07EFC0
07EFC0
07EFC0
07FFC0
07FFC0
07FFC0
07FFC0
03FF80
03FF80
03FF80
03FF80
03FF80
03FF80
ENDCHAR
STARTCHAR W
ENCODING 87
SWIDTH 563 0
DWIDTH 35 0
BBX 33 45 1 -1
BITMAP
FE07F01F80
FE07F01F80
FE07F01F80
FE07F01F80
FE07F81F00
FE07F83F00
7E07F83F00
7E07F83F00
7E07F83F00
7F07F83F00
7F07F83F00
7F0FF83F00
7F0FF83F00
7F0FF83F00
7F0FF83E00
3F0FFC3E00
3F0FFC7E00
3F0FFC7E00
3F0FFC7E00
3F8FFC7E00
3F8FFC7E00
3F8FFC7E00
3F9F7C7E00
3F9F7C7C00
1F9F7C7C00
1F9F7E7C00
1F9F7EFC00
1F9F7EFC00
1F9F7EFC00
1FDF7EFC00
1FDF3EFC00
1FDF3EFC00
1FDE3EF800
0FFE3EF800
0FFE3EF800
0FFE3EF800
0FFE3FF800
0FFE3FF800
0FFE3FF800
0FFE3FF800
0FFE1FF800
0FFC1FF000
0FFC1FF000
07FC1FF000
07FC1FF000
ENDCHAR
STARTCHAR X
ENCODING 88
SWIDTH 430 0
DWIDTH 27 0
BBX 25 45 1 -1
BITMAP
7F003F00
7F007F00
7F007E00
3F807E00
3F80FE00
3F80FC00
1FC0FC00
1FC0FC00
1FC1F800
1FC1F800
0FE1F800
0FE3F000
0FE3F000
07F3F000
07F7E000
07F7E000
03FFE000
03FFE000
03FFC000
01FFC000
01FFC000
01FF8000
01FF8000
01FFC000
01FFC000
03FFC000
03FFE000
03FFE000
07FFE000
07E7F000
07E7F000
0FE7F000
0FC3F800
0FC3F800
1FC3F800
1F81FC00
1F81FC00
3F81FC00
3F01FE00
3F00FE00
7F00FE00
7E00FF00
7E007F00
FE007F00
FC007F80
ENDCHAR
STARTCHAR Y
ENCODING 89
SWIDTH 396 0
DWIDTH 25 0
BBX 24 45 0 -1
BITMAP
FF003F
7F007F
7F007F
7F007E
3F807E
3F80FE
3F80FC
3F80FC
1FC0FC
1FC1FC
1FC1F8
0FC1F8
0FE1F8
0FE3F0
0FE3F0
07E3F0
07F3F0
07F7E0
03F7E0
03F7E0
03FFC0
03FFC0
01FFC0
01FFC0
01FF80
00FF80
00FF80
00FF00
00FF00
007F00
007F00
007F00
007F00
007F00
007F00
007F00
007F00
007F00
007F00
007F00
007F00
007F00
007F00
007F00
007F00
ENDCHAR
STARTCHAR Z
ENCODING 90
SWIDTH 370 0
DWIDTH 23 0
BBX 20 45 1 -1
BITMAP
7FFFF0
7FFFF0
7FFFF0
7FFFF0
7FFFF0
7FFFF0
0007F0
0007F0
000FE0
000FE0
000FE0
001FC0
001FC0
003F80
003F80
003F80
007F00
007F00
007E00
00FE00
00FE00
01FC00
01FC00
01F800
03F800
03F800
07F000
07F000
07F000
0FE000
0FE000
1FC000
1FC000
1FC000
3F8000
3F8000
7F0000
7F0000
7F0000
FFFFF0
FFFFF0
FFFFF0
FFFFF0
FFFFF0
FFFFF0
ENDCHAR
STARTCHAR bracketleft
ENCODING 91
SWIDTH 251 0
DWIDTH 16 0
BBX 11 45 3 -1
BITMAP
FFE0
FFE0
FFE0
FFE0
FFE0
FFE0
FE00
FE00
FE00
FE00
FE00
FE00
FE00
FE00
FE00
FE00
FE00
FE00
FE00
FE00
FE00
FE00
FE00
FE00
FE00
FE00
FE00
FE00
FE00
FE00
FE00
FE00
FE00
FE00
FE00
FE00
FE00
FE00
FE00
FFE0
FFE0
FFE0
FFE0
FFE0
FFE0
ENDCHAR
STARTCHAR backslash
ENCODING 92
SWIDTH 381 0
DWIDTH 24 0
BBX 23 45 0 -1
BITMAP
FC0000
7E0000
7E0000
3F0000
3F0000
3F0000
1F8000
1F8000
0F8000
0FC000
0FC000
07E000
07E000
07E000
03F000
03F000
01F000
01F800
01F800
00FC00
00FC00
00FC00
007E00
007E00
003F00
003F00
003F00
001F80
001F80
001F80
000FC0
000FC0
0007E0
0007E0
0007E0
0003F0
0003F0
0001F0
0001F8
0001F8
0000FC
0000FC
0000FC
00007E
00007E
ENDCHAR
STARTCHAR bracketright
ENCODING 93
SWIDTH 251 0
DWIDTH 16 0
BBX 12 45 1 -1
BITMAP
FFF0
FFF0
FFF0
FFF0
FFF0
FFF0
07F0
07F0
07F0
07F0
07F0
07F0
07F0
07F0
07F0
07F0
07F0
07F0
07F0
07F0
07F0
07F0
07F0
07F0
07F0
07F0
07F0
07F0
07F0
07F0
07F0
07F0
07F0
07F0
07F0
07F0
07F0
07F0
07F0
FFF0
FFF0
FFF0
FFF0
FFF0
FFF0
ENDCHAR
STARTCHAR asciicircum
ENCODING 94
SWIDTH 396 0
DWIDTH 25 0
BBX 21 19 2 25
BITMAP
00F800
01F800
01FC00
03FC00
03FE00
07FE00
07FF00
0FDF00
0F9F80
0F8F80
1F0F80
1F07C0
3F07C0
3E07E0
7E03E0
7C03F0
FC01F0
F801F8
F800F8
ENDCHAR
STARTCHAR underscore
ENCODING 95
SWIDTH 500 0
DWIDTH 31 0
BBX 31 5 0 -6
BITMAP
FFFFFFFE
FFFFFFFE
FFFFFFFE
FFFFFFFE
FFFFFFFE
ENDCHAR
STARTCHAR grave
ENCODING 96
SWIDTH 250 0
DWIDTH 16 0
BBX 11 7 3 46
BITMAP
FE00
7F00
3F00
1F80
0F80
07C0
03E0
ENDCHAR
STARTCHAR a
ENCODING 97
SWIDTH 407 0
DWIDTH 25 0
BBX 23 45 1 -1
BITMAP
01FF80
03FF80
03FF80
03FF80
03FF80
03FF80
03FFC0
07FFC0
07FFC0
07EFC0
07EFC0
07EFC0
07EFE0
07CFE0
0FCFE0
0FCFE0
0FCFE0
0FC7E0
0FC7E0
0FC7F0
1F87F0
1F87F0
1F87F0
1F87F0
1F83F0
1F83F8
1F83F8
3F03F8
3F03F8
3F03F8
3F03F8
3FFFF8
3FFFFC
7FFFFC
7FFFFC
7FFFFC
7FFFFC
7E00FC
7E00FE
7E00FE
FE00FE
FC00FE
FC00FE
FC00FE
FC007E
ENDCHAR
STARTCHAR b
ENCODING 98
SWIDTH 406 0
DWIDTH 25 0
BBX 22 45 2 -1
BITMAP
FFFE00
FFFF80
FFFFC0
FFFFE0
FFFFF0
FFFFF0
FE0FF0
FE07F8
FE03F8
FE03F8
FE03F8
FE03F8
FE03F8
FE03F8
FE03F8
FE03F8
FE03F0
FE07F0
FE0FF0
FFFFE0
FFFFC0
FFFF80
FFFFC0
FFFFE0
FFFFF0
FE07F8
FE03F8
FE03F8
FE01F8
FE01F8
FE01FC
FE01FC
FE01FC
FE01FC
FE01FC
FE01FC
FE03F8
FE03F8
FE07F8
FFFFF8
FFFFF0
FFFFF0
FFFFE0
FFFF80
FFFE00
ENDCHAR
STARTCHAR c
ENCODING 99
SWIDTH 386 0
DWIDTH 24 0
BBX 20 45 2 -1
BITMAP
03FC00
0FFF00
1FFF80
3FFFC0
7FFFE0
7FFFE0
FF8FF0
FE07F0
FE03F0
FE03F0
FE03F0
FE03F0
FE03F0
FE03F0
FE03F0
FE0000
FE0000
FE0000
FE0000
FE0000
FE0000
FE0000
FE0000
FE0000
FE0000
FE0000
FE0000
FE0000
FE03F0
FE03F0
FE03F0
FE03F0
FE03F0
FE03F0
FE03F0
FE03F0
FE03F0
FE07F0
FF8FF0
7FFFE0
7FFFE0
3FFFC0
1FFF80
0FFF00
03FC00
ENDCHAR
STARTCHAR d
ENCODING 100
SWIDTH 408 0
DWIDTH 25 0
BBX 21 45 2 -1
BITMAP
FFFE00
FFFF80
FFFFE0
FFFFE0
FFFFF0
FFFFF8
FE07F8
FE03F8
FE03F8
FE01F8
FE01F8
FE01F8
FE01F8
FE01F8
FE01F8
FE01F8
FE01F8
FE01F8
FE01F8
FE01F8
FE01F8
FE01F8
FE01F8
FE01F8
FE01F8
FE01F8
FE01F8
FE01F8
FE01F8
FE01F8
FE01F8
FE01F8
FE01F8
FE01F8
FE01F8
FE01F8
FE03F8
FE03F8
FE07F8
FFFFF8
FFFFF0
FFFFE0
FFFFE0
FFFF80
FFFE00
ENDCHAR
STARTCHAR e
ENCODING 101
SWIDTH 368 0
DWIDTH 23 0
BBX 19 45 2 -1
BITMAP
FFFFE0
FFFFE0
FFFFE0
FFFFE0
FFFFE0
FFFFE0
FE0000
FE0000
FE0000
FE0000
FE0000
FE0000
FE0000
FE0000
FE0000
FE0000
FE0000
FE0000
FE0000
FFFF80
FFFF80
FFFF80
FFFF80
FFFF80
FFFF80
FE0000
FE0000
FE0000
FE0000
FE0000
FE0000
FE0000
FE0000
FE0000
FE0000
FE0000
FE0000
FE0000
FE0000
FFFFE0
FFFFE0
FFFFE0
FFFFE0
FFFFE0
FFFFE0
ENDCHAR
STARTCHAR f
ENCODING 102
SWIDTH 344 0
DWIDTH 21 0
BBX 19 45 2 -1
BITMAP
FFFFE0
FFFFE0
FFFFE0
FFFFE0
FFFFE0
FFFFE0
FE0000
FE0000
FE0000
FE0000
FE0000
FE0000
FE0000
FE0000
FE0000
FE0000
FE0000
FE0000
FE0000
FE0000
FFFF00
FFFF00
FFFF00
FFFF00
FFFF00
FFFF00
FE0000
FE0000
FE0000
FE0000
FE0000
FE0000
FE0000
FE0000
FE0000
FE0000
FE0000
FE0000
FE0000
FE0000
FE0000
FE0000
FE0000
FE0000
FE0000
ENDCHAR
STARTCHAR g
ENCODING 103
SWIDTH 390 0
DWIDTH 24 0
BBX 20 45 2 -1
BITMAP
03FC00
0FFF00
1FFF80
3FFFC0
7FFFE0
7FFFE0
FF8FF0
FE07F0
FE03F0
FE03F0
FE03F0
FE03F0
FE03F0
FE03F0
FE03F0
FE0000
FE0000
FE0000
FE0000
FE0000
FE1FF0
FE1FF0
FE1FF0
FE1FF0
FE1FF0
FE1FF0
FE03F0
FE03F0
FE03F0
FE03F0
FE03F0
FE03F0
FE03F0
FE03F0
FE03F0
FE03F0
FE03F0
FE07F0
FF8FF0
7FFFE0
7FFFE0
3FFFC0
1FFF80
0FFF00
03FC00
ENDCHAR
STARTCHAR h
ENCODING 104
SWIDTH 427 0
DWIDTH 26 0
BBX 22 45 2 -1
BITMAP
FE01FC
FE01FC
FE01FC
FE01FC
FE01FC
FE01FC
FE01FC
FE01FC
FE01FC
FE01FC
FE01FC
FE01FC
FE01FC
FE01FC
FE01FC
FE01FC
FE01FC
FE01FC
FE01FC
FE01FC
FFFFFC
FFFFFC
FFFFFC
FFFFFC
FFFFFC
FFFFFC
FE01FC
FE01FC
FE01FC
FE01FC
FE01FC
FE01FC
FE01FC
FE01FC
FE01FC
FE01FC
FE01FC
FE01FC
FE01FC
FE01FC
FE01FC
FE01FC
FE01FC
FE01FC
FE01FC
ENDCHAR
STARTCHAR i
ENCODING 105
SWIDTH 190 0
DWIDTH 12 0
BBX 7 45 2 -1
BITMAP
FE
FE
FE
FE
FE
FE
FE
FE
FE
FE
FE
FE
FE
FE
FE
FE
FE
FE
FE
FE
FE
FE
FE
FE
FE
FE
FE
FE
FE
FE
FE
FE
FE
FE
FE
FE
FE
FE
FE
FE
FE
FE
FE
FE
FE
ENDCHAR
STARTCHAR j
ENCODING 106
SWIDTH 256 0
DWIDTH 16 0
BBX 13 45 1 -1
BITMAP
03F8
03F8
03F8
03F8
03F8
03F8
03F8
03F8
03F8
03F8
03F8
03F8
03F8
03F8
03F8
03F8
03F8
03F8
03F8
03F8
03F8
03F8
03F8
03F8
03F8
03F8
03F8
03F8
03F8
03F8
03F8
03F8
03F8
03F8
03F8
03F8
03F8
07F0
0FF0
FFF0
FFE0
FFE0
FFC0
FF80
FE00
ENDCHAR
STARTCHAR k
ENCODING 107
SWIDTH 414 0
DWIDTH 26 0
BBX 23 45 2 -1
BITMAP
FE00FE
FE00FC
FE01FC
FE01F8
FE03F8
FE03F0
FE07F0
FE07E0
FE0FE0
FE0FE0
FE1FC0
FE1FC0
FE1F80
FE3F80
FE3F00
FE7F00
FE7E00
FEFE00
FEFC00
FFFC00
FFFC00
FFFC00
FFFC00
FFFE00
FFFE00
FFFF00
FFFF00
FFBF00
FFBF80
FF3F80
FF1FC0
FE1FC0
FE1FC0
FE0FE0
FE0FE0
FE07E0
FE07F0
FE07F0
FE03F8
FE03F8
FE03F8
FE01FC
FE01FC
FE01FC
FE00FE
ENDCHAR
STARTCHAR l
ENCODING 108
SWIDTH 339 0
DWIDTH 21 0
BBX 19 45 2 -1
BITMAP
FE0000
FE0000
FE0000
FE0000
FE0000
FE0000
FE0000
FE0000
FE0000
FE0000
FE0000
FE0000
FE0000
FE0000
FE0000
FE0000
FE0000
FE0000
FE0000
FE0000
FE0000
FE0000
FE0000
FE0000
FE0000
FE0000
FE0000
FE0000
FE0000
FE0000
FE0000
FE0000
FE0000
FE0000
FE0000
FE0000
FE0000
FE0000
FE0000
FFFFE0
FFFFE0
FFFFE0
FFFFE0
FFFFE0
FFFFE0
ENDCHAR
STARTCHAR m
ENCODING 109
SWIDTH 541 0
DWIDTH 34 0
BBX 29 45 2 -1
BITMAP
FFC01FF8
FFC01FF8
FFC01FF8
FFC01FF8
FFE01FF8
FFE01FF8
FFE01FF8
FFE03FF8
FFE03FF8
FFE03FF8
FFF03FF8
FFF03FF8
FFF03FF8
FFF03FF8
FDF07DF8
FDF07DF8
FDF07DF8
FDF87DF8
FDF87DF8
FDF87DF8
FCF879F8
FCF8F9F8
FCF8F9F8
FCFCF9F8
FCFCF9F8
FCFCF9F8
FCFCF9F8
FC7CF1F8
FC7DF1F8
FC7FF1F8
FC7FF1F8
FC7FF1F8
FC7FF1F8
FC3FF1F8
FC3FE1F8
FC3FE1F8
FC3FE1F8
FC3FE1F8
FC3FE1F8
FC1FE1F8
FC1FE1F8
FC1FC1F8
FC1FC1F8
FC1FC1F8
FC1FC1F8
ENDCHAR
STARTCHAR n
ENCODING 110
SWIDTH 427 0
DWIDTH 26 0
BBX 22 45 2 -1
BITMAP
FF80FC
FF80FC
FFC0FC
FFC0FC
FFC0FC
FFC0FC
FFE0FC
FFE0FC
FFE0FC
FFE0FC
FFF0FC
FFF0FC
FFF0FC
FFF0FC
FFF8FC
FFF8FC
FEF8FC
FEFCFC
FEFCFC
FEFCFC
FE7CFC
FE7EFC
FE7EFC
FE7EFC
FE3EFC
FE3FFC
FE3FFC
FE3FFC
FE1FFC
FE1FFC
FE1FFC
FE0FFC
FE0FFC
FE0FFC
FE0FFC
FE07FC
FE07FC
FE07FC
FE07FC
FE03FC
FE03FC
FE03FC
FE03FC
FE01FC
FE01FC
ENDCHAR
STARTCHAR o
ENCODING 111
SWIDTH 396 0
DWIDTH 25 0
BBX 21 45 2 -1
BITMAP
03FC00
0FFF00
1FFFC0
3FFFC0
7FFFE0
7FFFF0
7F8FF0
FE07F0
FE03F0
FE03F8
FE03F8
FE03F8
FE03F8
FE03F8
FE03F8
FE03F8
FE03F8
FE03F8
FE03F8
FE03F8
FE03F8
FE03F8
FE03F8
FE03F8
FE03F8
FE03F8
FE03F8
FE03F8
FE03F8
FE03F8
FE03F8
FE03F8
FE03F8
FE03F8
FE03F8
FE03F8
FE03F0
FE07F0
7F8FF0
7FFFF0
7FFFE0
3FFFE0
1FFFC0
0FFF00
01FC00
ENDCHAR
STARTCHAR p
ENCODING 112
SWIDTH 377 0
DWIDTH 23 0
BBX 21 45 2 -1
BITMAP
FFFC00
FFFF80
FFFFC0
FFFFE0
FFFFE0
FFFFF0
FE0FF0
FE07F0
FE03F8
FE03F8
FE03F8
FE03F8
FE03F8
FE03F8
FE03F8
FE03F8
FE03F8
FE03F8
FE03F8
FE03F8
FE07F0
FE0FF0
FFFFF0
FFFFE0
FFFFE0
FFFFC0
FFFF80
FFFC00
FE0000
FE0000
FE0000
FE0000
FE0000
FE0000
FE0000
FE0000
FE0000
FE0000
FE0000
FE0000
FE0000
FE0000
FE0000
FE0000
FE0000
ENDCHAR
STARTCHAR q
ENCODING 113
SWIDTH 396 0
DWIDTH 25 0
BBX 22 47 2 -3
BITMAP
03FC00
0FFF00
1FFFC0
3FFFC0
7FFFE0
7FFFF0
7F8FF0
FE07F0
FE03F0
FE03F8
FE03F8
FE03F8
FE03F8
FE03F8
FE03F8
FE03F8
FE03F8
FE03F8
FE03F8
FE03F8
FE03F8
FE03F8
FE03F8
FE03F8
FE03F8
FE03F8
FE03F8
FE03F8
FE03F8
FE03F8
FE03F8
FE03F8
FE03F8
FE03F8
FE03F8
FE03F8
FE07F0
FF07F0
7F9FF0
7FFFF0
7FFFF0
3FFFFC
1FFFFC
0FFFFC
01FDFC
0000FC
00003C
ENDCHAR
STARTCHAR r
ENCODING 114
SWIDTH 402 0
DWIDTH 25 0
BBX 22 45 2 -1
BITMAP
FFFE00
FFFF80
FFFFC0
FFFFE0
FFFFF0
FFFFF0
FE0FF8
FE07F8
FE03F8
FE03F8
FE03F8
FE03F8
FE03F8
FE03F8
FE03F8
FE03F8
FE03F8
FE03F0
FE07F0
FE0FF0
FFFFE0
FFFFC0
FFFF80
FFFFC0
FFFFE0
FFFFF0
FE0FF0
FE07F0
FE03F8
FE03F8
FE03F8
FE03F8
FE03F8
FE03F8
FE03F8
FE03F8
FE03F8
FE03F8
FE03F8
FE03F8
FE03F8
FE03F8
FE03F8
FE03F8
FE01FC
ENDCHAR
STARTCHAR s
ENCODING 115
SWIDTH 374 0
DWIDTH 23 0
BBX 21 45 1 -1
BITMAP
01FC00
07FF00
1FFFC0
1FFFE0
3FFFE0
3FFFF0
7F8FF0
7F03F0
7F03F8
7E03F8
7E03F8
7E03F8
7F0000
7F0000
7F0000
7F8000
3FC000
3FE000
1FE000
1FF000
0FFC00
07FE00
03FF00
01FF80
00FF80
007FC0
003FE0
001FE0
000FF0
000FF0
0007F0
FE07F8
FE03F8
FE03F8
FE03F8
FE03F8
7E03F8
7F07F0
7F8FF0
7FFFF0
3FFFE0
3FFFE0
1FFFC0
07FF80
01FC00
ENDCHAR
STARTCHAR t
ENCODING 116
SWIDTH 356 0
DWIDTH 22 0
BBX 22 45 0 -1
BITMAP
FFFFFC
FFFFFC
FFFFFC
FFFFFC
FFFFFC
FFFFFC
00FC00
00FC00
00FC00
00FC00
00FC00
00FC00
00FC00
00FC00
00FC00
00FC00
00FC00
00FC00
00FC00
00FC00
00FC00
00FC00
00FC00
00FC00
00FC00
00FC00
00FC00
00FC00
00FC00
00FC00
00FC00
00FC00
00FC00
00FC00
00FC00
00FC00
00FC00
00FC00
00FC00
00FC00
00FC00
00FC00
00FC00
00FC00
00FC00
ENDCHAR
STARTCHAR u
ENCODING 117
SWIDTH 398 0
DWIDTH 25 0
BBX 21 44 2 0
BITMAP
FE03F8
FE03F8
FE03F8
FE03F8
FE03F8
FE03F8
FE03F8
FE03F8
FE03F8
FE03F8
FE03F8
FE03F8
FE03F8
FE03F8
FE03F8
FE03F8
FE03F8
FE03F8
FE03F8
FE03F8
FE03F8
FE03F8
FE03F8
FE03F8
FE03F8
FE03F8
FE03F8
FE03F8
FE03F8
FE03F8
FE03F8
FE03F8
FE03F8
FE03F0
FE03F0
FE03F0
FF07F0
7F07F0
7FFFF0
7FFFE0
3FFFE0
1FFFC0
0FFF80
03FE00
ENDCHAR
STARTCHAR v
ENCODING 118
SWIDTH 402 0
DWIDTH 25 0
BBX 23 45 1 -1
BITMAP
FE007E
FE007E
FE007E
FE00FE
FE00FE
FE00FC
7E00FC
7F00FC
7F00FC
7F00FC
7F00FC
7F01FC
3F01F8
3F01F8
3F81F8
3F81F8
3F81F8
3F81F8
3F83F0
1F83F0
1F83F0
1FC3F0
1FC3F0
1FC3F0
1FC3F0
1FC7E0
0FC7E0
0FC7E0
0FE7E0
0FE7E0
0FE7E0
0FE7E0
07EFC0
07EFC0
07EFC0
07FFC0
07FFC0
07FFC0
07FFC0
03FF80
03FF80
03FF80
03FF80
03FF80
03FF80
ENDCHAR
STARTCHAR w
ENCODING 119
SWIDTH 563 0
DWIDTH 35 0
BBX 33 45 1 -1
BITMAP
FE07F01F80
FE07F01F80
FE07F01F80
FE07F01F80
FE07F81F00
FE07F83F00
7E07F83F00
7E07F83F00
7E07F83F00
7F07F83F00
7F07F83F00
7F0FF83F00
7F0FF83F00
7F0FF83F00
7F0FF83E00
3F0FFC3E00
3F0FFC7E00
3F0FFC7E00
3F0FFC7E00
3F8FFC7E00
3F8FFC7E00
3F8FFC7E00
3F9F7C7E00
3F9F7C7C00
1F9F7C7C00
1F9F7E7C00
1F9F7EFC00
1F9F7EFC00
1F9F7EFC00
1FDF7EFC00
1FDF3EFC00
1FDF3EFC00
1FDE3EF800
0FFE3EF800
0FFE3EF800
0FFE3EF800
0FFE3FF800
0FFE3FF800
0FFE3FF800
0FFE3FF800
0FFE1FF800
0FFC1FF000
0FFC1FF000
07FC1FF000
07FC1FF000
ENDCHAR
STARTCHAR x
ENCODING 120
SWIDTH 430 0
DWIDTH 27 0
BBX 25 45 1 -1
BITMAP
7F003F00
7F007F00
7F007E00
3F807E00
3F80FE00
3F80FC00
1FC0FC00
1FC0FC00
1FC1F800
1FC1F800
0FE1F800
0FE3F000
0FE3F000
07F3F000
07F7E000
07F7E000
03FFE000
03FFE000
03FFC000
01FFC000
01FFC000
01FF8000
01FF8000
01FFC000
01FFC000
03FFC000
03FFE000
03FFE000
07FFE000
07E7F000
07E7F000
0FE7F000
0FC3F800
0FC3F800
1FC3F800
1F81FC00
1F81FC00
3F81FC00
3F01FE00
3F00FE00
7F00FE00
7E00FF00
7E007F00
FE007F00
FC007F80
ENDCHAR
STARTCHAR y
ENCODING 121
SWIDTH 396 0
DWIDTH 25 0
BBX 24 45 0 -1
BITMAP
FF003F
7F007F
7F007F
7F007E
3F807E
3F80FE
3F80FC
3F80FC
1FC0FC
1FC1FC
1FC1F8
0FC1F8
0FE1F8
0FE3F0
0FE3F0
07E3F0
07F3F0
07F7E0
03F7E0
03F7E0
03FFC0
03FFC0
01FFC0
01FFC0
01FF80
00FF80
00FF80
00FF00
00FF00
007F00
007F00
007F00
007F00
007F00
007F00
007F00
007F00
007F00
007F00
007F00
007F00
007F00
007F00
007F00
007F00
ENDCHAR
STARTCHAR z
ENCODING 122
SWIDTH 370 0
DWIDTH 23 0
BBX 20 45 1 -1
BITMAP
7FFFF0
7FFFF0
7FFFF0
7FFFF0
7FFFF0
7FFFF0
0007F0
0007F0
000FE0
000FE0
000FE0
001FC0
001FC0
003F80
003F80
003F80
007F00
007F00
007E00
00FE00
00FE00
01FC00
01FC00
01F800
03F800
03F800
07F000
07F000
07F000
0FE000
0FE000
1FC000
1FC000
1FC000
3F8000
3F8000
7F0000
7F0000
7F0000
FFFFF0
FFFFF0
FFFFF0
FFFFF0
FFFFF0
FFFFF0
ENDCHAR
STARTCHAR braceleft
ENCODING 123
SWIDTH 257 0
DWIDTH 16 0
BBX 14 45 1 -1
BITMAP
00FC
03FC
07FC
0FFC
0FFC
0FFC
0FE0
0FC0
1FC0
1FC0
1FC0
1FC0
1FC0
1F80
1F80
1F80
1F80
1F80
3F80
FF80
FF00
FE00
FC00
FF00
FF00
3F80
1F80
1F80
1F80
1F80
1F80
1FC0
1FC0
1FC0
1FC0
1FC0
1FC0
0FC0
0FE0
0FFC
0FFC
0FFC
07FC
03FC
00FC
ENDCHAR
STARTCHAR bar
ENCODING 124
SWIDTH 500 0
DWIDTH 31 0
BBX 6 51 13 -4
BITMAP
FC
FC
FC
FC
FC
FC
FC
FC
FC
FC
FC
FC
FC
FC
FC
FC
FC
FC
FC
FC
FC
FC
FC
FC
FC
FC
FC
FC
FC
FC
FC
FC
FC
FC
FC
FC
FC
FC
FC
FC
FC
FC
FC
FC
FC
FC
FC
FC
FC
FC
FC
ENDCHAR
STARTCHAR braceright
ENCODING 125
SWIDTH 257 0
DWIDTH 16 0
BBX 14 45 1 -1
BITMAP
FC00
FF00
FF80
FFC0
FFC0
FFC0
1FC0
0FC0
0FC0
0FE0
0FE0
0FE0
0FE0
0FE0
0FE0
07E0
07E0
07E0
07F0
07FC
03FC
01FC
00FC
03FC
07FC
07F0
07E0
07E0
07E0
07E0
0FE0
0FE0
0FE0
0FE0
0FE0
0FC0
0FC0
0FC0
1FC0
FFC0
FFC0
FFC0
FF80
FF00
FC00
ENDCHAR
STARTCHAR asciitilde
ENCODING 126
SWIDTH 396 0
DWIDTH 25 0
BBX 23 9 1 17
BITMAP
0F8000
1FE018
3FF83C
7FFC7E
FFFFFC
F8FFFC
703FF8
200FF0
0003C0
ENDCHAR
STARTCHAR uni00A0
ENCODING 160
SWIDTH 155 0
DWIDTH 10 0
BBX 1 1 0 0
BITMAP
00
ENDCHAR
STARTCHAR exclamdown
ENCODING 161
SWIDTH 190 0
DWIDTH 12 0
BBX 7 45 2 -1
BITMAP
7E
7E
7E
7E
7E
7E
7E
00
00
00
7C
7E
7E
7E
7E
7E
7E
7E
7E
7E
7E
7E
7E
7E
7E
FE
FE
FE
FE
FE
FE
FE
FE
FE
FE
FE
FE
FE
FE
FE
FE
FE
FE
FE
FE
ENDCHAR
STARTCHAR cent
ENCODING 162
SWIDTH 396 0
DWIDTH 25 0
BBX 21 45 2 -1
BITMAP
01F800
01F800
01F800
03FE00
0FFF80
1FFFC0
3FFFE0
3FFFE0
7FFFF0
7F87F0
FF03F0
FE03F0
FE03F8
FE03F8
FE03F8
FE03F8
FE03F8
FE0000
FE0000
FE0000
FE0000
FE0000
FE0000
FE0000
FE0000
FE0000
FE0000
FE03F8
FE03F8
FE03F8
FE03F8
FE03F8
FE03F0
FE03F0
FF07F0
7F8FF0
7FFFF0
3FFFE0
3FFFE0
1FFFC0
0FFF80
03FC00
01F800
01F800
01F800
ENDCHAR
STARTCHAR sterling
ENCODING 163
SWIDTH 396 0
DWIDTH 25 0
BBX 21 45 2 -1
BITMAP
01FC00
07FF00
1FFFC0
3FFFC0
3FFFE0
7FFFF0
7F8FF0
7F07F0
7F03F0
7E03F0
FE03F8
FE03F8
FE03F8
7E03F8
7F03F8
7F03F8
7F0000
7F0000
7F0000
3F8000
3F8000
1FC000
1FC000
0FC000
0FE000
0FE000
07E000
7FFFE0
7FFFE0
7FFFE0
7FFFE0
7FFFE0
03F000
03F000
07E000
07E000
0FC000
0FC000
3F8000
FFFFF0
FFFFF0
FFFFF0
FFFFF0
FFFFF0
FFFFF0
ENDCHAR
STARTCHAR currency
ENCODING 164
SWIDTH 396 0
DWIDTH 25 0
BBX 20 20 2 12
BITMAP
200060
7000F0
F9F9F0
7FFFE0
3FFFC0
1FFF80
1F0F80
1E07C0
3E03C0
3C03C0
3C03C0
3E03C0
1E07C0
1F0FC0
1FFF80
3FFFC0
7FFFE0
FDF9F0
7800F0
300060
ENDCHAR
STARTCHAR yen
ENCODING 165
SWIDTH 396 0
DWIDTH 25 0
BBX 23 45 1 -1
BITMAP
FE00FE
FE00FE
FE00FC
FE00FC
7F01FC
7F01FC
7F01F8
3F01F8
3F83F8
3F83F0
3F83F0
1F83F0
1FC7F0
1FC7E0
1FC7E0
0FC7E0
0FEFC0
0FEFC0
07EFC0
07EFC0
07FF80
07FF80
03FF80
03FF00
03FF00
01FF00
01FF00
01FE00
3FFFF0
3FFFF0
3FFFF0
00FE00
00FE00
00FE00
3FFFF0
3FFFF0
3FFFF0
3FFFF0
00FE00
00FE00
00FE00
00FE00
00FE00
00FE00
00FE00
ENDCHAR
STARTCHAR brokenbar
ENCODING 166
SWIDTH 500 0
DWIDTH 31 0
BBX 6 51 13 -4
BITMAP
FC
FC
FC
FC
FC
FC
FC
FC
FC
FC
FC
FC
FC
FC
FC
FC
FC
FC
FC
FC
FC
FC
00
00
00
00
00
00
00
FC
FC
FC
FC
FC
FC
FC
FC
FC
FC
FC
FC
FC
FC
FC
FC
FC
FC
FC
FC
FC
FC
ENDCHAR
STARTCHAR section
ENCODING 167
SWIDTH 396 0
DWIDTH 25 0
BBX 20 49 2 -5
BITMAP
03FC00
0FFF00
1FFFC0
3FFFE0
7FFFE0
7FFFF0
FF07F0
FE07F0
FE03F0
FE03F0
FE03F0
FF0000
7FC000
7FF000
3FFC00
1FFF00
0FFF80
0FFFC0
3FFFE0
3FFFE0
7F0FF0
7E07F0
FE07F0
FE03F0
FE03F0
FE03F0
FE07F0
FF07F0
7F8FE0
7FFFE0
3FFFC0
1FFF00
0FFF80
07FFC0
01FFE0
007FE0
001FF0
FE07F0
FE07F0
FE07F0
FE07F0
FE07F0
FF0FF0
7FFFF0
7FFFE0
3FFFC0
1FFF80
07FF00
00F000
ENDCHAR
STARTCHAR dieresis
ENCODING 168
SWIDTH 250 0
DWIDTH 16 0
BBX 15 6 0 46
BITMAP
FC7E
FC7E
FC7E
FC7E
FC7E
FC7E
ENDCHAR
STARTCHAR copyright
ENCODING 169
SWIDTH 736 0
DWIDTH 46 0
BBX 43 45 1 -1
BITMAP
00007FE00000
0003FFFC0000
001FFFFF0000
003FFFFFC000
00FFF1FFE000
01FF000FF000
03F80003F800
07F00000FC00
07E000007E00
0FC03F803F00
1F80FFE01F00
1F00FFE00F80
3E01FFF00F80
3E01F1F007C0
7C01E0F007C0
7C01E0F803C0
7C01E0F803E0
7801E0F803E0
7801E0F801E0
F801E00001E0
F801E00001E0
F801E00001E0
F801E00001E0
F801E00001E0
F801E00001E0
F801E0F801E0
F801E0F801E0
7801E0F803E0
7C01E0F803E0
7C01E0F803C0
7C01E0F007C0
3E01F1F007C0
3E01FFF00F80
1F00FFE00F80
1F80FFE01F00
0FC03F803F00
07C000007E00
07F00000FC00
03F80003F800
01FE000FF000
00FFF0FFE000
003FFFFFC000
001FFFFF0000
0003FFFC0000
00007FE00000
ENDCHAR
STARTCHAR ordfeminine
ENCODING 170
SWIDTH 278 0
DWIDTH 17 0
BBX 13 30 2 14
BITMAP
0FC0
1FE0
3FF0
7FF8
78F8
7878
7878
7878
0078
07F8
1FF8
7FF8
7E78
F878
F078
F078
F078
F078
F8F8
FFF8
FFF8
7F78
3E78
0000
0000
0000
FFF8
FFF8
FFF8
FFF8
ENDCHAR
STARTCHAR guillemotleft
ENCODING 171
SWIDTH 355 0
DWIDTH 22 0
BBX 20 33 1 5
BITMAP
0FC3F0
0FC3F0
1F87E0
1F87E0
1F87E0
1F87E0
3F0FE0
3F0FC0
3F0FC0
3F0FC0
7F1FC0
7E1F80
7E1F80
7E1F80
FE3F80
FC3F00
FC3F00
FE3F80
7E1F80
7E1F80
7E1F80
7E1F80
7F1FC0
3F0FC0
3F0FC0
3F0FC0
3F8FE0
1F87E0
1F87E0
1F87E0
1F87E0
1FC3F0
0FC3F0
ENDCHAR
STARTCHAR logicalnot
ENCODING 172
SWIDTH 396 0
DWIDTH 25 0
BBX 21 13 2 11
BITMAP
FFFFF8
FFFFF8
FFFFF8
FFFFF8
FFFFF8
0000F8
0000F8
0000F8
0000F8
0000F8
0000F8
0000F8
0000F8
ENDCHAR
STARTCHAR uni00AD
ENCODING 173
SWIDTH 270 0
DWIDTH 17 0
BBX 13 6 2 19
BITMAP
FFF8
FFF8
FFF8
FFF8
FFF8
FFF8
ENDCHAR
STARTCHAR registered
ENCODING 174
SWIDTH 736 0
DWIDTH 46 0
BBX 43 45 1 -1
BITMAP
00007FE00000
0003FFFC0000
001FFFFF0000
003FFFFFC000
00FFF1FFE000
01FF000FF000
03F80003F800
07F00000FC00
07E000007E00
0FC1FF803F00
1F81FFE01F00
1F01FFF00F80
3E01FFF80F80
3E01F1F807C0
7C01F0F807C0
7C01F0F803C0
7C01F0F803E0
7801F0F803E0
F801F0F801E0
F801F0F801E0
F801F1F001E0
F801FFF001E0
F801FFE001E0
F801FFE001E0
F801FFF001E0
F801F3F801E0
F801F0F801E0
7801F0F803E0
7C01F0F803E0
7C01F0F803C0
7C01F0F807C0
3E01F0F807C0
3E01F0F80F80
1F01F0F80F80
1F81F0781F00
0FC1F07C3F00
07E000007E00
07F00000FC00
03F80003F800
01FE000FF000
00FFF0FFE000
003FFFFFC000
000FFFFF0000
0003FFFC0000
00007FE00000
ENDCHAR
STARTCHAR macron
ENCODING 175
SWIDTH 250 0
DWIDTH 16 0
BBX 14 5 1 46
BITMAP
FFFC
FFFC
FFFC
FFFC
FFFC
ENDCHAR
STARTCHAR degree
ENCODING 176
SWIDTH 228 0
DWIDTH 14 0
BBX 12 12 1 32
BITMAP
0F00
3FC0
7FE0
F8F0
E070
E070
E070
E070
F0F0
7FE0
3FC0
1F80
ENDCHAR
STARTCHAR plusminus
ENCODING 177
SWIDTH 396 0
DWIDTH 25 0
BBX 20 22 2 11
BITMAP
00F800
00F800
00F800
00F800
00F800
00F800
00F800
FFFFF0
FFFFF0
FFFFF0
FFFFF0
FFFFF0
00F800
00F800
00F800
00F800
00F800
FFFFF0
FFFFF0
FFFFF0
FFFFF0
FFFFF0
ENDCHAR
STARTCHAR uni00B2
ENCODING 178
SWIDTH 280 0
DWIDTH 17 0
BBX 12 28 3 22
BITMAP
0F00
3FC0
7FE0
FFF0
F1F0
F0F0
F0F0
F0F0
F0F0
F0F0
00F0
01F0
01E0
03E0
07C0
0F80
1F00
3F00
3E00
7C00
F800
F000
F000
F000
FFF0
FFF0
FFF0
FFF0
ENDCHAR
STARTCHAR uni00B3
ENCODING 179
SWIDTH 280 0
DWIDTH 17 0
BBX 13 29 2 21
BITMAP
0F80
3FE0
7FF0
7FF0
F8F8
F078
F078
F078
F078
0078
0078
00F0
0FF0
0FC0
0FE0
0FF0
00F8
00F8
0078
0078
F078
F078
F078
F078
F8F8
7FF0
7FF0
3FE0
0F80
ENDCHAR
STARTCHAR acute
ENCODING 180
SWIDTH 250 0
DWIDTH 16 0
BBX 10 7 2 46
BITMAP
0FC0
1F80
3F00
3E00
7E00
7C00
F800
ENDCHAR
STARTCHAR uni00B5
ENCODING 181
SWIDTH 396 0
DWIDTH 25 0
BBX 21 36 2 -6
BITMAP
FE03F8
FE03F8
FE03F8
FE03F8
FE03F8
FE03F8
FE03F8
FE03F8
FE03F8
FE03F8
FE03F8
FE03F8
FE03F8
FE03F8
FE03F8
FE03F8
FE03F8
FE03F8
FE03F8
FE03F8
FE03F8
FE03F8
FE03F8
FE07F8
FF07F8
FFFFF8
FFFFF8
FFFFF8
FFFFF8
FFFBF8
FFE3F8
FE0000
FE0000
FE0000
FE0000
FE0000
ENDCHAR
STARTCHAR paragraph
ENCODING 182
SWIDTH 396 0
DWIDTH 25 0
BBX 21 47 1 -3
BITMAP
03FFF8
0FFFF8
1FFFF8
3FFFF8
7FFFF8
7FF8F8
FFF8F8
FFF8F8
FFF8F8
FFF8F8
FFF8F8
FFF8F8
FFF8F8
FFF8F8
FFF8F8
FFF8F8
FFF8F8
FFF8F8
FFF8F8
FFF8F8
FFF8F8
7FF8F8
7FF8F8
3FF8F8
3FF8F8
1FF8F8
07F8F8
00F8F8
00F8F8
00F8F8
00F8F8
00F8F8
00F8F8
00F8F8
00F8F8
00F8F8
00F8F8
00F8F8
00F8F8
00F8F8
00F8F8
00F8F8
00F8F8
00F8F8
00F8F8
00F8F8
00F8F8
ENDCHAR
STARTCHAR periodcentered
ENCODING 183
SWIDTH 186 0
DWIDTH 12 0
BBX 7 7 2 18
BITMAP
FE
FE
FE
FE
FE
FE
FE
ENDCHAR
STARTCHAR cedilla
ENCODING 184
SWIDTH 250 0
DWIDTH 16 0
BBX 12 10 2 -9
BITMAP
0E00
0E00
0E00
0FC0
03E0
01F0
F1F0
FBF0
FFE0
7FC0
ENDCHAR
STARTCHAR uni00B9
ENCODING 185
SWIDTH 200 0
DWIDTH 12 0
BBX 7 27 2 22
BITMAP
0E
1E
3E
FE
FE
FE
1E
1E
1E
1E
1E
1E
1E
1E
1E
1E
1E
1E
1E
1E
1E
1E
1E
1E
1E
1E
1E
ENDCHAR
STARTCHAR ordmasculine
ENCODING 186
SWIDTH 280 0
DWIDTH 17 0
BBX 13 30 2 14
BITMAP
0FC0
3FE0
7FF0
7FF8
F8F8
F878
F078
F078
F078
F078
F078
F078
F078
F078
F078
F078
F078
F078
F878
F8F8
7FF8
7FF0
3FE0
0FC0
0000
0000
FFF8
FFF8
FFF8
FFF8
ENDCHAR
STARTCHAR guillemotright
ENCODING 187
SWIDTH 355 0
DWIDTH 22 0
BBX 20 33 1 5
BITMAP
FC3F00
FC3F80
7E1F80
7E1F80
7E1F80
7E1F80
7F0FC0
3F0FC0
3F0FC0
3F0FC0
3F8FE0
1F87E0
1F87E0
1F87E0
1FC7F0
0FC3F0
0FC3F0
1FC7F0
1F87E0
1F87E0
1F87E0
1F87E0
3F8FE0
3F0FC0
3F0FC0
3F0FC0
7F1FC0
7E1F80
7E1F80
7E1F80
7E1F80
FC3F80
FC3F00
ENDCHAR
STARTCHAR onequarter
ENCODING 188
SWIDTH 627 0
DWIDTH 39 0
BBX 34 45 4 -1
BITMAP
070001E000
0F0003C000
1F0003C000
FF0003C000
FF00078000
FF00078000
FF00078000
1F000F0000
1F000F0000
1F001E0000
1F001E0000
1F001E0000
1F003C0000
1F003C0000
1F003C0000
1F00780000
1F00781F00
1F00F03F00
1F00F03F00
1F00F03F00
1F01E07F00
1F01E07F00
1F03C0FF00
1F03C0FF00
1F03C0FF00
1F0781FF00
1F0781FF00
1F0783DF00
1F0F03DF00
000F03DF00
001E079F00
001E079F00
001E0F1F00
003C0F1F00
003C0F1F00
003C1E1F00
00781FFFC0
00781FFFC0
00F01FFFC0
00F01FFFC0
00F0001F00
01E0001F00
01E0001F00
03E0001F00
03C0001F00
ENDCHAR
STARTCHAR onehalf
ENCODING 189
SWIDTH 627 0
DWIDTH 39 0
BBX 33 45 4 -1
BITMAP
0700078000
0F00078000
1F000F0000
FF000F0000
FF001E0000
FF001E0000
FF001E0000
1F003C0000
1F003C0000
1F003C0000
1F00780000
1F00780000
1F00F00000
1F00F00000
1F00F00000
1F01E00000
1F01E0F800
1F01E3FE00
1F03C7FF00
1F03C7FF00
1F078F8F80
1F078F0F80
1F078F0780
1F0F0F0780
1F0F0F0780
1F1E0F0F80
1F1E000F80
1F1E000F00
003C001F00
003C001E00
003C003E00
0078007C00
007800F800
00F001F800
00F001F000
00F003E000
01E007C000
01E0078000
01E0078000
03C00F8000
03C00F0000
07800FFF80
07800FFF80
07800FFF80
0F000FFF80
ENDCHAR
STARTCHAR threequarters
ENCODING 190
SWIDTH 627 0
DWIDTH 39 0
BBX 36 45 2 -1
BITMAP
0FC0007800
3FE0007800
7FF0007800
7FF800F000
F8F800F000
F07800F000
F07801E000
F07801E000
F07803C000
007803C000
007803C000
00F0078000
0FF0078000
0FC0078000
0FE00F0000
0FF00F0000
00F81E0000
00F81E0FC0
00781E0FC0
00783C0FC0
F0783C1FC0
F078781FC0
F078783FC0
F078783FC0
F8F8F03FC0
7FF8F07FC0
7FF0F07FC0
3FE1E0F7C0
0FC1E0F7C0
0003C0F7C0
0003C1E7C0
0003C1E7C0
000783C7C0
000783C7C0
000783C7C0
000F0787C0
000F07FFF0
001E07FFF0
001E07FFF0
001E07FFF0
003C0007C0
003C0007C0
007C0007C0
00780007C0
00780007C0
ENDCHAR
STARTCHAR questiondown
ENCODING 191
SWIDTH 360 0
DWIDTH 22 0
BBX 20 45 1 -1
BITMAP
00FC00
00FC00
00FC00
00FC00
00FC00
00FC00
00FC00
000000
000000
000000
00FC00
00FC00
00FC00
00FC00
00FC00
00FC00
01FC00
01F800
03F800
03F800
07F000
0FE000
0FE000
1FC000
3FC000
3F8000
7F0000
7F0000
7F0000
FE03F0
FE03F0
FE03F0
FE03F0
FE03F0
FE03F0
FE03F0
FE07F0
FE07F0
7F8FE0
7FFFE0
7FFFE0
3FFFC0
1FFF80
0FFF00
03FC00
ENDCHAR
STARTCHAR Agrave
ENCODING 192
SWIDTH 407 0
DWIDTH 25 0
BBX 23 54 1 -1
BITMAP
07E000
07F000
03F800
01F800
00FC00
007E00
003E00
000000
000000
01FF80
03FF80
03FF80
03FF80
03FF80
03FF80
03FFC0
07FFC0
07FFC0
07EFC0
07EFC0
07EFC0
07EFE0
07CFE0
0FCFE0
0FCFE0
0FCFE0
0FC7E0
0FC7E0
0FC7F0
1F87F0
1F87F0
1F87F0
1F87F0
1F83F0
1F83F8
1F83F8
3F03F8
3F03F8
3F03F8
3F03F8
3FFFF8
3FFFFC
7FFFFC
7FFFFC
7FFFFC
7FFFFC
7E00FC
7E00FE
7E00FE
FE00FE
FC00FE
FC00FE
FC00FE
FC007E
ENDCHAR
STARTCHAR Aacute
ENCODING 193
SWIDTH 407 0
DWIDTH 25 0
BBX 23 54 1 -1
BITMAP
000FC0
001FC0
001F80
003F00
007E00
007C00
00F800
000000
000000
01FF80
03FF80
03FF80
03FF80
03FF80
03FF80
03FFC0
07FFC0
07FFC0
07EFC0
07EFC0
07EFC0
07EFE0
07CFE0
0FCFE0
0FCFE0
0FCFE0
0FC7E0
0FC7E0
0FC7F0
1F87F0
1F87F0
1F87F0
1F87F0
1F83F0
1F83F8
1F83F8
3F03F8
3F03F8
3F03F8
3F03F8
3FFFF8
3FFFFC
7FFFFC
7FFFFC
7FFFFC
7FFFFC
7E00FC
7E00FE
7E00FE
FE00FE
FC00FE
FC00FE
FC00FE
FC007E
ENDCHAR
STARTCHAR Acircumflex
ENCODING 194
SWIDTH 407 0
DWIDTH 25 0
BBX 23 54 1 -1
BITMAP
00FE00
01FF00
01FF80
03FF80
07EFC0
0FC7E0
1F83F0
000000
000000
01FF80
03FF80
03FF80
03FF80
03FF80
03FF80
03FFC0
07FFC0
07FFC0
07EFC0
07EFC0
07EFC0
07EFE0
07CFE0
0FCFE0
0FCFE0
0FCFE0
0FC7E0
0FC7E0
0FC7F0
1F87F0
1F87F0
1F87F0
1F87F0
1F83F0
1F83F8
1F83F8
3F03F8
3F03F8
3F03F8
3F03F8
3FFFF8
3FFFFC
7FFFFC
7FFFFC
7FFFFC
7FFFFC
7E00FC
7E00FE
7E00FE
FE00FE
FC00FE
FC00FE
FC00FE
FC007E
ENDCHAR
STARTCHAR Atilde
ENCODING 195
SWIDTH 407 0
DWIDTH 25 0
BBX 23 54 1 -1
BITMAP
01C000
07F0E0
0FFFF0
0FFFF0
1FFFE0
061FC0
020700
000000
000000
01FF80
03FF80
03FF80
03FF80
03FF80
03FF80
03FFC0
07FFC0
07FFC0
07EFC0
07EFC0
07EFC0
07EFE0
07CFE0
0FCFE0
0FCFE0
0FCFE0
0FC7E0
0FC7E0
0FC7F0
1F87F0
1F87F0
1F87F0
1F87F0
1F83F0
1F83F8
1F83F8
3F03F8
3F03F8
3F03F8
3F03F8
3FFFF8
3FFFFC
7FFFFC
7FFFFC
7FFFFC
7FFFFC
7E00FC
7E00FE
7E00FE
FE00FE
FC00FE
FC00FE
FC00FE
FC007E
ENDCHAR
STARTCHAR Adieresis
ENCODING 196
SWIDTH 407 0
DWIDTH 25 0
BBX 23 53 1 -1
BITMAP
0FC7E0
0FC7E0
0FC7E0
0FC7E0
0FC7E0
0FC7E0
000000
000000
01FF80
03FF80
03FF80
03FF80
03FF80
03FF80
03FFC0
07FFC0
07FFC0
07EFC0
07EFC0
07EFC0
07EFE0
07CFE0
0FCFE0
0FCFE0
0FCFE0
0FC7E0
0FC7E0
0FC7F0
1F87F0
1F87F0
1F87F0
1F87F0
1F83F0
1F83F8
1F83F8
3F03F8
3F03F8
3F03F8
3F03F8
3FFFF8
3FFFFC
7FFFFC
7FFFFC
7FFFFC
7FFFFC
7E00FC
7E00FE
7E00FE
FE00FE
FC00FE
FC00FE
FC00FE
FC007E
ENDCHAR
STARTCHAR Aring
ENCODING 197
SWIDTH 407 0
DWIDTH 25 0
BBX 23 57 1 -1
BITMAP
007C00
00FE00
01FF00
01C700
01C780
01C780
01C700
01FF00
00FE00
007C00
000000
000000
01FF80
03FF80
03FF80
03FF80
03FF80
03FF80
03FFC0
07FFC0
07FFC0
07EFC0
07EFC0
07EFC0
07EFE0
07CFE0
0FCFE0
0FCFE0
0FCFE0
0FC7E0
0FC7E0
0FC7F0
1F87F0
1F87F0
1F87F0
1F87F0
1F83F0
1F83F8
1F83F8
3F03F8
3F03F8
3F03F8
3F03F8
3FFFF8
3FFFFC
7FFFFC
7FFFFC
7FFFFC
7FFFFC
7E00FC
7E00FE
7E00FE
FE00FE
FC00FE
FC00FE
FC00FE
FC007E
ENDCHAR
STARTCHAR AE
ENCODING 198
SWIDTH 580 0
DWIDTH 36 0
BBX 34 45 0 -1
BITMAP
000FFFFFC0
001FFFFFC0
001FFFFFC0
001FFFFFC0
001FFFFFC0
003FFFFFC0
003FFC0000
003FFC0000
003FFC0000
007EFC0000
007EFC0000
007EFC0000
007EFC0000
00FEFC0000
00FCFC0000
00FCFC0000
00FCFC0000
01FCFC0000
01F8FC0000
01F8FFFF00
01F8FFFF00
03F8FFFF00
03F0FFFF00
03F0FFFF00
03F0FFFF00
07F0FC0000
07E0FC0000
07E0FC0000
0FE0FC0000
0FE0FC0000
0FC0FC0000
0FFFFC0000
1FFFFC0000
1FFFFC0000
1FFFFC0000
1FFFFC0000
3FFFFC0000
3F80FC0000
3F00FC0000
3F00FFFFC0
7F00FFFFC0
7F00FFFFC0
7E00FFFFC0
7E00FFFFC0
FE00FFFFC0
ENDCHAR
STARTCHAR Ccedilla
ENCODING 199
SWIDTH 386 0
DWIDTH 24 0
BBX 20 54 2 -10
BITMAP
03FC00
0FFF00
1FFF80
3FFFC0
7FFFE0
7FFFE0
FF8FF0
FE07F0
FE03F0
FE03F0
FE03F0
FE03F0
FE03F0
FE03F0
FE03F0
FE0000
FE0000
FE0000
FE0000
FE0000
FE0000
FE0000
FE0000
FE0000
FE0000
FE0000
FE0000
FE0000
FE03F0
FE03F0
FE03F0
FE03F0
FE03F0
FE03F0
FE03F0
FE03F0
FE03F0
FE07F0
FF8FF0
7FFFE0
7FFFE0
3FFFC0
1FFF80
0FFF00
03FC00
00E000
00E000
00FC00
001F00
001F00
0F1F00
0FFF00
0FFE00
03FC00
ENDCHAR
STARTCHAR Egrave
ENCODING 200
SWIDTH 368 0
DWIDTH 23 0
BBX 19 54 2 -1
BITMAP
1FC000
0FC000
0FE000
07E000
03F000
01F800
00F800
000000
000000
FFFFE0
FFFFE0
FFFFE0
FFFFE0
FFFFE0
FFFFE0
FE0000
FE0000
FE0000
FE0000
FE0000
FE0000
FE0000
FE0000
FE0000
FE0000
FE0000
FE0000
FE0000
FFFF80
FFFF80
FFFF80
FFFF80
FFFF80
FFFF80
FE0000
FE0000
FE0000
FE0000
FE0000
FE0000
FE0000
FE0000
FE0000
FE0000
FE0000
FE0000
FE0000
FE0000
FFFFE0
FFFFE0
FFFFE0
FFFFE0
FFFFE0
FFFFE0
ENDCHAR
STARTCHAR Eacute
ENCODING 201
SWIDTH 368 0
DWIDTH 23 0
BBX 19 54 2 -1
BITMAP
003F80
007F00
007E00
00FC00
00F800
01F000
03E000
000000
000000
FFFFE0
FFFFE0
FFFFE0
FFFFE0
FFFFE0
FFFFE0
FE0000
FE0000
FE0000
FE0000
FE0000
FE0000
FE0000
FE0000
FE0000
FE0000
FE0000
FE0000
FE0000
FFFF80
FFFF80
FFFF80
FFFF80
FFFF80
FFFF80
FE0000
FE0000
FE0000
FE0000
FE0000
FE0000
FE0000
FE0000
FE0000
FE0000
FE0000
FE0000
FE0000
FE0000
FFFFE0
FFFFE0
FFFFE0
FFFFE0
FFFFE0
FFFFE0
ENDCHAR
STARTCHAR Ecircumflex
ENCODING 202
SWIDTH 368 0
DWIDTH 23 0
BBX 19 54 2 -1
BITMAP
03F800
07FC00
07FE00
0FFF00
1FBF00
3F1F80
7E0FC0
000000
000000
FFFFE0
FFFFE0
FFFFE0
FFFFE0
FFFFE0
FFFFE0
FE0000
FE0000
FE0000
FE0000
FE0000
FE0000
FE0000
FE0000
FE0000
FE0000
FE0000
FE0000
FE0000
FFFF80
FFFF80
FFFF80
FFFF80
FFFF80
FFFF80
FE0000
FE0000
FE0000
FE0000
FE0000
FE0000
FE0000
FE0000
FE0000
FE0000
FE0000
FE0000
FE0000
FE0000
FFFFE0
FFFFE0
FFFFE0
FFFFE0
FFFFE0
FFFFE0
ENDCHAR
STARTCHAR Edieresis
ENCODING 203
SWIDTH 368 0
DWIDTH 23 0
BBX 19 53 2 -1
BITMAP
3F1F80
3F1F80
3F1F80
3F1F80
3F1F80
3F1F80
000000
000000
FFFFE0
FFFFE0
FFFFE0
FFFFE0
FFFFE0
FFFFE0
FE0000
FE0000
FE0000
FE0000
FE0000
FE0000
FE0000
FE0000
FE0000
FE0000
FE0000
FE0000
FE0000
FFFF80
FFFF80
FFFF80
FFFF80
FFFF80
FFFF80
FE0000
FE0000
FE0000
FE0000
FE0000
FE0000
FE0000
FE0000
FE0000
FE0000
FE0000
FE0000
FE0000
FE0000
FFFFE0
FFFFE0
FFFFE0
FFFFE0
FFFFE0
FFFFE0
ENDCHAR
STARTCHAR Igrave
ENCODING 204
SWIDTH 190 0
DWIDTH 12 0
BBX 10 54 -1 -1
BITMAP
FE00
7E00
3F00
1F80
0F80
0FC0
07C0
0000
0000
1FC0
1FC0
1FC0
1FC0
1FC0
1FC0
1FC0
1FC0
1FC0
1FC0
1FC0
1FC0
1FC0
1FC0
1FC0
1FC0
1FC0
1FC0
1FC0
1FC0
1FC0
1FC0
1FC0
1FC0
1FC0
1FC0
1FC0
1FC0
1FC0
1FC0
1FC0
1FC0
1FC0
1FC0
1FC0
1FC0
1FC0
1FC0
1FC0
1FC0
1FC0
1FC0
1FC0
1FC0
1FC0
ENDCHAR
STARTCHAR Iacute
ENCODING 205
SWIDTH 190 0
DWIDTH 12 0
BBX 11 54 2 -1
BITMAP
0FE0
0FC0
1F80
3F00
3E00
7C00
7800
0000
0000
FE00
FE00
FE00
FE00
FE00
FE00
FE00
FE00
FE00
FE00
FE00
FE00
FE00
FE00
FE00
FE00
FE00
FE00
FE00
FE00
FE00
FE00
FE00
FE00
FE00
FE00
FE00
FE00
FE00
FE00
FE00
FE00
FE00
FE00
FE00
FE00
FE00
FE00
FE00
FE00
FE00
FE00
FE00
FE00
FE00
ENDCHAR
STARTCHAR Icircumflex
ENCODING 206
SWIDTH 190 0
DWIDTH 12 0
BBX 16 54 -2 -1
BITMAP
0FE0
0FF0
1FF8
3FFC
7E7E
FC3E
F83F
0000
0000
0FE0
0FE0
0FE0
0FE0
0FE0
0FE0
0FE0
0FE0
0FE0
0FE0
0FE0
0FE0
0FE0
0FE0
0FE0
0FE0
0FE0
0FE0
0FE0
0FE0
0FE0
0FE0
0FE0
0FE0
0FE0
0FE0
0FE0
0FE0
0FE0
0FE0
0FE0
0FE0
0FE0
0FE0
0FE0
0FE0
0FE0
0FE0
0FE0
0FE0
0FE0
0FE0
0FE0
0FE0
0FE0
ENDCHAR
STARTCHAR Idieresis
ENCODING 207
SWIDTH 190 0
DWIDTH 12 0
BBX 16 53 -2 -1
BITMAP
FC3F
FC3F
FC3F
FC3F
FC3F
FC3F
0000
0000
0FE0
0FE0
0FE0
0FE0
0FE0
0FE0
0FE0
0FE0
0FE0
0FE0
0FE0
0FE0
0FE0
0FE0
0FE0
0FE0
0FE0
0FE0
0FE0
0FE0
0FE0
0FE0
0FE0
0FE0
0FE0
0FE0
0FE0
0FE0
0FE0
0FE0
0FE0
0FE0
0FE0
0FE0
0FE0
0FE0
0FE0
0FE0
0FE0
0FE0
0FE0
0FE0
0FE0
0FE0
0FE0
ENDCHAR
STARTCHAR Eth
ENCODING 208
SWIDTH 408 0
DWIDTH 25 0
BBX 23 45 0 -1
BITMAP
3FFF80
3FFFE0
3FFFF8
3FFFF8
3FFFFC
3FFFFC
3F81FE
3F80FE
3F80FE
3F80FE
3F807E
3F807E
3F807E
3F807E
3F807E
3F807E
3F807E
3F807E
3F807E
3F807E
FFFC7E
FFFC7E
FFFC7E
FFFC7E
FFFC7E
FFFC7E
3F807E
3F807E
3F807E
3F807E
3F807E
3F807E
3F807E
3F807E
3F807E
3F807E
3F80FE
3F80FE
3F81FE
3FFFFE
3FFFFC
3FFFF8
3FFFF8
3FFFE0
3FFF80
ENDCHAR
STARTCHAR Ntilde
ENCODING 209
SWIDTH 427 0
DWIDTH 26 0
BBX 22 54 2 -1
BITMAP
018080
07F1C0
0FFFF0
1FFFE0
1FFFE0
0E3FC0
000700
000000
000000
FF80FC
FF80FC
FFC0FC
FFC0FC
FFC0FC
FFC0FC
FFE0FC
FFE0FC
FFE0FC
FFE0FC
FFF0FC
FFF0FC
FFF0FC
FFF0FC
FFF8FC
FFF8FC
FEF8FC
FEFCFC
FEFCFC
FEFCFC
FE7CFC
FE7EFC
FE7EFC
FE7EFC
FE3EFC
FE3FFC
FE3FFC
FE3FFC
FE1FFC
FE1FFC
FE1FFC
FE0FFC
FE0FFC
FE0FFC
FE0FFC
FE07FC
FE07FC
FE07FC
FE07FC
FE03FC
FE03FC
FE03FC
FE03FC
FE01FC
FE01FC
ENDCHAR
STARTCHAR Ograve
ENCODING 210
SWIDTH 396 0
DWIDTH 25 0
BBX 21 54 2 -1
BITMAP
1FC000
0FE000
07E000
03F000
01F000
00F800
007C00
000000
000000
03FC00
0FFF00
1FFFC0
3FFFC0
7FFFE0
7FFFF0
7F8FF0
FE07F0
FE03F0
FE03F8
FE03F8
FE03F8
FE03F8
FE03F8
FE03F8
FE03F8
FE03F8
FE03F8
FE03F8
FE03F8
FE03F8
FE03F8
FE03F8
FE03F8
FE03F8
FE03F8
FE03F8
FE03F8
FE03F8
FE03F8
FE03F8
FE03F8
FE03F8
FE03F8
FE03F8
FE03F8
FE03F0
FE07F0
7F8FF0
7FFFF0
7FFFE0
3FFFE0
1FFFC0
0FFF00
01FC00
ENDCHAR
STARTCHAR Oacute
ENCODING 211
SWIDTH 396 0
DWIDTH 25 0
BBX 21 54 2 -1
BITMAP
001F80
003F00
007E00
007C00
00FC00
00F800
01F000
000000
000000
03FC00
0FFF00
1FFFC0
3FFFC0
7FFFE0
7FFFF0
7F8FF0
FE07F0
FE03F0
FE03F8
FE03F8
FE03F8
FE03F8
FE03F8
FE03F8
FE03F8
FE03F8
FE03F8
FE03F8
FE03F8
FE03F8
FE03F8
FE03F8
FE03F8
FE03F8
FE03F8
FE03F8
FE03F8
FE03F8
FE03F8
FE03F8
FE03F8
FE03F8
FE03F8
FE03F8
FE03F8
FE03F0
FE07F0
7F8FF0
7FFFF0
7FFFE0
3FFFE0
1FFFC0
0FFF00
01FC00
ENDCHAR
STARTCHAR Ocircumflex
ENCODING 212
SWIDTH 396 0
DWIDTH 25 0
BBX 21 54 2 -1
BITMAP
01FC00
03FC00
07FE00
0FFF00
0F9F80
1F8FC0
3F07C0
000000
000000
03FC00
0FFF00
1FFFC0
3FFFC0
7FFFE0
7FFFF0
7F8FF0
FE07F0
FE03F0
FE03F8
FE03F8
FE03F8
FE03F8
FE03F8
FE03F8
FE03F8
FE03F8
FE03F8
FE03F8
FE03F8
FE03F8
FE03F8
FE03F8
FE03F8
FE03F8
FE03F8
FE03F8
FE03F8
FE03F8
FE03F8
FE03F8
FE03F8
FE03F8
FE03F8
FE03F8
FE03F8
FE03F0
FE07F0
7F8FF0
7FFFF0
7FFFE0
3FFFE0
1FFFC0
0FFF00
01FC00
ENDCHAR
STARTCHAR Otilde
ENCODING 213
SWIDTH 396 0
DWIDTH 25 0
BBX 21 53 2 -1
BITMAP
07C180
1FFFC0
1FFFC0
3FFFC0
3FFF80
0C1F00
000000
000000
03FC00
0FFF00
1FFFC0
3FFFC0
7FFFE0
7FFFF0
7F8FF0
FE07F0
FE03F0
FE03F8
FE03F8
FE03F8
FE03F8
FE03F8
FE03F8
FE03F8
FE03F8
FE03F8
FE03F8
FE03F8
FE03F8
FE03F8
FE03F8
FE03F8
FE03F8
FE03F8
FE03F8
FE03F8
FE03F8
FE03F8
FE03F8
FE03F8
FE03F8
FE03F8
FE03F8
FE03F8
FE03F0
FE07F0
7F8FF0
7FFFF0
7FFFE0
3FFFE0
1FFFC0
0FFF00
01FC00
ENDCHAR
STARTCHAR Odieresis
ENCODING 214
SWIDTH 396 0
DWIDTH 25 0
BBX 21 53 2 -1
BITMAP
1F8FC0
1F8FC0
1F8FC0
1F8FC0
1F8FC0
1F8FC0
000000
000000
03FC00
0FFF00
1FFFC0
3FFFC0
7FFFE0
7FFFF0
7F8FF0
FE07F0
FE03F0
FE03F8
FE03F8
FE03F8
FE03F8
FE03F8
FE03F8
FE03F8
FE03F8
FE03F8
FE03F8
FE03F8
FE03F8
FE03F8
FE03F8
FE03F8
FE03F8
FE03F8
FE03F8
FE03F8
FE03F8
FE03F8
FE03F8
FE03F8
FE03F8
FE03F8
FE03F8
FE03F8
FE03F0
FE07F0
7F8FF0
7FFFF0
7FFFE0
3FFFE0
1FFFC0
0FFF00
01FC00
ENDCHAR
STARTCHAR multiply
ENCODING 215
SWIDTH 396 0
DWIDTH 25 0
BBX 19 19 3 12
BITMAP
300180
7803C0
FC07E0
FE0FC0
7F1F80
3FBF00
1FFE00
0FFC00
07F800
03F800
07FC00
0FFE00
1FFF00
3F3F80
7E1FC0
FC0FE0
F807C0
700380
200100
ENDCHAR
STARTCHAR Oslash
ENCODING 216
SWIDTH 396 0
DWIDTH 25 0
BBX 21 49 2 -3
BITMAP
000020
000070
03FC60
0FFF60
1FFFE0
3FFFC0
7FFFE0
7FFFF0
7F8FF0
FE07F0
FE07F0
FE03F8
FE07F8
FE07F8
FE07F8
FE0FF8
FE0FF8
FE1FF8
FE1FF8
FE1BF8
FE3BF8
FE3BF8
FE33F8
FE73F8
FE73F8
FE63F8
FEE3F8
FEC3F8
FEC3F8
FFC3F8
FF83F8
FF83F8
FF83F8
FF03F8
FF03F8
FF03F8
FE03F8
FE03F8
FE03F0
FE07F0
FF8FF0
7FFFF0
7FFFE0
3FFFE0
3FFFC0
7FFF00
73FC00
600000
200000
ENDCHAR
STARTCHAR Ugrave
ENCODING 217
SWIDTH 398 0
DWIDTH 25 0
BBX 21 53 2 0
BITMAP
1FC000
0FE000
07E000
03F000
01F800
00F800
007C00
000000
000000
FE03F8
FE03F8
FE03F8
FE03F8
FE03F8
FE03F8
FE03F8
FE03F8
FE03F8
FE03F8
FE03F8
FE03F8
FE03F8
FE03F8
FE03F8
FE03F8
FE03F8
FE03F8
FE03F8
FE03F8
FE03F8
FE03F8
FE03F8
FE03F8
FE03F8
FE03F8
FE03F8
FE03F8
FE03F8
FE03F8
FE03F8
FE03F8
FE03F8
FE03F0
FE03F0
FE03F0
FF07F0
7F07F0
7FFFF0
7FFFE0
3FFFE0
1FFFC0
0FFF80
03FE00
ENDCHAR
STARTCHAR Uacute
ENCODING 218
SWIDTH 398 0
DWIDTH 25 0
BBX 21 53 2 0
BITMAP
001F80
003F00
007E00
007C00
00FC00
00F800
01F000
000000
000000
FE03F8
FE03F8
FE03F8
FE03F8
FE03F8
FE03F8
FE03F8
FE03F8
FE03F8
FE03F8
FE03F8
FE03F8
FE03F8
FE03F8
FE03F8
FE03F8
FE03F8
FE03F8
FE03F8
FE03F8
FE03F8
FE03F8
FE03F8
FE03F8
FE03F8
FE03F8
FE03F8
FE03F8
FE03F8
FE03F8
FE03F8
FE03F8
FE03F8
FE03F0
FE03F0
FE03F0
FF07F0
7F07F0
7FFFF0
7FFFE0
3FFFE0
1FFFC0
0FFF80
03FE00
ENDCHAR
STARTCHAR Ucircumflex
ENCODING 219
SWIDTH 398 0
DWIDTH 25 0
BBX 21 53 2 0
BITMAP
01FC00
03FE00
07FF00
07FF00
0FDF80
1F8FC0
3F07E0
000000
000000
FE03F8
FE03F8
FE03F8
FE03F8
FE03F8
FE03F8
FE03F8
FE03F8
FE03F8
FE03F8
FE03F8
FE03F8
FE03F8
FE03F8
FE03F8
FE03F8
FE03F8
FE03F8
FE03F8
FE03F8
FE03F8
FE03F8
FE03F8
FE03F8
FE03F8
FE03F8
FE03F8
FE03F8
FE03F8
FE03F8
FE03F8
FE03F8
FE03F8
FE03F0
FE03F0
FE03F0
FF07F0
7F07F0
7FFFF0
7FFFE0
3FFFE0
1FFFC0
0FFF80
03FE00
ENDCHAR
STARTCHAR Udieresis
ENCODING 220
SWIDTH 398 0
DWIDTH 25 0
BBX 21 52 2 0
BITMAP
1F8FC0
1F8FC0
1F8FC0
1F8FC0
1F8FC0
1F8FC0
000000
000000
FE03F8
FE03F8
FE03F8
FE03F8
FE03F8
FE03F8
FE03F8
FE03F8
FE03F8
FE03F8
FE03F8
FE03F8
FE03F8
FE03F8
FE03F8
FE03F8
FE03F8
FE03F8
FE03F8
FE03F8
FE03F8
FE03F8
FE03F8
FE03F8
FE03F8
FE03F8
FE03F8
FE03F8
FE03F8
FE03F8
FE03F8
FE03F8
FE03F8
FE03F0
FE03F0
FE03F0
FF07F0
7F07F0
7FFFF0
7FFFE0
3FFFE0
1FFFC0
0FFF80
03FE00
ENDCHAR
STARTCHAR Yacute
ENCODING 221
SWIDTH 396 0
DWIDTH 25 0
BBX 24 54 0 -1
BITMAP
0007E0
000FC0
000FC0
001F80
003F00
003E00
007C00
000000
000000
FF003F
7F007F
7F007F
7F007E
3F807E
3F80FE
3F80FC
3F80FC
1FC0FC
1FC1FC
1FC1F8
0FC1F8
0FE1F8
0FE3F0
0FE3F0
07E3F0
07F3F0
07F7E0
03F7E0
03F7E0
03FFC0
03FFC0
01FFC0
01FFC0
01FF80
00FF80
00FF80
00FF00
00FF00
007F00
007F00
007F00
007F00
007F00
007F00
007F00
007F00
007F00
007F00
007F00
007F00
007F00
007F00
007F00
007F00
ENDCHAR
STARTCHAR Thorn
ENCODING 222
SWIDTH 377 0
DWIDTH 23 0
BBX 21 45 2 -1
BITMAP
FE0000
FE0000
FE0000
FE0000
FE0000
FFFC00
FFFF80
FFFFC0
FFFFE0
FFFFE0
FFFFF0
FE0FF0
FE07F0
FE03F8
FE03F8
FE03F8
FE03F8
FE03F8
FE03F8
FE03F8
FE03F8
FE03F8
FE03F8
FE03F8
FE03F8
FE07F0
FE0FF0
FFFFF0
FFFFE0
FFFFE0
FFFFC0
FFFF80
FFFE00
FE0000
FE0000
FE0000
FE0000
FE0000
FE0000
FE0000
FE0000
FE0000
FE0000
FE0000
FE0000
ENDCHAR
STARTCHAR germandbls
ENCODING 223
SWIDTH 748 0
DWIDTH 46 0
BBX 44 45 1 -1
BITMAP
01FC0003F800
07FF000FFF00
1FFFC01FFF80
1FFFE03FFFC0
3FFFE07FFFC0
3FFFF07FFFE0
7F8FF0FF0FE0
7F03F0FE07F0
7F03F8FE07F0
7E03F8FE07F0
7E03F8FE07F0
7E03F8FE07F0
7F0000FE0000
7F0000FE0000
7F0000FF0000
7F8000FF0000
3FC0007F8000
3FE0007FC000
1FE0003FE000
1FF0003FF000
0FFC001FF800
07FE000FFC00
03FF0007FE00
01FF8003FF00
00FF8001FF80
007FC000FF80
003FE0007FC0
001FE0003FC0
000FF0001FE0
000FF0000FE0
0007F0000FF0
FE07F8FC07F0
FE03F8FC07F0
FE03F8FC07F0
FE03F8FC07F0
FE03F8FC07F0
7E03F8FC07F0
7F07F0FE0FF0
7F8FF0FF1FE0
7FFFF07FFFE0
3FFFE07FFFE0
3FFFE03FFFC0
1FFFC01FFF80
07FF800FFF00
01FC0003FC00
ENDCHAR
STARTCHAR agrave
ENCODING 224
SWIDTH 407 0
DWIDTH 25 0
BBX 23 54 1 -1
BITMAP
07E000
07F000
03F800
01F800
00FC00
007E00
003E00
000000
000000
01FF80
03FF80
03FF80
03FF80
03FF80
03FF80
03FFC0
07FFC0
07FFC0
07EFC0
07EFC0
07EFC0
07EFE0
07CFE0
0FCFE0
0FCFE0
0FCFE0
0FC7E0
0FC7E0
0FC7F0
1F87F0
1F87F0
1F87F0
1F87F0
1F83F0
1F83F8
1F83F8
3F03F8
3F03F8
3F03F8
3F03F8
3FFFF8
3FFFFC
7FFFFC
7FFFFC
7FFFFC
7FFFFC
7E00FC
7E00FE
7E00FE
FE00FE
FC00FE
FC00FE
FC00FE
FC007E
ENDCHAR
STARTCHAR aacute
ENCODING 225
SWIDTH 407 0
DWIDTH 25 0
BBX 23 54 1 -1
BITMAP
000FC0
001FC0
001F80
003F00
007E00
007C00
00F800
000000
000000
01FF80
03FF80
03FF80
03FF80
03FF80
03FF80
03FFC0
07FFC0
07FFC0
07EFC0
07EFC0
07EFC0
07EFE0
07CFE0
0FCFE0
0FCFE0
0FCFE0
0FC7E0
0FC7E0
0FC7F0
1F87F0
1F87F0
1F87F0
1F87F0
1F83F0
1F83F8
1F83F8
3F03F8
3F03F8
3F03F8
3F03F8
3FFFF8
3FFFFC
7FFFFC
7FFFFC
7FFFFC
7FFFFC
7E00FC
7E00FE
7E00FE
FE00FE
FC00FE
FC00FE
FC00FE
FC007E
ENDCHAR
STARTCHAR acircumflex
ENCODING 226
SWIDTH 407 0
DWIDTH 25 0
BBX 23 54 1 -1
BITMAP
00FE00
01FF00
01FF80
03FF80
07EFC0
0FC7E0
1F83F0
000000
000000
01FF80
03FF80
03FF80
03FF80
03FF80
03FF80
03FFC0
07FFC0
07FFC0
07EFC0
07EFC0
07EFC0
07EFE0
07CFE0
0FCFE0
0FCFE0
0FCFE0
0FC7E0
0FC7E0
0FC7F0
1F87F0
1F87F0
1F87F0
1F87F0
1F83F0
1F83F8
1F83F8
3F03F8
3F03F8
3F03F8
3F03F8
3FFFF8
3FFFFC
7FFFFC
7FFFFC
7FFFFC
7FFFFC
7E00FC
7E00FE
7E00FE
FE00FE
FC00FE
FC00FE
FC00FE
FC007E
ENDCHAR
STARTCHAR atilde
ENCODING 227
SWIDTH 407 0
DWIDTH 25 0
BBX 23 54 1 -1
BITMAP
01C000
07F0E0
0FFFF0
0FFFF0
1FFFE0
061FC0
020700
000000
000000
01FF80
03FF80
03FF80
03FF80
03FF80
03FF80
03FFC0
07FFC0
07FFC0
07EFC0
07EFC0
07EFC0
07EFE0
07CFE0
0FCFE0
0FCFE0
0FCFE0
0FC7E0
0FC7E0
0FC7F0
1F87F0
1F87F0
1F87F0
1F87F0
1F83F0
1F83F8
1F83F8
3F03F8
3F03F8
3F03F8
3F03F8
3FFFF8
3FFFFC
7FFFFC
7FFFFC
7FFFFC
7FFFFC
7E00FC
7E00FE
7E00FE
FE00FE
FC00FE
FC00FE
FC00FE
FC007E
ENDCHAR
STARTCHAR adieresis
ENCODING 228
SWIDTH 407 0
DWIDTH 25 0
BBX 23 53 1 -1
BITMAP
0FC7E0
0FC7E0
0FC7E0
0FC7E0
0FC7E0
0FC7E0
000000
000000
01FF80
03FF80
03FF80
03FF80
03FF80
03FF80
03FFC0
07FFC0
07FFC0
07EFC0
07EFC0
07EFC0
07EFE0
07CFE0
0FCFE0
0FCFE0
0FCFE0
0FC7E0
0FC7E0
0FC7F0
1F87F0
1F87F0
1F87F0
1F87F0
1F83F0
1F83F8
1F83F8
3F03F8
3F03F8
3F03F8
3F03F8
3FFFF8
3FFFFC
7FFFFC
7FFFFC
7FFFFC
7FFFFC
7E00FC
7E00FE
7E00FE
FE00FE
FC00FE
FC00FE
FC00FE
FC007E
ENDCHAR
STARTCHAR aring
ENCODING 229
SWIDTH 407 0
DWIDTH 25 0
BBX 23 57 1 -1
BITMAP
007C00
00FE00
01FF00
01C700
01C780
01C780
01C700
01FF00
00FE00
007C00
000000
000000
01FF80
03FF80
03FF80
03FF80
03FF80
03FF80
03FFC0
07FFC0
07FFC0
07EFC0
07EFC0
07EFC0
07EFE0
07CFE0
0FCFE0
0FCFE0
0FCFE0
0FC7E0
0FC7E0
0FC7F0
1F87F0
1F87F0
1F87F0
1F87F0
1F83F0
1F83F8
1F83F8
3F03F8
3F03F8
3F03F8
3F03F8
3FFFF8
3FFFFC
7FFFFC
7FFFFC
7FFFFC
7FFFFC
7E00FC
7E00FE
7E00FE
FE00FE
FC00FE
FC00FE
FC00FE
FC007E
ENDCHAR
STARTCHAR ae
ENCODING 230
SWIDTH 580 0
DWIDTH 36 0
BBX 34 45 0 -1
BITMAP
000FFFFFC0
001FFFFFC0
001FFFFFC0
001FFFFFC0
001FFFFFC0
003FFFFFC0
003FFC0000
003FFC0000
003FFC0000
007EFC0000
007EFC0000
007EFC0000
007EFC0000
00FEFC0000
00FCFC0000
00FCFC0000
00FCFC0000
01FCFC0000
01F8FC0000
01F8FFFF00
01F8FFFF00
03F8FFFF00
03F0FFFF00
03F0FFFF00
03F0FFFF00
07F0FC0000
07E0FC0000
07E0FC0000
0FE0FC0000
0FE0FC0000
0FC0FC0000
0FFFFC0000
1FFFFC0000
1FFFFC0000
1FFFFC0000
1FFFFC0000
3FFFFC0000
3F80FC0000
3F00FC0000
3F00FFFFC0
7F00FFFFC0
7F00FFFFC0
7E00FFFFC0
7E00FFFFC0
FE00FFFFC0
ENDCHAR
STARTCHAR ccedilla
ENCODING 231
SWIDTH 386 0
DWIDTH 24 0
BBX 20 54 2 -10
BITMAP
03FC00
0FFF00
1FFF80
3FFFC0
7FFFE0
7FFFE0
FF8FF0
FE07F0
FE03F0
FE03F0
FE03F0
FE03F0
FE03F0
FE03F0
FE03F0
FE0000
FE0000
FE0000
FE0000
FE0000
FE0000
FE0000
FE0000
FE0000
FE0000
FE0000
FE0000
FE0000
FE03F0
FE03F0
FE03F0
FE03F0
FE03F0
FE03F0
FE03F0
FE03F0
FE03F0
FE07F0
FF8FF0
7FFFE0
7FFFE0
3FFFC0
1FFF80
0FFF00
03FC00
00E000
00E000
00FC00
001F00
001F00
0F1F00
0FFF00
0FFE00
03FC00
ENDCHAR
STARTCHAR egrave
ENCODING 232
SWIDTH 368 0
DWIDTH 23 0
BBX 19 54 2 -1
BITMAP
1FC000
0FC000
0FE000
07E000
03F000
01F800
00F800
000000
000000
FFFFE0
FFFFE0
FFFFE0
FFFFE0
FFFFE0
FFFFE0
FE0000
FE0000
FE0000
FE0000
FE0000
FE0000
FE0000
FE0000
FE0000
FE0000
FE0000
FE0000
FE0000
FFFF80
FFFF80
FFFF80
FFFF80
FFFF80
FFFF80
FE0000
FE0000
FE0000
FE0000
FE0000
FE0000
FE0000
FE0000
FE0000
FE0000
FE0000
FE0000
FE0000
FE0000
FFFFE0
FFFFE0
FFFFE0
FFFFE0
FFFFE0
FFFFE0
ENDCHAR
STARTCHAR eacute
ENCODING 233
SWIDTH 368 0
DWIDTH 23 0
BBX 19 54 2 -1
BITMAP
003F80
007F00
007E00
00FC00
00F800
01F000
03E000
000000
000000
FFFFE0
FFFFE0
FFFFE0
FFFFE0
FFFFE0
FFFFE0
FE0000
FE0000
FE0000
FE0000
FE0000
FE0000
FE0000
FE0000
FE0000
FE0000
FE0000
FE0000
FE0000
FFFF80
FFFF80
FFFF80
FFFF80
FFFF80
FFFF80
FE0000
FE0000
FE0000
FE0000
FE0000
FE0000
FE0000
FE0000
FE0000
FE0000
FE0000
FE0000
FE0000
FE0000
FFFFE0
FFFFE0
FFFFE0
FFFFE0
FFFFE0
FFFFE0
ENDCHAR
STARTCHAR ecircumflex
ENCODING 234
SWIDTH 368 0
DWIDTH 23 0
BBX 19 54 2 -1
BITMAP
03F800
07FC00
07FE00
0FFF00
1FBF00
3F1F80
7E0FC0
000000
000000
FFFFE0
FFFFE0
FFFFE0
FFFFE0
FFFFE0
FFFFE0
FE0000
FE0000
FE0000
FE0000
FE0000
FE0000
FE0000
FE0000
FE0000
FE0000
FE0000
FE0000
FE0000
FFFF80
FFFF80
FFFF80
FFFF80
FFFF80
FFFF80
FE0000
FE0000
FE0000
FE0000
FE0000
FE0000
FE0000
FE0000
FE0000
FE0000
FE0000
FE0000
FE0000
FE0000
FFFFE0
FFFFE0
FFFFE0
FFFFE0
FFFFE0
FFFFE0
ENDCHAR
STARTCHAR edieresis
ENCODING 235
SWIDTH 368 0
DWIDTH 23 0
BBX 19 53 2 -1
BITMAP
3F1F80
3F1F80
3F1F80
3F1F80
3F1F80
3F1F80
000000
000000
FFFFE0
FFFFE0
FFFFE0
FFFFE0
FFFFE0
FFFFE0
FE0000
FE0000
FE0000
FE0000
FE0000
FE0000
FE0000
FE0000
FE0000
FE0000
FE0000
FE0000
FE0000
FFFF80
FFFF80
FFFF80
FFFF80
FFFF80
FFFF80
FE0000
FE0000
FE0000
FE0000
FE0000
FE0000
FE0000
FE0000
FE0000
FE0000
FE0000
FE0000
FE0000
FE0000
FFFFE0
FFFFE0
FFFFE0
FFFFE0
FFFFE0
FFFFE0
ENDCHAR
STARTCHAR igrave
ENCODING 236
SWIDTH 190 0
DWIDTH 12 0
BBX 10 54 -1 -1
BITMAP
FE00
7E00
3F00
1F80
0F80
0FC0
07C0
0000
0000
1FC0
1FC0
1FC0
1FC0
1FC0
1FC0
1FC0
1FC0
1FC0
1FC0
1FC0
1FC0
1FC0
1FC0
1FC0
1FC0
1FC0
1FC0
1FC0
1FC0
1FC0
1FC0
1FC0
1FC0
1FC0
1FC0
1FC0
1FC0
1FC0
1FC0
1FC0
1FC0
1FC0
1FC0
1FC0
1FC0
1FC0
1FC0
1FC0
1FC0
1FC0
1FC0
1FC0
1FC0
1FC0
ENDCHAR
STARTCHAR iacute
ENCODING 237
SWIDTH 190 0
DWIDTH 12 0
BBX 11 54 2 -1
BITMAP
0FE0
0FC0
1F80
3F00
3E00
7C00
7800
0000
0000
FE00
FE00
FE00
FE00
FE00
FE00
FE00
FE00
FE00
FE00
FE00
FE00
FE00
FE00
FE00
FE00
FE00
FE00
FE00
FE00
FE00
FE00
FE00
FE00
FE00
FE00
FE00
FE00
FE00
FE00
FE00
FE00
FE00
FE00
FE00
FE00
FE00
FE00
FE00
FE00
FE00
FE00
FE00
FE00
FE00
ENDCHAR
STARTCHAR icircumflex
ENCODING 238
SWIDTH 190 0
DWIDTH 12 0
BBX 16 54 -2 -1
BITMAP
0FE0
0FF0
1FF8
3FFC
7E7E
FC3E
F83F
0000
0000
0FE0
0FE0
0FE0
0FE0
0FE0
0FE0
0FE0
0FE0
0FE0
0FE0
0FE0
0FE0
0FE0
0FE0
0FE0
0FE0
0FE0
0FE0
0FE0
0FE0
0FE0
0FE0
0FE0
0FE0
0FE0
0FE0
0FE0
0FE0
0FE0
0FE0
0FE0
0FE0
0FE0
0FE0
0FE0
0FE0
0FE0
0FE0
0FE0
0FE0
0FE0
0FE0
0FE0
0FE0
0FE0
ENDCHAR
STARTCHAR idieresis
ENCODING 239
SWIDTH 190 0
DWIDTH 12 0
BBX 16 53 -2 -1
BITMAP
FC3F
FC3F
FC3F
FC3F
FC3F
FC3F
0000
0000
0FE0
0FE0
0FE0
0FE0
0FE0
0FE0
0FE0
0FE0
0FE0
0FE0
0FE0
0FE0
0FE0
0FE0
0FE0
0FE0
0FE0
0FE0
0FE0
0FE0
0FE0
0FE0
0FE0
0FE0
0FE0
0FE0
0FE0
0FE0
0FE0
0FE0
0FE0
0FE0
0FE0
0FE0
0FE0
0FE0
0FE0
0FE0
0FE0
0FE0
0FE0
0FE0
0FE0
0FE0
0FE0
ENDCHAR
STARTCHAR eth
ENCODING 240
SWIDTH 408 0
DWIDTH 25 0
BBX 23 45 0 -1
BITMAP
3FFF80
3FFFE0
3FFFF8
3FFFF8
3FFFFC
3FFFFC
3F81FE
3F80FE
3F80FE
3F80FE
3F807E
3F807E
3F807E
3F807E
3F807E
3F807E
3F807E
3F807E
3F807E
3F807E
FFFC7E
FFFC7E
FFFC7E
FFFC7E
FFFC7E
FFFC7E
3F807E
3F807E
3F807E
3F807E
3F807E
3F807E
3F807E
3F807E
3F807E
3F807E
3F80FE
3F80FE
3F81FE
3FFFFE
3FFFFC
3FFFF8
3FFFF8
3FFFE0
3FFF80
ENDCHAR
STARTCHAR ntilde
ENCODING 241
SWIDTH 427 0
DWIDTH 26 0
BBX 22 54 2 -1
BITMAP
018080
07F1C0
0FFFF0
1FFFE0
1FFFE0
0E3FC0
000700
000000
000000
FF80FC
FF80FC
FFC0FC
FFC0FC
FFC0FC
FFC0FC
FFE0FC
FFE0FC
FFE0FC
FFE0FC
FFF0FC
FFF0FC
FFF0FC
FFF0FC
FFF8FC
FFF8FC
FEF8FC
FEFCFC
FEFCFC
FEFCFC
FE7CFC
FE7EFC
FE7EFC
FE7EFC
FE3EFC
FE3FFC
FE3FFC
FE3FFC
FE1FFC
FE1FFC
FE1FFC
FE0FFC
FE0FFC
FE0FFC
FE0FFC
FE07FC
FE07FC
FE07FC
FE07FC
FE03FC
FE03FC
FE03FC
FE03FC
FE01FC
FE01FC
ENDCHAR
STARTCHAR ograve
ENCODING 242
SWIDTH 396 0
DWIDTH 25 0
BBX 21 54 2 -1
BITMAP
1FC000
0FE000
07E000
03F000
01F000
00F800
007C00
000000
000000
03FC00
0FFF00
1FFFC0
3FFFC0
7FFFE0
7FFFF0
7F8FF0
FE07F0
FE03F0
FE03F8
FE03F8
FE03F8
FE03F8
FE03F8
FE03F8
FE03F8
FE03F8
FE03F8
FE03F8
FE03F8
FE03F8
FE03F8
FE03F8
FE03F8
FE03F8
FE03F8
FE03F8
FE03F8
FE03F8
FE03F8
FE03F8
FE03F8
FE03F8
FE03F8
FE03F8
FE03F8
FE03F0
FE07F0
7F8FF0
7FFFF0
7FFFE0
3FFFE0
1FFFC0
0FFF00
01FC00
ENDCHAR
STARTCHAR oacute
ENCODING 243
SWIDTH 396 0
DWIDTH 25 0
BBX 21 54 2 -1
BITMAP
001F80
003F00
007E00
007C00
00FC00
00F800
01F000
000000
000000
03FC00
0FFF00
1FFFC0
3FFFC0
7FFFE0
7FFFF0
7F8FF0
FE07F0
FE03F0
FE03F8
FE03F8
FE03F8
FE03F8
FE03F8
FE03F8
FE03F8
FE03F8
FE03F8
FE03F8
FE03F8
FE03F8
FE03F8
FE03F8
FE03F8
FE03F8
FE03F8
FE03F8
FE03F8
FE03F8
FE03F8
FE03F8
FE03F8
FE03F8
FE03F8
FE03F8
FE03F8
FE03F0
FE07F0
7F8FF0
7FFFF0
7FFFE0
3FFFE0
1FFFC0
0FFF00
01FC00
ENDCHAR
STARTCHAR ocircumflex
ENCODING 244
SWIDTH 396 0
DWIDTH 25 0
BBX 21 54 2 -1
BITMAP
01FC00
03FC00
07FE00
0FFF00
0F9F80
1F8FC0
3F07C0
000000
000000
03FC00
0FFF00
1FFFC0
3FFFC0
7FFFE0
7FFFF0
7F8FF0
FE07F0
FE03F0
FE03F8
FE03F8
FE03F8
FE03F8
FE03F8
FE03F8
FE03F8
FE03F8
FE03F8
FE03F8
FE03F8
FE03F8
FE03F8
FE03F8
FE03F8
FE03F8
FE03F8
FE03F8
FE03F8
FE03F8
FE03F8
FE03F8
FE03F8
FE03F8
FE03F8
FE03F8
FE03F8
FE03F0
FE07F0
7F8FF0
7FFFF0
7FFFE0
3FFFE0
1FFFC0
0FFF00
01FC00
ENDCHAR
STARTCHAR otilde
ENCODING 245
SWIDTH 396 0
DWIDTH 25 0
BBX 21 53 2 -1
BITMAP
07C180
1FFFC0
1FFFC0
3FFFC0
3FFF80
0C1F00
000000
000000
03FC00
0FFF00
1FFFC0
3FFFC0
7FFFE0
7FFFF0
7F8FF0
FE07F0
FE03F0
FE03F8
FE03F8
FE03F8
FE03F8
FE03F8
FE03F8
FE03F8
FE03F8
FE03F8
FE03F8
FE03F8
FE03F8
FE03F8
FE03F8
FE03F8
FE03F8
FE03F8
FE03F8
FE03F8
FE03F8
FE03F8
FE03F8
FE03F8
FE03F8
FE03F8
FE03F8
FE03F8
FE03F0
FE07F0
7F8FF0
7FFFF0
7FFFE0
3FFFE0
1FFFC0
0FFF00
01FC00
ENDCHAR
STARTCHAR odieresis
ENCODING 246
SWIDTH 396 0
DWIDTH 25 0
BBX 21 53 2 -1
BITMAP
1F8FC0
1F8FC0
1F8FC0
1F8FC0
1F8FC0
1F8FC0
000000
000000
03FC00
0FFF00
1FFFC0
3FFFC0
7FFFE0
7FFFF0
7F8FF0
FE07F0
FE03F0
FE03F8
FE03F8
FE03F8
FE03F8
FE03F8
FE03F8
FE03F8
FE03F8
FE03F8
FE03F8
FE03F8
FE03F8
FE03F8
FE03F8
FE03F8
FE03F8
FE03F8
FE03F8
FE03F8
FE03F8
FE03F8
FE03F8
FE03F8
FE03F8
FE03F8
FE03F8
FE03F8
FE03F0
FE07F0
7F8FF0
7FFFF0
7FFFE0
3FFFE0
1FFFC0
0FFF00
01FC00
ENDCHAR
STARTCHAR divide
ENCODING 247
SWIDTH 396 0
DWIDTH 25 0
BBX 21 26 2 9
BITMAP
01FC00
01FC00
01FC00
01FC00
01FC00
01FC00
01FC00
000000
000000
000000
000000
FFFFF8
FFFFF8
FFFFF8
FFFFF8
FFFFF8
000000
000000
000000
01FC00
01FC00
01FC00
01FC00
01FC00
01FC00
01FC00
ENDCHAR
STARTCHAR oslash
ENCODING 248
SWIDTH 396 0
DWIDTH 25 0
BBX 21 49 2 -3
BITMAP
000020
000070
03FC60
0FFF60
1FFFE0
3FFFC0
7FFFE0
7FFFF0
7F8FF0
FE07F0
FE07F0
FE03F8
FE07F8
FE07F8
FE07F8
FE0FF8
FE0FF8
FE1FF8
FE1FF8
FE1BF8
FE3BF8
FE3BF8
FE33F8
FE73F8
FE73F8
FE63F8
FEE3F8
FEC3F8
FEC3F8
FFC3F8
FF83F8
FF83F8
FF83F8
FF03F8
FF03F8
FF03F8
FE03F8
FE03F8
FE03F0
FE07F0
FF8FF0
7FFFF0
7FFFE0
3FFFE0
3FFFC0
7FFF00
73FC00
600000
200000
ENDCHAR
STARTCHAR ugrave
ENCODING 249
SWIDTH 398 0
DWIDTH 25 0
BBX 21 53 2 0
BITMAP
1FC000
0FE000
07E000
03F000
01F800
00F800
007C00
000000
000000
FE03F8
FE03F8
FE03F8
FE03F8
FE03F8
FE03F8
FE03F8
FE03F8
FE03F8
FE03F8
FE03F8
FE03F8
FE03F8
FE03F8
FE03F8
FE03F8
FE03F8
FE03F8
FE03F8
FE03F8
FE03F8
FE03F8
FE03F8
FE03F8
FE03F8
FE03F8
FE03F8
FE03F8
FE03F8
FE03F8
FE03F8
FE03F8
FE03F8
FE03F0
FE03F0
FE03F0
FF07F0
7F07F0
7FFFF0
7FFFE0
3FFFE0
1FFFC0
0FFF80
03FE00
ENDCHAR
STARTCHAR uacute
ENCODING 250
SWIDTH 398 0
DWIDTH 25 0
BBX 21 53 2 0
BITMAP
001F80
003F00
007E00
007C00
00FC00
00F800
01F000
000000
000000
FE03F8
FE03F8
FE03F8
FE03F8
FE03F8
FE03F8
FE03F8
FE03F8
FE03F8
FE03F8
FE03F8
FE03F8
FE03F8
FE03F8
FE03F8
FE03F8
FE03F8
FE03F8
FE03F8
FE03F8
FE03F8
FE03F8
FE03F8
FE03F8
FE03F8
FE03F8
FE03F8
FE03F8
FE03F8
FE03F8
FE03F8
FE03F8
FE03F8
FE03F0
FE03F0
FE03F0
FF07F0
7F07F0
7FFFF0
7FFFE0
3FFFE0
1FFFC0
0FFF80
03FE00
ENDCHAR
STARTCHAR ucircumflex
ENCODING 251
SWIDTH 398 0
DWIDTH 25 0
BBX 21 53 2 0
BITMAP
01FC00
03FE00
07FF00
07FF00
0FDF80
1F8FC0
3F07E0
000000
000000
FE03F8
FE03F8
FE03F8
FE03F8
FE03F8
FE03F8
FE03F8
FE03F8
FE03F8
FE03F8
FE03F8
FE03F8
FE03F8
FE03F8
FE03F8
FE03F8
FE03F8
FE03F8
FE03F8
FE03F8
FE03F8
FE03F8
FE03F8
FE03F8
FE03F8
FE03F8
FE03F8
FE03F8
FE03F8
FE03F8
FE03F8
FE03F8
FE03F8
FE03F0
FE03F0
FE03F0
FF07F0
7F07F0
7FFFF0
7FFFE0
3FFFE0
1FFFC0
0FFF80
03FE00
ENDCHAR
STARTCHAR udieresis
ENCODING 252
SWIDTH 398 0
DWIDTH 25 0
BBX 21 52 2 0
BITMAP
1F8FC0
1F8FC0
1F8FC0
1F8FC0
1F8FC0
1F8FC0
000000
000000
FE03F8
FE03F8
FE03F8
FE03F8
FE03F8
FE03F8
FE03F8
FE03F8
FE03F8
FE03F8
FE03F8
FE03F8
FE03F8
FE03F8
FE03F8
FE03F8
FE03F8
FE03F8
FE03F8
FE03F8
FE03F8
FE03F8
FE03F8
FE03F8
FE03F8
FE03F8
FE03F8
FE03F8
FE03F8
FE03F8
FE03F8
FE03F8
FE03F8
FE03F0
FE03F0
FE03F0
FF07F0
7F07F0
7FFFF0
7FFFE0
3FFFE0
1FFFC0
0FFF80
03FE00
ENDCHAR
STARTCHAR yacute
ENCODING 253
SWIDTH 396 0
DWIDTH 25 0
BBX 24 54 0 -1
BITMAP
0007E0
000FC0
000FC0
001F80
003F00
003E00
007C00
000000
000000
FF003F
7F007F
7F007F
7F007E
3F807E
3F80FE
3F80FC
3F80FC
1FC0FC
1FC1FC
1FC1F8
0FC1F8
0FE1F8
0FE3F0
0FE3F0
07E3F0
07F3F0
07F7E0
03F7E0
03F7E0
03FFC0
03FFC0
01FFC0
01FFC0
01FF80
00FF80
00FF80
00FF00
00FF00
007F00
007F00
007F00
007F00
007F00
007F00
007F00
007F00
007F00
007F00
007F00
007F00
007F00
007F00
007F00
007F00
ENDCHAR
STARTCHAR thorn
ENCODING 254
SWIDTH 377 0
DWIDTH 23 0
BBX 21 45 2 -1
BITMAP
FE0000
FE0000
FE0000
FE0000
FE0000
FFFC00
FFFF80
FFFFC0
FFFFE0
FFFFE0
FFFFF0
FE0FF0
FE07F0
FE03F8
FE03F8
FE03F8
FE03F8
FE03F8
FE03F8
FE03F8
FE03F8
FE03F8
FE03F8
FE03F8
FE03F8
FE07F0
FE0FF0
FFFFF0
FFFFE0
FFFFE0
FFFFC0
FFFF80
FFFE00
FE0000
FE0000
FE0000
FE0000
FE0000
FE0000
FE0000
FE0000
FE0000
FE0000
FE0000
FE0000
ENDCHAR
STARTCHAR ydieresis
ENCODING 255
SWIDTH 396 0
DWIDTH 25 0
BBX 24 53 0 -1
BITMAP
07E3F0
07E3F0
07E3F0
07E3F0
07E3F0
07E3F0
000000
000000
FF003F
7F007F
7F007F
7F007E
3F807E
3F80FE
3F80FC
3F80FC
1FC0FC
1FC1FC
1FC1F8
0FC1F8
0FE1F8
0FE3F0
0FE3F0
07E3F0
07F3F0
07F7E0
03F7E0
03F7E0
03FFC0
03FFC0
01FFC0
01FFC0
01FF80
00FF80
00FF80
00FF00
00FF00
007F00
007F00
007F00
007F00
007F00
007F00
007F00
007F00
007F00
007F00
007F00
007F00
007F00
007F00
007F00
007F00
ENDCHAR
STARTCHAR Amacron
ENCODING 256
SWIDTH 407 0
DWIDTH 25 0
BBX 23 52 1 -1
BITMAP
0FFFE0
0FFFE0
0FFFE0
0FFFE0
0FFFE0
000000
000000
01FF80
03FF80
03FF80
03FF80
03FF80
03FF80
03FFC0
07FFC0
07FFC0
07EFC0
07EFC0
07EFC0
07EFE0
07CFE0
0FCFE0
0FCFE0
0FCFE0
0FC7E0
0FC7E0
0FC7F0
1F87F0
1F87F0
1F87F0
1F87F0
1F83F0
1F83F8
1F83F8
3F03F8
3F03F8
3F03F8
3F03F8
3FFFF8
3FFFFC
7FFFFC
7FFFFC
7FFFFC
7FFFFC
7E00FC
7E00FE
7E00FE
FE00FE
FC00FE
FC00FE
FC00FE
FC007E
ENDCHAR
STARTCHAR amacron
ENCODING 257
SWIDTH 407 0
DWIDTH 25 0
BBX 23 52 1 -1
BITMAP
0FFFE0
0FFFE0
0FFFE0
0FFFE0
0FFFE0
000000
000000
01FF80
03FF80
03FF80
03FF80
03FF80
03FF80
03FFC0
07FFC0
07FFC0
07EFC0
07EFC0
07EFC0
07EFE0
07CFE0
0FCFE0
0FCFE0
0FCFE0
0FC7E0
0FC7E0
0FC7F0
1F87F0
1F87F0
1F87F0
1F87F0
1F83F0
1F83F8
1F83F8
3F03F8
3F03F8
3F03F8
3F03F8
3FFFF8
3FFFFC
7FFFFC
7FFFFC
7FFFFC
7FFFFC
7E00FC
7E00FE
7E00FE
FE00FE
FC00FE
FC00FE
FC00FE
FC007E
ENDCHAR
STARTCHAR Abreve
ENCODING 258
SWIDTH 407 0
DWIDTH 25 0
BBX 23 54 1 -1
BITMAP
0783C0
0783C0
07C7C0
07FFC0
03FF80
01FF00
007E00
000000
000000
01FF80
03FF80
03FF80
03FF80
03FF80
03FF80
03FFC0
07FFC0
07FFC0
07EFC0
07EFC0
07EFC0
07EFE0
07CFE0
0FCFE0
0FCFE0
0FCFE0
0FC7E0
0FC7E0
0FC7F0
1F87F0
1F87F0
1F87F0
1F87F0
1F83F0
1F83F8
1F83F8
3F03F8
3F03F8
3F03F8
3F03F8
3FFFF8
3FFFFC
7FFFFC
7FFFFC
7FFFFC
7FFFFC
7E00FC
7E00FE
7E00FE
FE00FE
FC00FE
FC00FE
FC00FE
FC007E
ENDCHAR
STARTCHAR abreve
ENCODING 259
SWIDTH 407 0
DWIDTH 25 0
BBX 23 54 1 -1
BITMAP
0783C0
0783C0
07C7C0
07FFC0
03FF80
01FF00
007E00
000000
000000
01FF80
03FF80
03FF80
03FF80
03FF80
03FF80
03FFC0
07FFC0
07FFC0
07EFC0
07EFC0
07EFC0
07EFE0
07CFE0
0FCFE0
0FCFE0
0FCFE0
0FC7E0
0FC7E0
0FC7F0
1F87F0
1F87F0
1F87F0
1F87F0
1F83F0
1F83F8
1F83F8
3F03F8
3F03F8
3F03F8
3F03F8
3FFFF8
3FFFFC
7FFFFC
7FFFFC
7FFFFC
7FFFFC
7E00FC
7E00FE
7E00FE
FE00FE
FC00FE
FC00FE
FC00FE
FC007E
ENDCHAR
STARTCHAR Aogonek
ENCODING 260
SWIDTH 407 0
DWIDTH 25 0
BBX 24 54 1 -10
BITMAP
01FF80
03FF80
03FF80
03FF80
03FF80
03FF80
03FFC0
07FFC0
07FFC0
07EFC0
07EFC0
07EFC0
07EFE0
07CFE0
0FCFE0
0FCFE0
0FCFE0
0FC7E0
0FC7E0
0FC7F0
1F87F0
1F87F0
1F87F0
1F87F0
1F83F0
1F83F8
1F83F8
3F03F8
3F03F8
3F03F8
3F03F8
3FFFF8
3FFFFC
7FFFFC
7FFFFC
7FFFFC
7FFFFC
7E00FC
7E00FE
7E00FE
FE00FE
FC00FE
FC00FE
FC00FE
FC007E
000070
0000F0
0001E0
0003E0
0003E0
0003FF
0003FF
0001FF
0000FE
ENDCHAR
STARTCHAR aogonek
ENCODING 261
SWIDTH 407 0
DWIDTH 25 0
BBX 24 54 1 -10
BITMAP
01FF80
03FF80
03FF80
03FF80
03FF80
03FF80
03FFC0
07FFC0
07FFC0
07EFC0
07EFC0
07EFC0
07EFE0
07CFE0
0FCFE0
0FCFE0
0FCFE0
0FC7E0
0FC7E0
0FC7F0
1F87F0
1F87F0
1F87F0
1F87F0
1F83F0
1F83F8
1F83F8
3F03F8
3F03F8
3F03F8
3F03F8
3FFFF8
3FFFFC
7FFFFC
7FFFFC
7FFFFC
7FFFFC
7E00FC
7E00FE
7E00FE
FE00FE
FC00FE
FC00FE
FC00FE
FC007E
000070
0000F0
0001E0
0003E0
0003E0
0003FF
0003FF
0001FF
0000FE
ENDCHAR
STARTCHAR Cacute
ENCODING 262
SWIDTH 386 0
DWIDTH 24 0
BBX 20 54 2 -1
BITMAP
003F80
003F00
007E00
007C00
00F800
01F000
01F000
000000
000000
03FC00
0FFF00
1FFF80
3FFFC0
7FFFE0
7FFFE0
FF8FF0
FE07F0
FE03F0
FE03F0
FE03F0
FE03F0
FE03F0
FE03F0
FE03F0
FE0000
FE0000
FE0000
FE0000
FE0000
FE0000
FE0000
FE0000
FE0000
FE0000
FE0000
FE0000
FE0000
FE03F0
FE03F0
FE03F0
FE03F0
FE03F0
FE03F0
FE03F0
FE03F0
FE03F0
FE07F0
FF8FF0
7FFFE0
7FFFE0
3FFFC0
1FFF80
0FFF00
03FC00
ENDCHAR
STARTCHAR cacute
ENCODING 263
SWIDTH 386 0
DWIDTH 24 0
BBX 20 54 2 -1
BITMAP
003F80
003F00
007E00
007C00
00F800
01F000
01F000
000000
000000
03FC00
0FFF00
1FFF80
3FFFC0
7FFFE0
7FFFE0
FF8FF0
FE07F0
FE03F0
FE03F0
FE03F0
FE03F0
FE03F0
FE03F0
FE03F0
FE0000
FE0000
FE0000
FE0000
FE0000
FE0000
FE0000
FE0000
FE0000
FE0000
FE0000
FE0000
FE0000
FE03F0
FE03F0
FE03F0
FE03F0
FE03F0
FE03F0
FE03F0
FE03F0
FE03F0
FE07F0
FF8FF0
7FFFE0
7FFFE0
3FFFC0
1FFF80
0FFF00
03FC00
ENDCHAR
STARTCHAR Ccircumflex
ENCODING 264
SWIDTH 386 0
DWIDTH 24 0
BBX 20 54 2 -1
BITMAP
01F800
03FC00
07FE00
0FFF00
1F9F80
1F8F80
3F0FC0
000000
000000
03FC00
0FFF00
1FFF80
3FFFC0
7FFFE0
7FFFE0
FF8FF0
FE07F0
FE03F0
FE03F0
FE03F0
FE03F0
FE03F0
FE03F0
FE03F0
FE0000
FE0000
FE0000
FE0000
FE0000
FE0000
FE0000
FE0000
FE0000
FE0000
FE0000
FE0000
FE0000
FE03F0
FE03F0
FE03F0
FE03F0
FE03F0
FE03F0
FE03F0
FE03F0
FE03F0
FE07F0
FF8FF0
7FFFE0
7FFFE0
3FFFC0
1FFF80
0FFF00
03FC00
ENDCHAR
STARTCHAR ccircumflex
ENCODING 265
SWIDTH 386 0
DWIDTH 24 0
BBX 20 54 2 -1
BITMAP
01F800
03FC00
07FE00
0FFF00
1F9F80
1F8F80
3F0FC0
000000
000000
03FC00
0FFF00
1FFF80
3FFFC0
7FFFE0
7FFFE0
FF8FF0
FE07F0
FE03F0
FE03F0
FE03F0
FE03F0
FE03F0
FE03F0
FE03F0
FE0000
FE0000
FE0000
FE0000
FE0000
FE0000
FE0000
FE0000
FE0000
FE0000
FE0000
FE0000
FE0000
FE03F0
FE03F0
FE03F0
FE03F0
FE03F0
FE03F0
FE03F0
FE03F0
FE03F0
FE07F0
FF8FF0
7FFFE0
7FFFE0
3FFFC0
1FFF80
0FFF00
03FC00
ENDCHAR
STARTCHAR Cdotaccent
ENCODING 266
SWIDTH 386 0
DWIDTH 24 0
BBX 20 53 2 -1
BITMAP
01F800
01F800
01F800
01F800
01F800
01F800
000000
000000
03FC00
0FFF00
1FFF80
3FFFC0
7FFFE0
7FFFE0
FF8FF0
FE07F0
FE03F0
FE03F0
FE03F0
FE03F0
FE03F0
FE03F0
FE03F0
FE0000
FE0000
FE0000
FE0000
FE0000
FE0000
FE0000
FE0000
FE0000
FE0000
FE0000
FE0000
FE0000
FE03F0
FE03F0
FE03F0
FE03F0
FE03F0
FE03F0
FE03F0
FE03F0
FE03F0
FE07F0
FF8FF0
7FFFE0
7FFFE0
3FFFC0
1FFF80
0FFF00
03FC00
ENDCHAR
STARTCHAR cdotaccent
ENCODING 267
SWIDTH 386 0
DWIDTH 24 0
BBX 20 53 2 -1
BITMAP
01F800
01F800
01F800
01F800
01F800
01F800
000000
000000
03FC00
0FFF00
1FFF80
3FFFC0
7FFFE0
7FFFE0
FF8FF0
FE07F0
FE03F0
FE03F0
FE03F0
FE03F0
FE03F0
FE03F0
FE03F0
FE0000
FE0000
FE0000
FE0000
FE0000
FE0000
FE0000
FE0000
FE0000
FE0000
FE0000
FE0000
FE0000
FE03F0
FE03F0
FE03F0
FE03F0
FE03F0
FE03F0
FE03F0
FE03F0
FE03F0
FE07F0
FF8FF0
7FFFE0
7FFFE0
3FFFC0
1FFF80
0FFF00
03FC00
ENDCHAR
STARTCHAR Ccaron
ENCODING 268
SWIDTH 386 0
DWIDTH 24 0
BBX 20 54 2 -1
BITMAP
3F07C0
1F0FC0
1F9F80
0FFF00
07FE00
03FC00
01FC00
000000
000000
03FC00
0FFF00
1FFF80
3FFFC0
7FFFE0
7FFFE0
FF8FF0
FE07F0
FE03F0
FE03F0
FE03F0
FE03F0
FE03F0
FE03F0
FE03F0
FE0000
FE0000
FE0000
FE0000
FE0000
FE0000
FE0000
FE0000
FE0000
FE0000
FE0000
FE0000
FE0000
FE03F0
FE03F0
FE03F0
FE03F0
FE03F0
FE03F0
FE03F0
FE03F0
FE03F0
FE07F0
FF8FF0
7FFFE0
7FFFE0
3FFFC0
1FFF80
0FFF00
03FC00
ENDCHAR
STARTCHAR ccaron
ENCODING 269
SWIDTH 386 0
DWIDTH 24 0
BBX 20 54 2 -1
BITMAP
3F07C0
1F0FC0
1F9F80
0FFF00
07FE00
03FC00
01FC00
000000
000000
03FC00
0FFF00
1FFF80
3FFFC0
7FFFE0
7FFFE0
FF8FF0
FE07F0
FE03F0
FE03F0
FE03F0
FE03F0
FE03F0
FE03F0
FE03F0
FE0000
FE0000
FE0000
FE0000
FE0000
FE0000
FE0000
FE0000
FE0000
FE0000
FE0000
FE0000
FE0000
FE03F0
FE03F0
FE03F0
FE03F0
FE03F0
FE03F0
FE03F0
FE03F0
FE03F0
FE07F0
FF8FF0
7FFFE0
7FFFE0
3FFFC0
1FFF80
0FFF00
03FC00
ENDCHAR
STARTCHAR Dcaron
ENCODING 270
SWIDTH 408 0
DWIDTH 25 0
BBX 21 54 2 -1
BITMAP
3F0FC0
1F0F80
1F9F80
0FFF00
07FE00
03FC00
01F800
000000
000000
FFFE00
FFFF80
FFFFE0
FFFFE0
FFFFF0
FFFFF8
FE07F8
FE03F8
FE03F8
FE01F8
FE01F8
FE01F8
FE01F8
FE01F8
FE01F8
FE01F8
FE01F8
FE01F8
FE01F8
FE01F8
FE01F8
FE01F8
FE01F8
FE01F8
FE01F8
FE01F8
FE01F8
FE01F8
FE01F8
FE01F8
FE01F8
FE01F8
FE01F8
FE01F8
FE01F8
FE01F8
FE03F8
FE03F8
FE07F8
FFFFF8
FFFFF0
FFFFE0
FFFFE0
FFFF80
FFFE00
ENDCHAR
STARTCHAR dcaron
ENCODING 271
SWIDTH 408 0
DWIDTH 25 0
BBX 21 54 2 -1
BITMAP
3F0FC0
1F0F80
1F9F80
0FFF00
07FE00
03FC00
01F800
000000
000000
FFFE00
FFFF80
FFFFE0
FFFFE0
FFFFF0
FFFFF8
FE07F8
FE03F8
FE03F8
FE01F8
FE01F8
FE01F8
FE01F8
FE01F8
FE01F8
FE01F8
FE01F8
FE01F8
FE01F8
FE01F8
FE01F8
FE01F8
FE01F8
FE01F8
FE01F8
FE01F8
FE01F8
FE01F8
FE01F8
FE01F8
FE01F8
FE01F8
FE01F8
FE01F8
FE01F8
FE01F8
FE03F8
FE03F8
FE07F8
FFFFF8
FFFFF0
FFFFE0
FFFFE0
FFFF80
FFFE00
ENDCHAR
STARTCHAR Dcroat
ENCODING 272
SWIDTH 408 0
DWIDTH 25 0
BBX 23 45 0 -1
BITMAP
3FFF80
3FFFE0
3FFFF8
3FFFF8
3FFFFC
3FFFFC
3F81FE
3F80FE
3F80FE
3F80FE
3F807E
3F807E
3F807E
3F807E
3F807E
3F807E
3F807E
3F807E
3F807E
3F807E
FFFC7E
FFFC7E
FFFC7E
FFFC7E
FFFC7E
FFFC7E
3F807E
3F807E
3F807E
3F807E
3F807E
3F807E
3F807E
3F807E
3F807E
3F807E
3F80FE
3F80FE
3F81FE
3FFFFE
3FFFFC
3FFFF8
3FFFF8
3FFFE0
3FFF80
ENDCHAR
STARTCHAR dcroat
ENCODING 273
SWIDTH 408 0
DWIDTH 25 0
BBX 23 45 0 -1
BITMAP
3FFF80
3FFFE0
3FFFF8
3FFFF8
3FFFFC
3FFFFC
3F81FE
3F80FE
3F80FE
3F80FE
3F807E
3F807E
3F807E
3F807E
3F807E
3F807E
3F807E
3F807E
3F807E
3F807E
FFFC7E
FFFC7E
FFFC7E
FFFC7E
FFFC7E
FFFC7E
3F807E
3F807E
3F807E
3F807E
3F807E
3F807E
3F807E
3F807E
3F807E
3F807E
3F80FE
3F80FE
3F81FE
3FFFFE
3FFFFC
3FFFF8
3FFFF8
3FFFE0
3FFF80
ENDCHAR
STARTCHAR Emacron
ENCODING 274
SWIDTH 368 0
DWIDTH 23 0
BBX 19 52 2 -1
BITMAP
1FFF80
1FFF80
1FFF80
1FFF80
1FFF80
000000
000000
FFFFE0
FFFFE0
FFFFE0
FFFFE0
FFFFE0
FFFFE0
FE0000
FE0000
FE0000
FE0000
FE0000
FE0000
FE0000
FE0000
FE0000
FE0000
FE0000
FE0000
FE0000
FFFF80
FFFF80
FFFF80
FFFF80
FFFF80
FFFF80
FE0000
FE0000
FE0000
FE0000
FE0000
FE0000
FE0000
FE0000
FE0000
FE0000
FE0000
FE0000
FE0000
FE0000
FFFFE0
FFFFE0
FFFFE0
FFFFE0
FFFFE0
FFFFE0
ENDCHAR
STARTCHAR emacron
ENCODING 275
SWIDTH 368 0
DWIDTH 23 0
BBX 19 52 2 -1
BITMAP
1FFF80
1FFF80
1FFF80
1FFF80
1FFF80
000000
000000
FFFFE0
FFFFE0
FFFFE0
FFFFE0
FFFFE0
FFFFE0
FE0000
FE0000
FE0000
FE0000
FE0000
FE0000
FE0000
FE0000
FE0000
FE0000
FE0000
FE0000
FE0000
FFFF80
FFFF80
FFFF80
FFFF80
FFFF80
FFFF80
FE0000
FE0000
FE0000
FE0000
FE0000
FE0000
FE0000
FE0000
FE0000
FE0000
FE0000
FE0000
FE0000
FE0000
FFFFE0
FFFFE0
FFFFE0
FFFFE0
FFFFE0
FFFFE0
ENDCHAR
STARTCHAR Ebreve
ENCODING 276
SWIDTH 368 0
DWIDTH 23 0
BBX 19 54 2 -1
BITMAP
1E0F80
1E0F00
1F1F00
1FFF00
0FFE00
07FC00
01F800
000000
000000
FFFFE0
FFFFE0
FFFFE0
FFFFE0
FFFFE0
FFFFE0
FE0000
FE0000
FE0000
FE0000
FE0000
FE0000
FE0000
FE0000
FE0000
FE0000
FE0000
FE0000
FE0000
FFFF80
FFFF80
FFFF80
FFFF80
FFFF80
FFFF80
FE0000
FE0000
FE0000
FE0000
FE0000
FE0000
FE0000
FE0000
FE0000
FE0000
FE0000
FE0000
FE0000
FE0000
FFFFE0
FFFFE0
FFFFE0
FFFFE0
FFFFE0
FFFFE0
ENDCHAR
STARTCHAR ebreve
ENCODING 277
SWIDTH 368 0
DWIDTH 23 0
BBX 19 54 2 -1
BITMAP
1E0F80
1E0F00
1F1F00
1FFF00
0FFE00
07FC00
01F800
000000
000000
FFFFE0
FFFFE0
FFFFE0
FFFFE0
FFFFE0
FFFFE0
FE0000
FE0000
FE0000
FE0000
FE0000
FE0000
FE0000
FE0000
FE0000
FE0000
FE0000
FE0000
FE0000
FFFF80
FFFF80
FFFF80
FFFF80
FFFF80
FFFF80
FE0000
FE0000
FE0000
FE0000
FE0000
FE0000
FE0000
FE0000
FE0000
FE0000
FE0000
FE0000
FE0000
FE0000
FFFFE0
FFFFE0
FFFFE0
FFFFE0
FFFFE0
FFFFE0
ENDCHAR
STARTCHAR Edotaccent
ENCODING 278
SWIDTH 368 0
DWIDTH 23 0
BBX 19 53 2 -1
BITMAP
01F800
01F800
01F800
01F800
01F800
01F800
000000
000000
FFFFE0
FFFFE0
FFFFE0
FFFFE0
FFFFE0
FFFFE0
FE0000
FE0000
FE0000
FE0000
FE0000
FE0000
FE0000
FE0000
FE0000
FE0000
FE0000
FE0000
FE0000
FFFF80
FFFF80
FFFF80
FFFF80
FFFF80
FFFF80
FE0000
FE0000
FE0000
FE0000
FE0000
FE0000
FE0000
FE0000
FE0000
FE0000
FE0000
FE0000
FE0000
FE0000
FFFFE0
FFFFE0
FFFFE0
FFFFE0
FFFFE0
FFFFE0
ENDCHAR
STARTCHAR edotaccent
ENCODING 279
SWIDTH 368 0
DWIDTH 23 0
BBX 19 53 2 -1
BITMAP
01F800
01F800
01F800
01F800
01F800
01F800
000000
000000
FFFFE0
FFFFE0
FFFFE0
FFFFE0
FFFFE0
FFFFE0
FE0000
FE0000
FE0000
FE0000
FE0000
FE0000
FE0000
FE0000
FE0000
FE0000
FE0000
FE0000
FE0000
FFFF80
FFFF80
FFFF80
FFFF80
FFFF80
FFFF80
FE0000
FE0000
FE0000
FE0000
FE0000
FE0000
FE0000
FE0000
FE0000
FE0000
FE0000
FE0000
FE0000
FE0000
FFFFE0
FFFFE0
FFFFE0
FFFFE0
FFFFE0
FFFFE0
ENDCHAR
STARTCHAR Eogonek
ENCODING 280
SWIDTH 368 0
DWIDTH 23 0
BBX 19 54 2 -10
BITMAP
FFFFE0
FFFFE0
FFFFE0
FFFFE0
FFFFE0
FFFFE0
FE0000
FE0000
FE0000
FE0000
FE0000
FE0000
FE0000
FE0000
FE0000
FE0000
FE0000
FE0000
FE0000
FFFF80
FFFF80
FFFF80
FFFF80
FFFF80
FFFF80
FE0000
FE0000
FE0000
FE0000
FE0000
FE0000
FE0000
FE0000
FE0000
FE0000
FE0000
FE0000
FE0000
FE0000
FFFFE0
FFFFE0
FFFFE0
FFFFE0
FFFFE0
FFFFE0
000700
001E00
003E00
003E00
003E00
007FE0
003FE0
003FE0
000FE0
ENDCHAR
STARTCHAR eogonek
ENCODING 281
SWIDTH 368 0
DWIDTH 23 0
BBX 19 54 2 -10
BITMAP
FFFFE0
FFFFE0
FFFFE0
FFFFE0
FFFFE0
FFFFE0
FE0000
FE0000
FE0000
FE0000
FE0000
FE0000
FE0000
FE0000
FE0000
FE0000
FE0000
FE0000
FE0000
FFFF80
FFFF80
FFFF80
FFFF80
FFFF80
FFFF80
FE0000
FE0000
FE0000
FE0000
FE0000
FE0000
FE0000
FE0000
FE0000
FE0000
FE0000
FE0000
FE0000
FE0000
FFFFE0
FFFFE0
FFFFE0
FFFFE0
FFFFE0
FFFFE0
000700
001E00
003E00
003E00
003E00
007FE0
003FE0
003FE0
000FE0
ENDCHAR
STARTCHAR Ecaron
ENCODING 282
SWIDTH 368 0
DWIDTH 23 0
BBX 19 54 2 -1
BITMAP
7E0FC0
3F1F80
1FBF00
0FFE00
07FE00
07FC00
03F800
000000
000000
FFFFE0
FFFFE0
FFFFE0
FFFFE0
FFFFE0
FFFFE0
FE0000
FE0000
FE0000
FE0000
FE0000
FE0000
FE0000
FE0000
FE0000
FE0000
FE0000
FE0000
FE0000
FFFF80
FFFF80
FFFF80
FFFF80
FFFF80
FFFF80
FE0000
FE0000
FE0000
FE0000
FE0000
FE0000
FE0000
FE0000
FE0000
FE0000
FE0000
FE0000
FE0000
FE0000
FFFFE0
FFFFE0
FFFFE0
FFFFE0
FFFFE0
FFFFE0
ENDCHAR
STARTCHAR ecaron
ENCODING 283
SWIDTH 368 0
DWIDTH 23 0
BBX 19 54 2 -1
BITMAP
7E0FC0
3F1F80
1FBF00
0FFE00
07FE00
07FC00
03F800
000000
000000
FFFFE0
FFFFE0
FFFFE0
FFFFE0
FFFFE0
FFFFE0
FE0000
FE0000
FE0000
FE0000
FE0000
FE0000
FE0000
FE0000
FE0000
FE0000
FE0000
FE0000
FE0000
FFFF80
FFFF80
FFFF80
FFFF80
FFFF80
FFFF80
FE0000
FE0000
FE0000
FE0000
FE0000
FE0000
FE0000
FE0000
FE0000
FE0000
FE0000
FE0000
FE0000
FE0000
FFFFE0
FFFFE0
FFFFE0
FFFFE0
FFFFE0
FFFFE0
ENDCHAR
STARTCHAR Gcircumflex
ENCODING 284
SWIDTH 390 0
DWIDTH 24 0
BBX 20 54 2 -1
BITMAP
01F800
03FC00
07FE00
0FFF00
1F9F80
1F8F80
3F0FC0
000000
000000
03FC00
0FFF00
1FFF80
3FFFC0
7FFFE0
7FFFE0
FF8FF0
FE07F0
FE03F0
FE03F0
FE03F0
FE03F0
FE03F0
FE03F0
FE03F0
FE0000
FE0000
FE0000
FE0000
FE0000
FE1FF0
FE1FF0
FE1FF0
FE1FF0
FE1FF0
FE1FF0
FE03F0
FE03F0
FE03F0
FE03F0
FE03F0
FE03F0
FE03F0
FE03F0
FE03F0
FE03F0
FE03F0
FE07F0
FF8FF0
7FFFE0
7FFFE0
3FFFC0
1FFF80
0FFF00
03FC00
ENDCHAR
STARTCHAR gcircumflex
ENCODING 285
SWIDTH 390 0
DWIDTH 24 0
BBX 20 54 2 -1
BITMAP
01F800
03FC00
07FE00
0FFF00
1F9F80
1F8F80
3F0FC0
000000
000000
03FC00
0FFF00
1FFF80
3FFFC0
7FFFE0
7FFFE0
FF8FF0
FE07F0
FE03F0
FE03F0
FE03F0
FE03F0
FE03F0
FE03F0
FE03F0
FE0000
FE0000
FE0000
FE0000
FE0000
FE1FF0
FE1FF0
FE1FF0
FE1FF0
FE1FF0
FE1FF0
FE03F0
FE03F0
FE03F0
FE03F0
FE03F0
FE03F0
FE03F0
FE03F0
FE03F0
FE03F0
FE03F0
FE07F0
FF8FF0
7FFFE0
7FFFE0
3FFFC0
1FFF80
0FFF00
03FC00
ENDCHAR
STARTCHAR Gbreve
ENCODING 286
SWIDTH 390 0
DWIDTH 24 0
BBX 20 54 2 -1
BITMAP
1E0780
1E0780
1F0F80
0FFF00
0FFF00
07FE00
03FC00
000000
000000
03FC00
0FFF00
1FFF80
3FFFC0
7FFFE0
7FFFE0
FF8FF0
FE07F0
FE03F0
FE03F0
FE03F0
FE03F0
FE03F0
FE03F0
FE03F0
FE0000
FE0000
FE0000
FE0000
FE0000
FE1FF0
FE1FF0
FE1FF0
FE1FF0
FE1FF0
FE1FF0
FE03F0
FE03F0
FE03F0
FE03F0
FE03F0
FE03F0
FE03F0
FE03F0
FE03F0
FE03F0
FE03F0
FE07F0
FF8FF0
7FFFE0
7FFFE0
3FFFC0
1FFF80
0FFF00
03FC00
ENDCHAR
STARTCHAR gbreve
ENCODING 287
SWIDTH 390 0
DWIDTH 24 0
BBX 20 54 2 -1
BITMAP
1E0780
1E0780
1F0F80
0FFF00
0FFF00
07FE00
03FC00
000000
000000
03FC00
0FFF00
1FFF80
3FFFC0
7FFFE0
7FFFE0
FF8FF0
FE07F0
FE03F0
FE03F0
FE03F0
FE03F0
FE03F0
FE03F0
FE03F0
FE0000
FE0000
FE0000
FE0000
FE0000
FE1FF0
FE1FF0
FE1FF0
FE1FF0
FE1FF0
FE1FF0
FE03F0
FE03F0
FE03F0
FE03F0
FE03F0
FE03F0
FE03F0
FE03F0
FE03F0
FE03F0
FE03F0
FE07F0
FF8FF0
7FFFE0
7FFFE0
3FFFC0
1FFF80
0FFF00
03FC00
ENDCHAR
STARTCHAR Gdotaccent
ENCODING 288
SWIDTH 390 0
DWIDTH 24 0
BBX 20 53 2 -1
BITMAP
01F800
01F800
01F800
01F800
01F800
01F800
000000
000000
03FC00
0FFF00
1FFF80
3FFFC0
7FFFE0
7FFFE0
FF8FF0
FE07F0
FE03F0
FE03F0
FE03F0
FE03F0
FE03F0
FE03F0
FE03F0
FE0000
FE0000
FE0000
FE0000
FE0000
FE1FF0
FE1FF0
FE1FF0
FE1FF0
FE1FF0
FE1FF0
FE03F0
FE03F0
FE03F0
FE03F0
FE03F0
FE03F0
FE03F0
FE03F0
FE03F0
FE03F0
FE03F0
FE07F0
FF8FF0
7FFFE0
7FFFE0
3FFFC0
1FFF80
0FFF00
03FC00
ENDCHAR
STARTCHAR gdotaccent
ENCODING 289
SWIDTH 390 0
DWIDTH 24 0
BBX 20 53 2 -1
BITMAP
01F800
01F800
01F800
01F800
01F800
01F800
000000
000000
03FC00
0FFF00
1FFF80
3FFFC0
7FFFE0
7FFFE0
FF8FF0
FE07F0
FE03F0
FE03F0
FE03F0
FE03F0
FE03F0
FE03F0
FE03F0
FE0000
FE0000
FE0000
FE0000
FE0000
FE1FF0
FE1FF0
FE1FF0
FE1FF0
FE1FF0
FE1FF0
FE03F0
FE03F0
FE03F0
FE03F0
FE03F0
FE03F0
FE03F0
FE03F0
FE03F0
FE03F0
FE03F0
FE07F0
FF8FF0
7FFFE0
7FFFE0
3FFFC0
1FFF80
0FFF00
03FC00
ENDCHAR
STARTCHAR uni0122
ENCODING 290
SWIDTH 390 0
DWIDTH 24 0
BBX 20 55 2 -11
BITMAP
03FC00
0FFF00
1FFF80
3FFFC0
7FFFE0
7FFFE0
FF8FF0
FE07F0
FE03F0
FE03F0
FE03F0
FE03F0
FE03F0
FE03F0
FE03F0
FE0000
FE0000
FE0000
FE0000
FE0000
FE1FF0
FE1FF0
FE1FF0
FE1FF0
FE1FF0
FE1FF0
FE03F0
FE03F0
FE03F0
FE03F0
FE03F0
FE03F0
FE03F0
FE03F0
FE03F0
FE03F0
FE03F0
FE07F0
FF8FF0
7FFFE0
7FFFE0
3FFFC0
1FFF80
0FFF00
03FC00
000000
01F800
01F800
01F800
01F800
01F800
01F800
007000
007000
00E000
ENDCHAR
STARTCHAR uni0123
ENCODING 291
SWIDTH 390 0
DWIDTH 24 0
BBX 20 55 2 -11
BITMAP
03FC00
0FFF00
1FFF80
3FFFC0
7FFFE0
7FFFE0
FF8FF0
FE07F0
FE03F0
FE03F0
FE03F0
FE03F0
FE03F0
FE03F0
FE03F0
FE0000
FE0000
FE0000
FE0000
FE0000
FE1FF0
FE1FF0
FE1FF0
FE1FF0
FE1FF0
FE1FF0
FE03F0
FE03F0
FE03F0
FE03F0
FE03F0
FE03F0
FE03F0
FE03F0
FE03F0
FE03F0
FE03F0
FE07F0
FF8FF0
7FFFE0
7FFFE0
3FFFC0
1FFF80
0FFF00
03FC00
000000
01F800
01F800
01F800
01F800
01F800
01F800
007000
007000
00E000
ENDCHAR
STARTCHAR Hcircumflex
ENCODING 292
SWIDTH 427 0
DWIDTH 26 0
BBX 22 54 2 -1
BITMAP
00FE00
01FF00
03FF00
07FF80
07CFC0
0FC7E0
1F83F0
000000
000000
FE01FC
FE01FC
FE01FC
FE01FC
FE01FC
FE01FC
FE01FC
FE01FC
FE01FC
FE01FC
FE01FC
FE01FC
FE01FC
FE01FC
FE01FC
FE01FC
FE01FC
FE01FC
FE01FC
FE01FC
FFFFFC
FFFFFC
FFFFFC
FFFFFC
FFFFFC
FFFFFC
FE01FC
FE01FC
FE01FC
FE01FC
FE01FC
FE01FC
FE01FC
FE01FC
FE01FC
FE01FC
FE01FC
FE01FC
FE01FC
FE01FC
FE01FC
FE01FC
FE01FC
FE01FC
FE01FC
ENDCHAR
STARTCHAR hcircumflex
ENCODING 293
SWIDTH 427 0
DWIDTH 26 0
BBX 22 54 2 -1
BITMAP
00FE00
01FF00
03FF00
07FF80
07CFC0
0FC7E0
1F83F0
000000
000000
FE01FC
FE01FC
FE01FC
FE01FC
FE01FC
FE01FC
FE01FC
FE01FC
FE01FC
FE01FC
FE01FC
FE01FC
FE01FC
FE01FC
FE01FC
FE01FC
FE01FC
FE01FC
FE01FC
FE01FC
FFFFFC
FFFFFC
FFFFFC
FFFFFC
FFFFFC
FFFFFC
FE01FC
FE01FC
FE01FC
FE01FC
FE01FC
FE01FC
FE01FC
FE01FC
FE01FC
FE01FC
FE01FC
FE01FC
FE01FC
FE01FC
FE01FC
FE01FC
FE01FC
FE01FC
FE01FC
ENDCHAR
STARTCHAR Hbar
ENCODING 294
SWIDTH 437 0
DWIDTH 27 0
BBX 25 45 1 -1
BITMAP
3F80FE00
3F80FE00
3F80FE00
3F80FE00
3F80FE00
3F80FE00
3F80FE00
FFFFFF80
FFFFFF80
FFFFFF80
FFFFFF80
FFFFFF80
3F80FE00
3F80FE00
3F80FE00
3F80FE00
3F80FE00
3F80FE00
3F80FE00
3FFFFE00
3FFFFE00
3FFFFE00
3FFFFE00
3FFFFE00
3FFFFE00
3F80FE00
3F80FE00
3F80FE00
3F80FE00
3F80FE00
3F80FE00
3F80FE00
3F80FE00
3F80FE00
3F80FE00
3F80FE00
3F80FE00
3F80FE00
3F80FE00
3F80FE00
3F80FE00
3F80FE00
3F80FE00
3F80FE00
3F80FE00
ENDCHAR
STARTCHAR hbar
ENCODING 295
SWIDTH 437 0
DWIDTH 27 0
BBX 25 45 1 -1
BITMAP
3F80FE00
3F80FE00
3F80FE00
3F80FE00
3F80FE00
3F80FE00
3F80FE00
FFFFFF80
FFFFFF80
FFFFFF80
FFFFFF80
FFFFFF80
3F80FE00
3F80FE00
3F80FE00
3F80FE00
3F80FE00
3F80FE00
3F80FE00
3FFFFE00
3FFFFE00
3FFFFE00
3FFFFE00
3FFFFE00
3FFFFE00
3F80FE00
3F80FE00
3F80FE00
3F80FE00
3F80FE00
3F80FE00
3F80FE00
3F80FE00
3F80FE00
3F80FE00
3F80FE00
3F80FE00
3F80FE00
3F80FE00
3F80FE00
3F80FE00
3F80FE00
3F80FE00
3F80FE00
3F80FE00
ENDCHAR
STARTCHAR Itilde
ENCODING 296
SWIDTH 190 0
DWIDTH 12 0
BBX 16 54 -2 -1
BITMAP
1C00
7F8E
7FFF
FFFF
FFFE
71FC
2038
0000
0000
0FE0
0FE0
0FE0
0FE0
0FE0
0FE0
0FE0
0FE0
0FE0
0FE0
0FE0
0FE0
0FE0
0FE0
0FE0
0FE0
0FE0
0FE0
0FE0
0FE0
0FE0
0FE0
0FE0
0FE0
0FE0
0FE0
0FE0
0FE0
0FE0
0FE0
0FE0
0FE0
0FE0
0FE0
0FE0
0FE0
0FE0
0FE0
0FE0
0FE0
0FE0
0FE0
0FE0
0FE0
0FE0
ENDCHAR
STARTCHAR itilde
ENCODING 297
SWIDTH 190 0
DWIDTH 12 0
BBX 16 54 -2 -1
BITMAP
1C00
7F8E
7FFF
FFFF
FFFE
71FC
2038
0000
0000
0FE0
0FE0
0FE0
0FE0
0FE0
0FE0
0FE0
0FE0
0FE0
0FE0
0FE0
0FE0
0FE0
0FE0
0FE0
0FE0
0FE0
0FE0
0FE0
0FE0
0FE0
0FE0
0FE0
0FE0
0FE0
0FE0
0FE0
0FE0
0FE0
0FE0
0FE0
0FE0
0FE0
0FE0
0FE0
0FE0
0FE0
0FE0
0FE0
0FE0
0FE0
0FE0
0FE0
0FE0
0FE0
ENDCHAR
STARTCHAR Imacron
ENCODING 298
SWIDTH 190 0
DWIDTH 12 0
BBX 14 52 -1 -1
BITMAP
FFFC
FFFC
FFFC
FFFC
FFFC
0000
0000
1FC0
1FC0
1FC0
1FC0
1FC0
1FC0
1FC0
1FC0
1FC0
1FC0
1FC0
1FC0
1FC0
1FC0
1FC0
1FC0
1FC0
1FC0
1FC0
1FC0
1FC0
1FC0
1FC0
1FC0
1FC0
1FC0
1FC0
1FC0
1FC0
1FC0
1FC0
1FC0
1FC0
1FC0
1FC0
1FC0
1FC0
1FC0
1FC0
1FC0
1FC0
1FC0
1FC0
1FC0
1FC0
ENDCHAR
STARTCHAR imacron
ENCODING 299
SWIDTH 190 0
DWIDTH 12 0
BBX 14 52 -1 -1
BITMAP
FFFC
FFFC
FFFC
FFFC
FFFC
0000
0000
1FC0
1FC0
1FC0
1FC0
1FC0
1FC0
1FC0
1FC0
1FC0
1FC0
1FC0
1FC0
1FC0
1FC0
1FC0
1FC0
1FC0
1FC0
1FC0
1FC0
1FC0
1FC0
1FC0
1FC0
1FC0
1FC0
1FC0
1FC0
1FC0
1FC0
1FC0
1FC0
1FC0
1FC0
1FC0
1FC0
1FC0
1FC0
1FC0
1FC0
1FC0
1FC0
1FC0
1FC0
1FC0
ENDCHAR
STARTCHAR Ibreve
ENCODING 300
SWIDTH 190 0
DWIDTH 12 0
BBX 14 54 -1 -1
BITMAP
F03C
F07C
F8F8
7FF8
7FF8
3FF0
0FC0
0000
0000
1FC0
1FC0
1FC0
1FC0
1FC0
1FC0
1FC0
1FC0
1FC0
1FC0
1FC0
1FC0
1FC0
1FC0
1FC0
1FC0
1FC0
1FC0
1FC0
1FC0
1FC0
1FC0
1FC0
1FC0
1FC0
1FC0
1FC0
1FC0
1FC0
1FC0
1FC0
1FC0
1FC0
1FC0
1FC0
1FC0
1FC0
1FC0
1FC0
1FC0
1FC0
1FC0
1FC0
1FC0
1FC0
ENDCHAR
STARTCHAR ibreve
ENCODING 301
SWIDTH 190 0
DWIDTH 12 0
BBX 14 54 -1 -1
BITMAP
F03C
F07C
F8F8
7FF8
7FF8
3FF0
0FC0
0000
0000
1FC0
1FC0
1FC0
1FC0
1FC0
1FC0
1FC0
1FC0
1FC0
1FC0
1FC0
1FC0
1FC0
1FC0
1FC0
1FC0
1FC0
1FC0
1FC0
1FC0
1FC0
1FC0
1FC0
1FC0
1FC0
1FC0
1FC0
1FC0
1FC0
1FC0
1FC0
1FC0
1FC0
1FC0
1FC0
1FC0
1FC0
1FC0
1FC0
1FC0
1FC0
1FC0
1FC0
1FC0
1FC0
ENDCHAR
STARTCHAR Iogonek
ENCODING 302
SWIDTH 190 0
DWIDTH 12 0
BBX 10 54 1 -10
BITMAP
7F00
7F00
7F00
7F00
7F00
7F00
7F00
7F00
7F00
7F00
7F00
7F00
7F00
7F00
7F00
7F00
7F00
7F00
7F00
7F00
7F00
7F00
7F00
7F00
7F00
7F00
7F00
7F00
7F00
7F00
7F00
7F00
7F00
7F00
7F00
7F00
7F00
7F00
7F00
7F00
7F00
7F00
7F00
7F00
7F00
1E00
3C00
7800
F800
FC00
FFC0
FFC0
7FC0
3F80
ENDCHAR
STARTCHAR iogonek
ENCODING 303
SWIDTH 190 0
DWIDTH 12 0
BBX 10 54 1 -10
BITMAP
7F00
7F00
7F00
7F00
7F00
7F00
7F00
7F00
7F00
7F00
7F00
7F00
7F00
7F00
7F00
7F00
7F00
7F00
7F00
7F00
7F00
7F00
7F00
7F00
7F00
7F00
7F00
7F00
7F00
7F00
7F00
7F00
7F00
7F00
7F00
7F00
7F00
7F00
7F00
7F00
7F00
7F00
7F00
7F00
7F00
1E00
3C00
7800
F800
FC00
FFC0
FFC0
7FC0
3F80
ENDCHAR
STARTCHAR Idotaccent
ENCODING 304
SWIDTH 190 0
DWIDTH 12 0
BBX 7 53 2 -1
BITMAP
7E
7E
7E
7E
7E
7E
00
00
FE
FE
FE
FE
FE
FE
FE
FE
FE
FE
FE
FE
FE
FE
FE
FE
FE
FE
FE
FE
FE
FE
FE
FE
FE
FE
FE
FE
FE
FE
FE
FE
FE
FE
FE
FE
FE
FE
FE
FE
FE
FE
FE
FE
FE
ENDCHAR
STARTCHAR dotlessi
ENCODING 305
SWIDTH 190 0
DWIDTH 12 0
BBX 7 45 2 -1
BITMAP
FE
FE
FE
FE
FE
FE
FE
FE
FE
FE
FE
FE
FE
FE
FE
FE
FE
FE
FE
FE
FE
FE
FE
FE
FE
FE
FE
FE
FE
FE
FE
FE
FE
FE
FE
FE
FE
FE
FE
FE
FE
FE
FE
FE
FE
ENDCHAR
STARTCHAR IJ
ENCODING 306
SWIDTH 446 0
DWIDTH 28 0
BBX 23 45 2 -1
BITMAP
FE007E
FE007E
FE007E
FE007E
FE007E
FE007E
FE007E
FE007E
FE007E
FE007E
FE007E
FE007E
FE007E
FE007E
FE007E
FE007E
FE007E
FE007E
FE007E
FE007E
FE007E
FE007E
FE007E
FE007E
FE007E
FE007E
FE007E
FE007E
FE007E
FE007E
FE007E
FE007E
FE007E
FE007E
FE007E
FE007E
FE00FE
FE00FE
FE03FE
FE3FFE
FE3FFC
FE3FFC
FE3FF8
FE3FF0
FE3F80
ENDCHAR
STARTCHAR ij
ENCODING 307
SWIDTH 446 0
DWIDTH 28 0
BBX 23 45 2 -1
BITMAP
FE007E
FE007E
FE007E
FE007E
FE007E
FE007E
FE007E
FE007E
FE007E
FE007E
FE007E
FE007E
FE007E
FE007E
FE007E
FE007E
FE007E
FE007E
FE007E
FE007E
FE007E
FE007E
FE007E
FE007E
FE007E
FE007E
FE007E
FE007E
FE007E
FE007E
FE007E
FE007E
FE007E
FE007E
FE007E
FE007E
FE00FE
FE00FE
FE03FE
FE3FFE
FE3FFC
FE3FFC
FE3FF8
FE3FF0
FE3F80
ENDCHAR
STARTCHAR Jcircumflex
ENCODING 308
SWIDTH 256 0
DWIDTH 16 0
BBX 16 54 1 -1
BITMAP
07F0
0FF0
1FF8
3FFC
7E7E
7C3F
FC1F
0000
0000
03F8
03F8
03F8
03F8
03F8
03F8
03F8
03F8
03F8
03F8
03F8
03F8
03F8
03F8
03F8
03F8
03F8
03F8
03F8
03F8
03F8
03F8
03F8
03F8
03F8
03F8
03F8
03F8
03F8
03F8
03F8
03F8
03F8
03F8
03F8
03F8
03F8
07F0
0FF0
FFF0
FFE0
FFE0
FFC0
FF80
FE00
ENDCHAR
STARTCHAR jcircumflex
ENCODING 309
SWIDTH 256 0
DWIDTH 16 0
BBX 16 54 1 -1
BITMAP
07F0
0FF0
1FF8
3FFC
7E7E
7C3F
FC1F
0000
0000
03F8
03F8
03F8
03F8
03F8
03F8
03F8
03F8
03F8
03F8
03F8
03F8
03F8
03F8
03F8
03F8
03F8
03F8
03F8
03F8
03F8
03F8
03F8
03F8
03F8
03F8
03F8
03F8
03F8
03F8
03F8
03F8
03F8
03F8
03F8
03F8
03F8
07F0
0FF0
FFF0
FFE0
FFE0
FFC0
FF80
FE00
ENDCHAR
STARTCHAR uni0136
ENCODING 310
SWIDTH 414 0
DWIDTH 26 0
BBX 23 56 2 -12
BITMAP
FE00FE
FE00FC
FE01FC
FE01F8
FE03F8
FE03F0
FE07F0
FE07E0
FE0FE0
FE0FE0
FE1FC0
FE1FC0
FE1F80
FE3F80
FE3F00
FE7F00
FE7E00
FEFE00
FEFC00
FFFC00
FFFC00
FFFC00
FFFC00
FFFE00
FFFE00
FFFF00
FFFF00
FFBF00
FFBF80
FF3F80
FF1FC0
FE1FC0
FE1FC0
FE0FE0
FE0FE0
FE07E0
FE07F0
FE07F0
FE03F8
FE03F8
FE03F8
FE01FC
FE01FC
FE01FC
FE00FE
000000
000000
00FC00
00FC00
00FC00
00FC00
00FC00
00FC00
003800
003800
007000
ENDCHAR
STARTCHAR uni0137
ENCODING 311
SWIDTH 414 0
DWIDTH 26 0
BBX 23 56 2 -12
BITMAP
FE00FE
FE00FC
FE01FC
FE01F8
FE03F8
FE03F0
FE07F0
FE07E0
FE0FE0
FE0FE0
FE1FC0
FE1FC0
FE1F80
FE3F80
FE3F00
FE7F00
FE7E00
FEFE00
FEFC00
FFFC00
FFFC00
FFFC00
FFFC00
FFFE00
FFFE00
FFFF00
FFFF00
FFBF00
FFBF80
FF3F80
FF1FC0
FE1FC0
FE1FC0
FE0FE0
FE0FE0
FE07E0
FE07F0
FE07F0
FE03F8
FE03F8
FE03F8
FE01FC
FE01FC
FE01FC
FE00FE
000000
000000
00FC00
00FC00
00FC00
00FC00
00FC00
00FC00
003800
003800
007000
ENDCHAR
STARTCHAR kgreenlandic
ENCODING 312
SWIDTH 414 0
DWIDTH 26 0
BBX 23 45 2 -1
BITMAP
FE00FE
FE00FC
FE01FC
FE01F8
FE03F8
FE03F0
FE07F0
FE07E0
FE0FE0
FE0FE0
FE1FC0
FE1FC0
FE1F80
FE3F80
FE3F00
FE7F00
FE7E00
FEFE00
FEFC00
FFFC00
FFFC00
FFFC00
FFFC00
FFFE00
FFFE00
FFFF00
FFFF00
FFBF00
FFBF80
FF3F80
FF1FC0
FE1FC0
FE1FC0
FE0FE0
FE0FE0
FE07E0
FE07F0
FE07F0
FE03F8
FE03F8
FE03F8
FE01FC
FE01FC
FE01FC
FE00FE
ENDCHAR
STARTCHAR Lacute
ENCODING 313
SWIDTH 339 0
DWIDTH 21 0
BBX 19 54 2 -1
BITMAP
03F800
03F000
07E000
07C000
0F8000
1F0000
1E0000
000000
000000
FE0000
FE0000
FE0000
FE0000
FE0000
FE0000
FE0000
FE0000
FE0000
FE0000
FE0000
FE0000
FE0000
FE0000
FE0000
FE0000
FE0000
FE0000
FE0000
FE0000
FE0000
FE0000
FE0000
FE0000
FE0000
FE0000
FE0000
FE0000
FE0000
FE0000
FE0000
FE0000
FE0000
FE0000
FE0000
FE0000
FE0000
FE0000
FE0000
FFFFE0
FFFFE0
FFFFE0
FFFFE0
FFFFE0
FFFFE0
ENDCHAR
STARTCHAR lacute
ENCODING 314
SWIDTH 339 0
DWIDTH 21 0
BBX 19 54 2 -1
BITMAP
03F800
03F000
07E000
07C000
0F8000
1F0000
1E0000
000000
000000
FE0000
FE0000
FE0000
FE0000
FE0000
FE0000
FE0000
FE0000
FE0000
FE0000
FE0000
FE0000
FE0000
FE0000
FE0000
FE0000
FE0000
FE0000
FE0000
FE0000
FE0000
FE0000
FE0000
FE0000
FE0000
FE0000
FE0000
FE0000
FE0000
FE0000
FE0000
FE0000
FE0000
FE0000
FE0000
FE0000
FE0000
FE0000
FE0000
FFFFE0
FFFFE0
FFFFE0
FFFFE0
FFFFE0
FFFFE0
ENDCHAR
STARTCHAR uni013B
ENCODING 315
SWIDTH 339 0
DWIDTH 21 0
BBX 19 56 2 -12
BITMAP
FE0000
FE0000
FE0000
FE0000
FE0000
FE0000
FE0000
FE0000
FE0000
FE0000
FE0000
FE0000
FE0000
FE0000
FE0000
FE0000
FE0000
FE0000
FE0000
FE0000
FE0000
FE0000
FE0000
FE0000
FE0000
FE0000
FE0000
FE0000
FE0000
FE0000
FE0000
FE0000
FE0000
FE0000
FE0000
FE0000
FE0000
FE0000
FE0000
FFFFE0
FFFFE0
FFFFE0
FFFFE0
FFFFE0
FFFFE0
000000
000000
01F000
01F000
01F000
01F000
01F000
01F000
006000
00E000
00C000
ENDCHAR
STARTCHAR uni013C
ENCODING 316
SWIDTH 339 0
DWIDTH 21 0
BBX 19 56 2 -12
BITMAP
FE0000
FE0000
FE0000
FE0000
FE0000
FE0000
FE0000
FE0000
FE0000
FE0000
FE0000
FE0000
FE0000
FE0000
FE0000
FE0000
FE0000
FE0000
FE0000
FE0000
FE0000
FE0000
FE0000
FE0000
FE0000
FE0000
FE0000
FE0000
FE0000
FE0000
FE0000
FE0000
FE0000
FE0000
FE0000
FE0000
FE0000
FE0000
FE0000
FFFFE0
FFFFE0
FFFFE0
FFFFE0
FFFFE0
FFFFE0
000000
000000
01F000
01F000
01F000
01F000
01F000
01F000
006000
00E000
00C000
ENDCHAR
STARTCHAR Lcaron
ENCODING 317
SWIDTH 339 0
DWIDTH 21 0
BBX 19 45 2 -1
BITMAP
FE1FC0
FE1FC0
FE1FC0
FE1FC0
FE1FC0
FE1FC0
FE1F80
FE0780
FE0780
FE0700
FE0700
FE0E00
FE0E00
FE0000
FE0000
FE0000
FE0000
FE0000
FE0000
FE0000
FE0000
FE0000
FE0000
FE0000
FE0000
FE0000
FE0000
FE0000
FE0000
FE0000
FE0000
FE0000
FE0000
FE0000
FE0000
FE0000
FE0000
FE0000
FE0000
FFFFE0
FFFFE0
FFFFE0
FFFFE0
FFFFE0
FFFFE0
ENDCHAR
STARTCHAR lcaron
ENCODING 318
SWIDTH 339 0
DWIDTH 21 0
BBX 19 45 2 -1
BITMAP
FE1FC0
FE1FC0
FE1FC0
FE1FC0
FE1FC0
FE1FC0
FE1F80
FE0780
FE0780
FE0700
FE0700
FE0E00
FE0E00
FE0000
FE0000
FE0000
FE0000
FE0000
FE0000
FE0000
FE0000
FE0000
FE0000
FE0000
FE0000
FE0000
FE0000
FE0000
FE0000
FE0000
FE0000
FE0000
FE0000
FE0000
FE0000
FE0000
FE0000
FE0000
FE0000
FFFFE0
FFFFE0
FFFFE0
FFFFE0
FFFFE0
FFFFE0
ENDCHAR
STARTCHAR Ldot
ENCODING 319
SWIDTH 339 0
DWIDTH 21 0
BBX 19 45 2 -1
BITMAP
FE0000
FE0000
FE0000
FE0000
FE0000
FE0000
FE0000
FE0000
FE0000
FE0000
FE0000
FE0000
FE0000
FE0000
FE0000
FE0000
FE0000
FE0000
FE0000
FE1FC0
FE1FC0
FE1FC0
FE1FC0
FE1FC0
FE1FC0
FE1FC0
FE0000
FE0000
FE0000
FE0000
FE0000
FE0000
FE0000
FE0000
FE0000
FE0000
FE0000
FE0000
FE0000
FFFFE0
FFFFE0
FFFFE0
FFFFE0
FFFFE0
FFFFE0
ENDCHAR
STARTCHAR ldot
ENCODING 320
SWIDTH 339 0
DWIDTH 21 0
BBX 19 45 2 -1
BITMAP
FE0000
FE0000
FE0000
FE0000
FE0000
FE0000
FE0000
FE0000
FE0000
FE0000
FE0000
FE0000
FE0000
FE0000
FE0000
FE0000
FE0000
FE0000
FE0000
FE1FC0
FE1FC0
FE1FC0
FE1FC0
FE1FC0
FE1FC0
FE1FC0
FE0000
FE0000
FE0000
FE0000
FE0000
FE0000
FE0000
FE0000
FE0000
FE0000
FE0000
FE0000
FE0000
FFFFE0
FFFFE0
FFFFE0
FFFFE0
FFFFE0
FFFFE0
ENDCHAR
STARTCHAR Lslash
ENCODING 321
SWIDTH 348 0
DWIDTH 22 0
BBX 21 45 0 -1
BITMAP
1FC000
1FC000
1FC000
1FC000
1FC000
1FC000
1FC000
1FC000
1FC000
1FC000
1FC000
1FC000
1FC000
1FC000
1FC080
1FC180
1FC380
1FC380
1FC780
1FCF80
1FDF80
1FFF00
1FFE00
1FFC00
1FF800
1FF000
1FE000
1FC000
1FC000
1FC000
3FC000
7FC000
FFC000
FFC000
FFC000
FFC000
DFC000
9FC000
9FC000
1FFFF8
1FFFF8
1FFFF8
1FFFF8
1FFFF8
1FFFF8
ENDCHAR
STARTCHAR lslash
ENCODING 322
SWIDTH 348 0
DWIDTH 22 0
BBX 21 45 0 -1
BITMAP
1FC000
1FC000
1FC000
1FC000
1FC000
1FC000
1FC000
1FC000
1FC000
1FC000
1FC000
1FC000
1FC000
1FC000
1FC080
1FC180
1FC380
1FC380
1FC780
1FCF80
1FDF80
1FFF00
1FFE00
1FFC00
1FF800
1FF000
1FE000
1FC000
1FC000
1FC000
3FC000
7FC000
FFC000
FFC000
FFC000
FFC000
DFC000
9FC000
9FC000
1FFFF8
1FFFF8
1FFFF8
1FFFF8
1FFFF8
1FFFF8
ENDCHAR
STARTCHAR Nacute
ENCODING 323
SWIDTH 427 0
DWIDTH 26 0
BBX 22 54 2 -1
BITMAP
001FC0
001F80
003F00
003E00
007C00
00F800
00F800
000000
000000
FF80FC
FF80FC
FFC0FC
FFC0FC
FFC0FC
FFC0FC
FFE0FC
FFE0FC
FFE0FC
FFE0FC
FFF0FC
FFF0FC
FFF0FC
FFF0FC
FFF8FC
FFF8FC
FEF8FC
FEFCFC
FEFCFC
FEFCFC
FE7CFC
FE7EFC
FE7EFC
FE7EFC
FE3EFC
FE3FFC
FE3FFC
FE3FFC
FE1FFC
FE1FFC
FE1FFC
FE0FFC
FE0FFC
FE0FFC
FE0FFC
FE07FC
FE07FC
FE07FC
FE07FC
FE03FC
FE03FC
FE03FC
FE03FC
FE01FC
FE01FC
ENDCHAR
STARTCHAR nacute
ENCODING 324
SWIDTH 427 0
DWIDTH 26 0
BBX 22 54 2 -1
BITMAP
001FC0
001F80
003F00
003E00
007C00
00F800
00F800
000000
000000
FF80FC
FF80FC
FFC0FC
FFC0FC
FFC0FC
FFC0FC
FFE0FC
FFE0FC
FFE0FC
FFE0FC
FFF0FC
FFF0FC
FFF0FC
FFF0FC
FFF8FC
FFF8FC
FEF8FC
FEFCFC
FEFCFC
FEFCFC
FE7CFC
FE7EFC
FE7EFC
FE7EFC
FE3EFC
FE3FFC
FE3FFC
FE3FFC
FE1FFC
FE1FFC
FE1FFC
FE0FFC
FE0FFC
FE0FFC
FE0FFC
FE07FC
FE07FC
FE07FC
FE07FC
FE03FC
FE03FC
FE03FC
FE03FC
FE01FC
FE01FC
ENDCHAR
STARTCHAR uni0145
ENCODING 325
SWIDTH 427 0
DWIDTH 26 0
BBX 22 56 2 -12
BITMAP
FF80FC
FF80FC
FFC0FC
FFC0FC
FFC0FC
FFC0FC
FFE0FC
FFE0FC
FFE0FC
FFE0FC
FFF0FC
FFF0FC
FFF0FC
FFF0FC
FFF8FC
FFF8FC
FEF8FC
FEFCFC
FEFCFC
FEFCFC
FE7CFC
FE7EFC
FE7EFC
FE7EFC
FE3EFC
FE3FFC
FE3FFC
FE3FFC
FE1FFC
FE1FFC
FE1FFC
FE0FFC
FE0FFC
FE0FFC
FE0FFC
FE07FC
FE07FC
FE07FC
FE07FC
FE03FC
FE03FC
FE03FC
FE03FC
FE01FC
FE01FC
000000
000000
00FC00
00FC00
00FC00
00FC00
00FC00
00FC00
003800
003000
007000
ENDCHAR
STARTCHAR uni0146
ENCODING 326
SWIDTH 427 0
DWIDTH 26 0
BBX 22 56 2 -12
BITMAP
FF80FC
FF80FC
FFC0FC
FFC0FC
FFC0FC
FFC0FC
FFE0FC
FFE0FC
FFE0FC
FFE0FC
FFF0FC
FFF0FC
FFF0FC
FFF0FC
FFF8FC
FFF8FC
FEF8FC
FEFCFC
FEFCFC
FEFCFC
FE7CFC
FE7EFC
FE7EFC
FE7EFC
FE3EFC
FE3FFC
FE3FFC
FE3FFC
FE1FFC
FE1FFC
FE1FFC
FE0FFC
FE0FFC
FE0FFC
FE0FFC
FE07FC
FE07FC
FE07FC
FE07FC
FE03FC
FE03FC
FE03FC
FE03FC
FE01FC
FE01FC
000000
000000
00FC00
00FC00
00FC00
00FC00
00FC00
00FC00
003800
003000
007000
ENDCHAR
STARTCHAR Ncaron
ENCODING 327
SWIDTH 427 0
DWIDTH 26 0
BBX 22 54 2 -1
BITMAP
1F83E0
0FC7E0
07CFC0
07FF80
03FF00
01FE00
00FE00
000000
000000
FF80FC
FF80FC
FFC0FC
FFC0FC
FFC0FC
FFC0FC
FFE0FC
FFE0FC
FFE0FC
FFE0FC
FFF0FC
FFF0FC
FFF0FC
FFF0FC
FFF8FC
FFF8FC
FEF8FC
FEFCFC
FEFCFC
FEFCFC
FE7CFC
FE7EFC
FE7EFC
FE7EFC
FE3EFC
FE3FFC
FE3FFC
FE3FFC
FE1FFC
FE1FFC
FE1FFC
FE0FFC
FE0FFC
FE0FFC
FE0FFC
FE07FC
FE07FC
FE07FC
FE07FC
FE03FC
FE03FC
FE03FC
FE03FC
FE01FC
FE01FC
ENDCHAR
STARTCHAR ncaron
ENCODING 328
SWIDTH 427 0
DWIDTH 26 0
BBX 22 54 2 -1
BITMAP
1F83E0
0FC7E0
07CFC0
07FF80
03FF00
01FE00
00FE00
000000
000000
FF80FC
FF80FC
FFC0FC
FFC0FC
FFC0FC
FFC0FC
FFE0FC
FFE0FC
FFE0FC
FFE0FC
FFF0FC
FFF0FC
FFF0FC
FFF0FC
FFF8FC
FFF8FC
FEF8FC
FEFCFC
FEFCFC
FEFCFC
FE7CFC
FE7EFC
FE7EFC
FE7EFC
FE3EFC
FE3FFC
FE3FFC
FE3FFC
FE1FFC
FE1FFC
FE1FFC
FE0FFC
FE0FFC
FE0FFC
FE0FFC
FE07FC
FE07FC
FE07FC
FE07FC
FE03FC
FE03FC
FE03FC
FE03FC
FE01FC
FE01FC
ENDCHAR
STARTCHAR napostrophe
ENCODING 329
SWIDTH 543 0
DWIDTH 34 0
BBX 31 45 0 -1
BITMAP
FE3FC07E
FE3FE07E
FE3FE07E
FE3FE07E
FE3FE07E
FE3FF07E
FE3FF07E
1C3FF07E
3C3FF07E
383FF87E
383FF87E
383FF87E
703FF87E
003FFC7E
003FFC7E
003F7C7E
003F7C7E
003F7E7E
003F7E7E
003F3E7E
003F3F7E
003F3F7E
003F3F7E
003F1F7E
003F1FFE
003F1FFE
003F1FFE
003F0FFE
003F0FFE
003F0FFE
003F0FFE
003F07FE
003F07FE
003F07FE
003F07FE
003F03FE
003F03FE
003F03FE
003F01FE
003F01FE
003F01FE
003F01FE
003F00FE
003F00FE
003F00FE
ENDCHAR
STARTCHAR Omacron
ENCODING 332
SWIDTH 396 0
DWIDTH 25 0
BBX 21 52 2 -1
BITMAP
1FFF80
1FFF80
1FFF80
1FFF80
1FFF80
000000
000000
03FC00
0FFF00
1FFFC0
3FFFC0
7FFFE0
7FFFF0
7F8FF0
FE07F0
FE03F0
FE03F8
FE03F8
FE03F8
FE03F8
FE03F8
FE03F8
FE03F8
FE03F8
FE03F8
FE03F8
FE03F8
FE03F8
FE03F8
FE03F8
FE03F8
FE03F8
FE03F8
FE03F8
FE03F8
FE03F8
FE03F8
FE03F8
FE03F8
FE03F8
FE03F8
FE03F8
FE03F8
FE03F0
FE07F0
7F8FF0
7FFFF0
7FFFE0
3FFFE0
1FFFC0
0FFF00
01FC00
ENDCHAR
STARTCHAR omacron
ENCODING 333
SWIDTH 396 0
DWIDTH 25 0
BBX 21 52 2 -1
BITMAP
1FFF80
1FFF80
1FFF80
1FFF80
1FFF80
000000
000000
03FC00
0FFF00
1FFFC0
3FFFC0
7FFFE0
7FFFF0
7F8FF0
FE07F0
FE03F0
FE03F8
FE03F8
FE03F8
FE03F8
FE03F8
FE03F8
FE03F8
FE03F8
FE03F8
FE03F8
FE03F8
FE03F8
FE03F8
FE03F8
FE03F8
FE03F8
FE03F8
FE03F8
FE03F8
FE03F8
FE03F8
FE03F8
FE03F8
FE03F8
FE03F8
FE03F8
FE03F8
FE03F0
FE07F0
7F8FF0
7FFFF0
7FFFE0
3FFFE0
1FFFC0
0FFF00
01FC00
ENDCHAR
STARTCHAR Obreve
ENCODING 334
SWIDTH 396 0
DWIDTH 25 0
BBX 21 54 2 -1
BITMAP
1E0780
1F0780
0F0F80
0FFF80
0FFF00
07FE00
01FC00
000000
000000
03FC00
0FFF00
1FFFC0
3FFFC0
7FFFE0
7FFFF0
7F8FF0
FE07F0
FE03F0
FE03F8
FE03F8
FE03F8
FE03F8
FE03F8
FE03F8
FE03F8
FE03F8
FE03F8
FE03F8
FE03F8
FE03F8
FE03F8
FE03F8
FE03F8
FE03F8
FE03F8
FE03F8
FE03F8
FE03F8
FE03F8
FE03F8
FE03F8
FE03F8
FE03F8
FE03F8
FE03F8
FE03F0
FE07F0
7F8FF0
7FFFF0
7FFFE0
3FFFE0
1FFFC0
0FFF00
01FC00
ENDCHAR
STARTCHAR obreve
ENCODING 335
SWIDTH 396 0
DWIDTH 25 0
BBX 21 54 2 -1
BITMAP
1E0780
1F0780
0F0F80
0FFF80
0FFF00
07FE00
01FC00
000000
000000
03FC00
0FFF00
1FFFC0
3FFFC0
7FFFE0
7FFFF0
7F8FF0
FE07F0
FE03F0
FE03F8
FE03F8
FE03F8
FE03F8
FE03F8
FE03F8
FE03F8
FE03F8
FE03F8
FE03F8
FE03F8
FE03F8
FE03F8
FE03F8
FE03F8
FE03F8
FE03F8
FE03F8
FE03F8
FE03F8
FE03F8
FE03F8
FE03F8
FE03F8
FE03F8
FE03F8
FE03F8
FE03F0
FE07F0
7F8FF0
7FFFF0
7FFFE0
3FFFE0
1FFFC0
0FFF00
01FC00
ENDCHAR
STARTCHAR Ohungarumlaut
ENCODING 336
SWIDTH 396 0
DWIDTH 25 0
BBX 21 54 2 -1
BITMAP
03F3F0
03E3E0
07E7E0
07C7C0
0F8F80
0F0F00
1F1F00
000000
000000
03FC00
0FFF00
1FFFC0
3FFFC0
7FFFE0
7FFFF0
7F8FF0
FE07F0
FE03F0
FE03F8
FE03F8
FE03F8
FE03F8
FE03F8
FE03F8
FE03F8
FE03F8
FE03F8
FE03F8
FE03F8
FE03F8
FE03F8
FE03F8
FE03F8
FE03F8
FE03F8
FE03F8
FE03F8
FE03F8
FE03F8
FE03F8
FE03F8
FE03F8
FE03F8
FE03F8
FE03F8
FE03F0
FE07F0
7F8FF0
7FFFF0
7FFFE0
3FFFE0
1FFFC0
0FFF00
01FC00
ENDCHAR
STARTCHAR ohungarumlaut
ENCODING 337
SWIDTH 396 0
DWIDTH 25 0
BBX 21 54 2 -1
BITMAP
03F3F0
03E3E0
07E7E0
07C7C0
0F8F80
0F0F00
1F1F00
000000
000000
03FC00
0FFF00
1FFFC0
3FFFC0
7FFFE0
7FFFF0
7F8FF0
FE07F0
FE03F0
FE03F8
FE03F8
FE03F8
FE03F8
FE03F8
FE03F8
FE03F8
FE03F8
FE03F8
FE03F8
FE03F8
FE03F8
FE03F8
FE03F8
FE03F8
FE03F8
FE03F8
FE03F8
FE03F8
FE03F8
FE03F8
FE03F8
FE03F8
FE03F8
FE03F8
FE03F8
FE03F8
FE03F0
FE07F0
7F8FF0
7FFFF0
7FFFE0
3FFFE0
1FFFC0
0FFF00
01FC00
ENDCHAR
STARTCHAR OE
ENCODING 338
SWIDTH 586 0
DWIDTH 36 0
BBX 33 45 2 -1
BITMAP
03FFFFFF80
0FFFFFFF80
1FFFFFFF80
3FFFFFFF80
7FFFFFFF80
7FFFFFFF80
FF83F80000
FE03F80000
FE03F80000
FE03F80000
FE03F80000
FE03F80000
FE03F80000
FE03F80000
FE03F80000
FE03F80000
FE03F80000
FE03F80000
FE03F80000
FE03FFFC00
FE03FFFC00
FE03FFFC00
FE03FFFC00
FE03FFFC00
FE03FFFC00
FE03F80000
FE03F80000
FE03F80000
FE03F80000
FE03F80000
FE03F80000
FE03F80000
FE03F80000
FE03F80000
FE03F80000
FE03F80000
FE03F80000
FE03F80000
FF83F80000
7FFFFFFF80
7FFFFFFF80
3FFFFFFF80
1FFFFFFF80
0FFFFFFF80
03FFFFFF80
ENDCHAR
STARTCHAR oe
ENCODING 339
SWIDTH 586 0
DWIDTH 36 0
BBX 33 45 2 -1
BITMAP
03FFFFFF80
0FFFFFFF80
1FFFFFFF80
3FFFFFFF80
7FFFFFFF80
7FFFFFFF80
FF83F80000
FE03F80000
FE03F80000
FE03F80000
FE03F80000
FE03F80000
FE03F80000
FE03F80000
FE03F80000
FE03F80000
FE03F80000
FE03F80000
FE03F80000
FE03FFFC00
FE03FFFC00
FE03FFFC00
FE03FFFC00
FE03FFFC00
FE03FFFC00
FE03F80000
FE03F80000
FE03F80000
FE03F80000
FE03F80000
FE03F80000
FE03F80000
FE03F80000
FE03F80000
FE03F80000
FE03F80000
FE03F80000
FE03F80000
FF83F80000
7FFFFFFF80
7FFFFFFF80
3FFFFFFF80
1FFFFFFF80
0FFFFFFF80
03FFFFFF80
ENDCHAR
STARTCHAR Racute
ENCODING 340
SWIDTH 402 0
DWIDTH 25 0
BBX 22 54 2 -1
BITMAP
003F80
003F00
007E00
007C00
00F800
01F000
01E000
000000
000000
FFFE00
FFFF80
FFFFC0
FFFFE0
FFFFF0
FFFFF0
FE0FF8
FE07F8
FE03F8
FE03F8
FE03F8
FE03F8
FE03F8
FE03F8
FE03F8
FE03F8
FE03F8
FE03F0
FE07F0
FE0FF0
FFFFE0
FFFFC0
FFFF80
FFFFC0
FFFFE0
FFFFF0
FE0FF0
FE07F0
FE03F8
FE03F8
FE03F8
FE03F8
FE03F8
FE03F8
FE03F8
FE03F8
FE03F8
FE03F8
FE03F8
FE03F8
FE03F8
FE03F8
FE03F8
FE03F8
FE01FC
ENDCHAR
STARTCHAR racute
ENCODING 341
SWIDTH 402 0
DWIDTH 25 0
BBX 22 54 2 -1
BITMAP
003F80
003F00
007E00
007C00
00F800
01F000
01E000
000000
000000
FFFE00
FFFF80
FFFFC0
FFFFE0
FFFFF0
FFFFF0
FE0FF8
FE07F8
FE03F8
FE03F8
FE03F8
FE03F8
FE03F8
FE03F8
FE03F8
FE03F8
FE03F8
FE03F0
FE07F0
FE0FF0
FFFFE0
FFFFC0
FFFF80
FFFFC0
FFFFE0
FFFFF0
FE0FF0
FE07F0
FE03F8
FE03F8
FE03F8
FE03F8
FE03F8
FE03F8
FE03F8
FE03F8
FE03F8
FE03F8
FE03F8
FE03F8
FE03F8
FE03F8
FE03F8
FE03F8
FE01FC
ENDCHAR
STARTCHAR uni0156
ENCODING 342
SWIDTH 402 0
DWIDTH 25 0
BBX 22 56 2 -12
BITMAP
FFFE00
FFFF80
FFFFC0
FFFFE0
FFFFF0
FFFFF0
FE0FF8
FE07F8
FE03F8
FE03F8
FE03F8
FE03F8
FE03F8
FE03F8
FE03F8
FE03F8
FE03F8
FE03F0
FE07F0
FE0FF0
FFFFE0
FFFFC0
FFFF80
FFFFC0
FFFFE0
FFFFF0
FE0FF0
FE07F0
FE03F8
FE03F8
FE03F8
FE03F8
FE03F8
FE03F8
FE03F8
FE03F8
FE03F8
FE03F8
FE03F8
FE03F8
FE03F8
FE03F8
FE03F8
FE03F8
FE01FC
000000
000000
00F800
00F800
00F800
00F800
00F800
00F800
003000
007000
006000
ENDCHAR
STARTCHAR uni0157
ENCODING 343
SWIDTH 402 0
DWIDTH 25 0
BBX 22 56 2 -12
BITMAP
FFFE00
FFFF80
FFFFC0
FFFFE0
FFFFF0
FFFFF0
FE0FF8
FE07F8
FE03F8
FE03F8
FE03F8
FE03F8
FE03F8
FE03F8
FE03F8
FE03F8
FE03F8
FE03F0
FE07F0
FE0FF0
FFFFE0
FFFFC0
FFFF80
FFFFC0
FFFFE0
FFFFF0
FE0FF0
FE07F0
FE03F8
FE03F8
FE03F8
FE03F8
FE03F8
FE03F8
FE03F8
FE03F8
FE03F8
FE03F8
FE03F8
FE03F8
FE03F8
FE03F8
FE03F8
FE03F8
FE01FC
000000
000000
00F800
00F800
00F800
00F800
00F800
00F800
003000
007000
006000
ENDCHAR
STARTCHAR Rcaron
ENCODING 344
SWIDTH 402 0
DWIDTH 25 0
BBX 22 54 2 -1
BITMAP
3F0FC0
1F0F80
1F9F80
0FFF00
07FE00
03FC00
01F800
000000
000000
FFFE00
FFFF80
FFFFC0
FFFFE0
FFFFF0
FFFFF0
FE0FF8
FE07F8
FE03F8
FE03F8
FE03F8
FE03F8
FE03F8
FE03F8
FE03F8
FE03F8
FE03F8
FE03F0
FE07F0
FE0FF0
FFFFE0
FFFFC0
FFFF80
FFFFC0
FFFFE0
FFFFF0
FE0FF0
FE07F0
FE03F8
FE03F8
FE03F8
FE03F8
FE03F8
FE03F8
FE03F8
FE03F8
FE03F8
FE03F8
FE03F8
FE03F8
FE03F8
FE03F8
FE03F8
FE03F8
FE01FC
ENDCHAR
STARTCHAR rcaron
ENCODING 345
SWIDTH 402 0
DWIDTH 25 0
BBX 22 54 2 -1
BITMAP
3F0FC0
1F0F80
1F9F80
0FFF00
07FE00
03FC00
01F800
000000
000000
FFFE00
FFFF80
FFFFC0
FFFFE0
FFFFF0
FFFFF0
FE0FF8
FE07F8
FE03F8
FE03F8
FE03F8
FE03F8
FE03F8
FE03F8
FE03F8
FE03F8
FE03F8
FE03F0
FE07F0
FE0FF0
FFFFE0
FFFFC0
FFFF80
FFFFC0
FFFFE0
FFFFF0
FE0FF0
FE07F0
FE03F8
FE03F8
FE03F8
FE03F8
FE03F8
FE03F8
FE03F8
FE03F8
FE03F8
FE03F8
FE03F8
FE03F8
FE03F8
FE03F8
FE03F8
FE03F8
FE01FC
ENDCHAR
STARTCHAR Sacute
ENCODING 346
SWIDTH 374 0
DWIDTH 23 0
BBX 21 54 1 -1
BITMAP
001FC0
003F80
003F00
007E00
007C00
00F800
01F000
000000
000000
01FC00
07FF00
1FFFC0
1FFFE0
3FFFE0
3FFFF0
7F8FF0
7F03F0
7F03F8
7E03F8
7E03F8
7E03F8
7F0000
7F0000
7F0000
7F8000
3FC000
3FE000
1FE000
1FF000
0FFC00
07FE00
03FF00
01FF80
00FF80
007FC0
003FE0
001FE0
000FF0
000FF0
0007F0
FE07F8
FE03F8
FE03F8
FE03F8
FE03F8
7E03F8
7F07F0
7F8FF0
7FFFF0
3FFFE0
3FFFE0
1FFFC0
07FF80
01FC00
ENDCHAR
STARTCHAR sacute
ENCODING 347
SWIDTH 374 0
DWIDTH 23 0
BBX 21 54 1 -1
BITMAP
001FC0
003F80
003F00
007E00
007C00
00F800
01F000
000000
000000
01FC00
07FF00
1FFFC0
1FFFE0
3FFFE0
3FFFF0
7F8FF0
7F03F0
7F03F8
7E03F8
7E03F8
7E03F8
7F0000
7F0000
7F0000
7F8000
3FC000
3FE000
1FE000
1FF000
0FFC00
07FE00
03FF00
01FF80
00FF80
007FC0
003FE0
001FE0
000FF0
000FF0
0007F0
FE07F8
FE03F8
FE03F8
FE03F8
FE03F8
7E03F8
7F07F0
7F8FF0
7FFFF0
3FFFE0
3FFFE0
1FFFC0
07FF80
01FC00
ENDCHAR
STARTCHAR Scircumflex
ENCODING 348
SWIDTH 374 0
DWIDTH 23 0
BBX 21 54 1 -1
BITMAP
01FC00
03FE00
03FF00
07FF00
0FDF80
1F8FC0
3F07E0
000000
000000
01FC00
07FF00
1FFFC0
1FFFE0
3FFFE0
3FFFF0
7F8FF0
7F03F0
7F03F8
7E03F8
7E03F8
7E03F8
7F0000
7F0000
7F0000
7F8000
3FC000
3FE000
1FE000
1FF000
0FFC00
07FE00
03FF00
01FF80
00FF80
007FC0
003FE0
001FE0
000FF0
000FF0
0007F0
FE07F8
FE03F8
FE03F8
FE03F8
FE03F8
7E03F8
7F07F0
7F8FF0
7FFFF0
3FFFE0
3FFFE0
1FFFC0
07FF80
01FC00
ENDCHAR
STARTCHAR scircumflex
ENCODING 349
SWIDTH 374 0
DWIDTH 23 0
BBX 21 54 1 -1
BITMAP
01FC00
03FE00
03FF00
07FF00
0FDF80
1F8FC0
3F07E0
000000
000000
01FC00
07FF00
1FFFC0
1FFFE0
3FFFE0
3FFFF0
7F8FF0
7F03F0
7F03F8
7E03F8
7E03F8
7E03F8
7F0000
7F0000
7F0000
7F8000
3FC000
3FE000
1FE000
1FF000
0FFC00
07FE00
03FF00
01FF80
00FF80
007FC0
003FE0
001FE0
000FF0
000FF0
0007F0
FE07F8
FE03F8
FE03F8
FE03F8
FE03F8
7E03F8
7F07F0
7F8FF0
7FFFF0
3FFFE0
3FFFE0
1FFFC0
07FF80
01FC00
ENDCHAR
STARTCHAR Scedilla
ENCODING 350
SWIDTH 374 0
DWIDTH 23 0
BBX 21 54 1 -10
BITMAP
01FC00
07FF00
1FFFC0
1FFFE0
3FFFE0
3FFFF0
7F8FF0
7F03F0
7F03F8
7E03F8
7E03F8
7E03F8
7F0000
7F0000
7F0000
7F8000
3FC000
3FC000
1FE000
1FF000
0FFC00
07FE00
03FF00
01FF80
00FF80
007FC0
003FE0
001FE0
000FF0
000FF0
0007F0
FE07F8
FE03F8
FE03F8
FE03F8
FE03F8
7E03F8
7F07F0
7F8FF0
7FFFF0
3FFFE0
3FFFE0
1FFFC0
0FFF80
01FC00
007000
007000
007E00
001F00
000F00
0F8F00
0FFF00
07FF00
03FC00
ENDCHAR
STARTCHAR scedilla
ENCODING 351
SWIDTH 374 0
DWIDTH 23 0
BBX 21 54 1 -10
BITMAP
01FC00
07FF00
1FFFC0
1FFFE0
3FFFE0
3FFFF0
7F8FF0
7F03F0
7F03F8
7E03F8
7E03F8
7E03F8
7F0000
7F0000
7F0000
7F8000
3FC000
3FC000
1FE000
1FF000
0FFC00
07FE00
03FF00
01FF80
00FF80
007FC0
003FE0
001FE0
000FF0
000FF0
0007F0
FE07F8
FE03F8
FE03F8
FE03F8
FE03F8
7E03F8
7F07F0
7F8FF0
7FFFF0
3FFFE0
3FFFE0
1FFFC0
0FFF80
01FC00
007000
007000
007E00
001F00
000F00
0F8F00
0FFF00
07FF00
03FC00
ENDCHAR
STARTCHAR Scaron
ENCODING 352
SWIDTH 374 0
DWIDTH 23 0
BBX 21 54 1 -1
BITMAP
3F07E0
1F8FC0
0FDF80
07FF80
03FF00
03FE00
01FC00
000000
000000
01FC00
07FF00
1FFFC0
1FFFE0
3FFFE0
3FFFF0
7F8FF0
7F03F0
7F03F8
7E03F8
7E03F8
7E03F8
7F0000
7F0000
7F0000
7F8000
3FC000
3FE000
1FE000
1FF000
0FFC00
07FE00
03FF00
01FF80
00FF80
007FC0
003FE0
001FE0
000FF0
000FF0
0007F0
FE07F8
FE03F8
FE03F8
FE03F8
FE03F8
7E03F8
7F07F0
7F8FF0
7FFFF0
3FFFE0
3FFFE0
1FFFC0
07FF80
01FC00
ENDCHAR
STARTCHAR scaron
ENCODING 353
SWIDTH 374 0
DWIDTH 23 0
BBX 21 54 1 -1
BITMAP
3F07E0
1F8FC0
0FDF80
07DF00
07FF00
03FE00
01FC00
000000
000000
01FC00
07FF00
1FFFC0
1FFFE0
3FFFE0
3FFFF0
7F8FF0
7F03F0
7F03F8
7E03F8
7E03F8
7E03F8
7F0000
7F0000
7F0000
7F8000
3FC000
3FE000
1FE000
1FF000
0FFC00
07FE00
03FF00
01FF80
00FF80
007FC0
003FE0
001FE0
000FF0
000FF0
0007F0
FE07F8
FE03F8
FE03F8
FE03F8
FE03F8
7E03F8
7F07F0
7F8FF0
7FFFF0
3FFFE0
3FFFE0
1FFFC0
07FF80
01FC00
ENDCHAR
STARTCHAR uni0162
ENCODING 354
SWIDTH 356 0
DWIDTH 22 0
BBX 22 56 0 -12
BITMAP
FFFFFC
FFFFFC
FFFFFC
FFFFFC
FFFFFC
FFFFFC
00FC00
00FC00
00FC00
00FC00
00FC00
00FC00
00FC00
00FC00
00FC00
00FC00
00FC00
00FC00
00FC00
00FC00
00FC00
00FC00
00FC00
00FC00
00FC00
00FC00
00FC00
00FC00
00FC00
00FC00
00FC00
00FC00
00FC00
00FC00
00FC00
00FC00
00FC00
00FC00
00FC00
00FC00
00FC00
00FC00
00FC00
00FC00
00FC00
007800
007800
007E00
007F00
000F00
000F00
078F00
03CF00
03FF00
01FE00
00FC00
ENDCHAR
STARTCHAR uni0163
ENCODING 355
SWIDTH 356 0
DWIDTH 22 0
BBX 22 56 0 -12
BITMAP
FFFFFC
FFFFFC
FFFFFC
FFFFFC
FFFFFC
FFFFFC
00FC00
00FC00
00FC00
00FC00
00FC00
00FC00
00FC00
00FC00
00FC00
00FC00
00FC00
00FC00
00FC00
00FC00
00FC00
00FC00
00FC00
00FC00
00FC00
00FC00
00FC00
00FC00
00FC00
00FC00
00FC00
00FC00
00FC00
00FC00
00FC00
00FC00
00FC00
00FC00
00FC00
00FC00
00FC00
00FC00
00FC00
00FC00
00FC00
007800
007800
007E00
007F00
000F00
000F00
078F00
03CF00
03FF00
01FE00
00FC00
ENDCHAR
STARTCHAR Tcaron
ENCODING 356
SWIDTH 356 0
DWIDTH 22 0
BBX 22 54 0 -1
BITMAP
1F87E0
0F87C0
0FCFC0
07FF80
03FF00
01FE00
00FC00
000000
000000
FFFFFC
FFFFFC
FFFFFC
FFFFFC
FFFFFC
FFFFFC
00FC00
00FC00
00FC00
00FC00
00FC00
00FC00
00FC00
00FC00
00FC00
00FC00
00FC00
00FC00
00FC00
00FC00
00FC00
00FC00
00FC00
00FC00
00FC00
00FC00
00FC00
00FC00
00FC00
00FC00
00FC00
00FC00
00FC00
00FC00
00FC00
00FC00
00FC00
00FC00
00FC00
00FC00
00FC00
00FC00
00FC00
00FC00
00FC00
ENDCHAR
STARTCHAR tcaron
ENCODING 357
SWIDTH 356 0
DWIDTH 22 0
BBX 22 54 0 -1
BITMAP
1F87E0
0F87C0
0FCFC0
07FF80
03FF00
01FE00
00FC00
000000
000000
FFFFFC
FFFFFC
FFFFFC
FFFFFC
FFFFFC
FFFFFC
00FC00
00FC00
00FC00
00FC00
00FC00
00FC00
00FC00
00FC00
00FC00
00FC00
00FC00
00FC00
00FC00
00FC00
00FC00
00FC00
00FC00
00FC00
00FC00
00FC00
00FC00
00FC00
00FC00
00FC00
00FC00
00FC00
00FC00
00FC00
00FC00
00FC00
00FC00
00FC00
00FC00
00FC00
00FC00
00FC00
00FC00
00FC00
00FC00
ENDCHAR
STARTCHAR Tbar
ENCODING 358
SWIDTH 356 0
DWIDTH 22 0
BBX 22 45 0 -1
BITMAP
FFFFFC
FFFFFC
FFFFFC
FFFFFC
FFFFFC
FFFFFC
00FC00
00FC00
00FC00
00FC00
00FC00
00FC00
00FC00
00FC00
0FFFE0
0FFFE0
0FFFE0
0FFFE0
0FFFE0
00FC00
00FC00
00FC00
00FC00
00FC00
00FC00
00FC00
00FC00
00FC00
00FC00
00FC00
00FC00
00FC00
00FC00
00FC00
00FC00
00FC00
00FC00
00FC00
00FC00
00FC00
00FC00
00FC00
00FC00
00FC00
00FC00
ENDCHAR
STARTCHAR tbar
ENCODING 359
SWIDTH 356 0
DWIDTH 22 0
BBX 22 45 0 -1
BITMAP
FFFFFC
FFFFFC
FFFFFC
FFFFFC
FFFFFC
FFFFFC
00FC00
00FC00
00FC00
00FC00
00FC00
00FC00
00FC00
00FC00
0FFFE0
0FFFE0
0FFFE0
0FFFE0
0FFFE0
00FC00
00FC00
00FC00
00FC00
00FC00
00FC00
00FC00
00FC00
00FC00
00FC00
00FC00
00FC00
00FC00
00FC00
00FC00
00FC00
00FC00
00FC00
00FC00
00FC00
00FC00
00FC00
00FC00
00FC00
00FC00
00FC00
ENDCHAR
STARTCHAR Utilde
ENCODING 360
SWIDTH 398 0
DWIDTH 25 0
BBX 21 53 2 0
BITMAP
038100
0FE180
1FFFE0
3FFFC0
3FFFC0
1C3F80
000E00
000000
000000
FE03F8
FE03F8
FE03F8
FE03F8
FE03F8
FE03F8
FE03F8
FE03F8
FE03F8
FE03F8
FE03F8
FE03F8
FE03F8
FE03F8
FE03F8
FE03F8
FE03F8
FE03F8
FE03F8
FE03F8
FE03F8
FE03F8
FE03F8
FE03F8
FE03F8
FE03F8
FE03F8
FE03F8
FE03F8
FE03F8
FE03F8
FE03F8
FE03F8
FE03F0
FE03F0
FE03F0
FF07F0
7F07F0
7FFFF0
7FFFE0
3FFFE0
1FFFC0
0FFF80
03FE00
ENDCHAR
STARTCHAR utilde
ENCODING 361
SWIDTH 398 0
DWIDTH 25 0
BBX 21 53 2 0
BITMAP
038100
0FE180
1FFFE0
3FFFC0
3FFFC0
1C3F80
000E00
000000
000000
FE03F8
FE03F8
FE03F8
FE03F8
FE03F8
FE03F8
FE03F8
FE03F8
FE03F8
FE03F8
FE03F8
FE03F8
FE03F8
FE03F8
FE03F8
FE03F8
FE03F8
FE03F8
FE03F8
FE03F8
FE03F8
FE03F8
FE03F8
FE03F8
FE03F8
FE03F8
FE03F8
FE03F8
FE03F8
FE03F8
FE03F8
FE03F8
FE03F8
FE03F0
FE03F0
FE03F0
FF07F0
7F07F0
7FFFF0
7FFFE0
3FFFE0
1FFFC0
0FFF80
03FE00
ENDCHAR
STARTCHAR Umacron
ENCODING 362
SWIDTH 398 0
DWIDTH 25 0
BBX 21 51 2 0
BITMAP
1FFFC0
1FFFC0
1FFFC0
1FFFC0
1FFFC0
000000
000000
FE03F8
FE03F8
FE03F8
FE03F8
FE03F8
FE03F8
FE03F8
FE03F8
FE03F8
FE03F8
FE03F8
FE03F8
FE03F8
FE03F8
FE03F8
FE03F8
FE03F8
FE03F8
FE03F8
FE03F8
FE03F8
FE03F8
FE03F8
FE03F8
FE03F8
FE03F8
FE03F8
FE03F8
FE03F8
FE03F8
FE03F8
FE03F8
FE03F8
FE03F0
FE03F0
FE03F0
FF07F0
7F07F0
7FFFF0
7FFFE0
3FFFE0
1FFFC0
0FFF80
03FE00
ENDCHAR
STARTCHAR umacron
ENCODING 363
SWIDTH 398 0
DWIDTH 25 0
BBX 21 51 2 0
BITMAP
1FFFC0
1FFFC0
1FFFC0
1FFFC0
1FFFC0
000000
000000
FE03F8
FE03F8
FE03F8
FE03F8
FE03F8
FE03F8
FE03F8
FE03F8
FE03F8
FE03F8
FE03F8
FE03F8
FE03F8
FE03F8
FE03F8
FE03F8
FE03F8
FE03F8
FE03F8
FE03F8
FE03F8
FE03F8
FE03F8
FE03F8
FE03F8
FE03F8
FE03F8
FE03F8
FE03F8
FE03F8
FE03F8
FE03F8
FE03F8
FE03F0
FE03F0
FE03F0
FF07F0
7F07F0
7FFFF0
7FFFE0
3FFFE0
1FFFC0
0FFF80
03FE00
ENDCHAR
STARTCHAR Ubreve
ENCODING 364
SWIDTH 398 0
DWIDTH 25 0
BBX 21 53 2 0
BITMAP
1F0780
0F0780
0F8F80
0FFF80
07FF00
03FE00
01F800
000000
000000
FE03F8
FE03F8
FE03F8
FE03F8
FE03F8
FE03F8
FE03F8
FE03F8
FE03F8
FE03F8
FE03F8
FE03F8
FE03F8
FE03F8
FE03F8
FE03F8
FE03F8
FE03F8
FE03F8
FE03F8
FE03F8
FE03F8
FE03F8
FE03F8
FE03F8
FE03F8
FE03F8
FE03F8
FE03F8
FE03F8
FE03F8
FE03F8
FE03F8
FE03F0
FE03F0
FE03F0
FF07F0
7F07F0
7FFFF0
7FFFE0
3FFFE0
1FFFC0
0FFF80
03FE00
ENDCHAR
STARTCHAR ubreve
ENCODING 365
SWIDTH 398 0
DWIDTH 25 0
BBX 21 53 2 0
BITMAP
1F0780
0F0780
0F8F80
0FFF80
07FF00
03FE00
01F800
000000
000000
FE03F8
FE03F8
FE03F8
FE03F8
FE03F8
FE03F8
FE03F8
FE03F8
FE03F8
FE03F8
FE03F8
FE03F8
FE03F8
FE03F8
FE03F8
FE03F8
FE03F8
FE03F8
FE03F8
FE03F8
FE03F8
FE03F8
FE03F8
FE03F8
FE03F8
FE03F8
FE03F8
FE03F8
FE03F8
FE03F8
FE03F8
FE03F8
FE03F8
FE03F0
FE03F0
FE03F0
FF07F0
7F07F0
7FFFF0
7FFFE0
3FFFE0
1FFFC0
0FFF80
03FE00
ENDCHAR
STARTCHAR Uring
ENCODING 366
SWIDTH 398 0
DWIDTH 25 0
BBX 21 56 2 0
BITMAP
00F800
01FC00
03FE00
039E00
078E00
078E00
039E00
03FE00
01FC00
00F800
000000
000000
FE03F8
FE03F8
FE03F8
FE03F8
FE03F8
FE03F8
FE03F8
FE03F8
FE03F8
FE03F8
FE03F8
FE03F8
FE03F8
FE03F8
FE03F8
FE03F8
FE03F8
FE03F8
FE03F8
FE03F8
FE03F8
FE03F8
FE03F8
FE03F8
FE03F8
FE03F8
FE03F8
FE03F8
FE03F8
FE03F8
FE03F8
FE03F8
FE03F8
FE03F0
FE03F0
FE03F0
FF07F0
7F07F0
7FFFF0
7FFFE0
3FFFE0
1FFFC0
0FFF80
03FE00
ENDCHAR
STARTCHAR uring
ENCODING 367
SWIDTH 398 0
DWIDTH 25 0
BBX 21 56 2 0
BITMAP
00F800
01FC00
03FE00
039E00
078E00
078E00
039E00
03FE00
01FC00
00F800
000000
000000
FE03F8
FE03F8
FE03F8
FE03F8
FE03F8
FE03F8
FE03F8
FE03F8
FE03F8
FE03F8
FE03F8
FE03F8
FE03F8
FE03F8
FE03F8
FE03F8
FE03F8
FE03F8
FE03F8
FE03F8
FE03F8
FE03F8
FE03F8
FE03F8
FE03F8
FE03F8
FE03F8
FE03F8
FE03F8
FE03F8
FE03F8
FE03F8
FE03F8
FE03F0
FE03F0
FE03F0
FF07F0
7F07F0
7FFFF0
7FFFE0
3FFFE0
1FFFC0
0FFF80
03FE00
ENDCHAR
STARTCHAR Uhungarumlaut
ENCODING 368
SWIDTH 398 0
DWIDTH 25 0
BBX 21 53 2 0
BITMAP
03F3F0
03E3E0
07E7E0
07C7C0
0F8F80
0F0F00
1F1F00
000000
000000
FE03F8
FE03F8
FE03F8
FE03F8
FE03F8
FE03F8
FE03F8
FE03F8
FE03F8
FE03F8
FE03F8
FE03F8
FE03F8
FE03F8
FE03F8
FE03F8
FE03F8
FE03F8
FE03F8
FE03F8
FE03F8
FE03F8
FE03F8
FE03F8
FE03F8
FE03F8
FE03F8
FE03F8
FE03F8
FE03F8
FE03F8
FE03F8
FE03F8
FE03F0
FE03F0
FE03F0
FF07F0
7F07F0
7FFFF0
7FFFE0
3FFFE0
1FFFC0
0FFF80
03FE00
ENDCHAR
STARTCHAR uhungarumlaut
ENCODING 369
SWIDTH 398 0
DWIDTH 25 0
BBX 21 53 2 0
BITMAP
03F3F0
03E3E0
07E7E0
07C7C0
0F8F80
0F0F00
1F1F00
000000
000000
FE03F8
FE03F8
FE03F8
FE03F8
FE03F8
FE03F8
FE03F8
FE03F8
FE03F8
FE03F8
FE03F8
FE03F8
FE03F8
FE03F8
FE03F8
FE03F8
FE03F8
FE03F8
FE03F8
FE03F8
FE03F8
FE03F8
FE03F8
FE03F8
FE03F8
FE03F8
FE03F8
FE03F8
FE03F8
FE03F8
FE03F8
FE03F8
FE03F8
FE03F0
FE03F0
FE03F0
FF07F0
7F07F0
7FFFF0
7FFFE0
3FFFE0
1FFFC0
0FFF80
03FE00
ENDCHAR
STARTCHAR Uogonek
ENCODING 370
SWIDTH 398 0
DWIDTH 25 0
BBX 21 54 2 -10
BITMAP
FE03F8
FE03F8
FE03F8
FE03F8
FE03F8
FE03F8
FE03F8
FE03F8
FE03F8
FE03F8
FE03F8
FE03F8
FE03F8
FE03F8
FE03F8
FE03F8
FE03F8
FE03F8
FE03F8
FE03F8
FE03F8
FE03F8
FE03F8
FE03F8
FE03F8
FE03F8
FE03F8
FE03F8
FE03F8
FE03F8
FE03F8
FE03F8
FE03F8
FE03F8
FE03F0
FE03F0
FE03F0
FF07F0
7F0FF0
7FFFF0
7FFFE0
3FFFE0
1FFFC0
0FFF80
03FF00
000E00
001E00
003E00
003E00
007E00
007FE0
003FE0
003FE0
000FC0
ENDCHAR
STARTCHAR uogonek
ENCODING 371
SWIDTH 398 0
DWIDTH 25 0
BBX 21 54 2 -10
BITMAP
FE03F8
FE03F8
FE03F8
FE03F8
FE03F8
FE03F8
FE03F8
FE03F8
FE03F8
FE03F8
FE03F8
FE03F8
FE03F8
FE03F8
FE03F8
FE03F8
FE03F8
FE03F8
FE03F8
FE03F8
FE03F8
FE03F8
FE03F8
FE03F8
FE03F8
FE03F8
FE03F8
FE03F8
FE03F8
FE03F8
FE03F8
FE03F8
FE03F8
FE03F8
FE03F0
FE03F0
FE03F0
FF07F0
7F0FF0
7FFFF0
7FFFE0
3FFFE0
1FFFC0
0FFF80
03FF00
000E00
001E00
003E00
003E00
007E00
007FE0
003FE0
003FE0
000FC0
ENDCHAR
STARTCHAR Wcircumflex
ENCODING 372
SWIDTH 563 0
DWIDTH 35 0
BBX 33 54 1 -1
BITMAP
0007F00000
000FF80000
001FFC0000
001FFC0000
003F7E0000
007E3F0000
00FC1F8000
0000000000
0000000000
FE07F01F80
FE07F01F80
FE07F01F80
FE07F01F80
FE07F81F00
FE07F83F00
7E07F83F00
7E07F83F00
7E07F83F00
7F07F83F00
7F07F83F00
7F0FF83F00
7F0FF83F00
7F0FF83F00
7F0FF83E00
3F0FFC3E00
3F0FFC7E00
3F0FFC7E00
3F0FFC7E00
3F8FFC7E00
3F8FFC7E00
3F8FFC7E00
3F9F7C7E00
3F9F7C7C00
1F9F7C7C00
1F9F7E7C00
1F9F7EFC00
1F9F7EFC00
1F9F7EFC00
1FDF7EFC00
1FDF3EFC00
1FDF3EFC00
1FDE3EF800
0FFE3EF800
0FFE3EF800
0FFE3EF800
0FFE3FF800
0FFE3FF800
0FFE3FF800
0FFE3FF800
0FFE1FF800
0FFC1FF000
0FFC1FF000
07FC1FF000
07FC1FF000
ENDCHAR
STARTCHAR wcircumflex
ENCODING 373
SWIDTH 563 0
DWIDTH 35 0
BBX 33 54 1 -1
BITMAP
0007F00000
000FF80000
001FFC0000
001FFC0000
003F7E0000
007E3F0000
00FC1F8000
0000000000
0000000000
FE07F01F80
FE07F01F80
FE07F01F80
FE07F01F80
FE07F81F00
FE07F83F00
7E07F83F00
7E07F83F00
7E07F83F00
7F07F83F00
7F07F83F00
7F0FF83F00
7F0FF83F00
7F0FF83F00
7F0FF83E00
3F0FFC3E00
3F0FFC7E00
3F0FFC7E00
3F0FFC7E00
3F8FFC7E00
3F8FFC7E00
3F8FFC7E00
3F9F7C7E00
3F9F7C7C00
1F9F7C7C00
1F9F7E7C00
1F9F7EFC00
1F9F7EFC00
1F9F7EFC00
1FDF7EFC00
1FDF3EFC00
1FDF3EFC00
1FDE3EF800
0FFE3EF800
0FFE3EF800
0FFE3EF800
0FFE3FF800
0FFE3FF800
0FFE3FF800
0FFE3FF800
0FFE1FF800
0FFC1FF000
0FFC1FF000
07FC1FF000
07FC1FF000
ENDCHAR
STARTCHAR Ycircumflex
ENCODING 374
SWIDTH 396 0
DWIDTH 25 0
BBX 24 54 0 -1
BITMAP
007F00
00FF80
01FFC0
01FFC0
03F7E0
07E3F0
0FC1F8
000000
000000
FF003F
7F007F
7F007F
7F007E
3F807E
3F80FE
3F80FC
3F80FC
1FC0FC
1FC1FC
1FC1F8
0FC1F8
0FE1F8
0FE3F0
0FE3F0
07E3F0
07F3F0
07F7E0
03F7E0
03F7E0
03FFC0
03FFC0
01FFC0
01FFC0
01FF80
00FF80
00FF80
00FF00
00FF00
007F00
007F00
007F00
007F00
007F00
007F00
007F00
007F00
007F00
007F00
007F00
007F00
007F00
007F00
007F00
007F00
ENDCHAR
STARTCHAR ycircumflex
ENCODING 375
SWIDTH 396 0
DWIDTH 25 0
BBX 24 54 0 -1
BITMAP
007F00
00FF80
01FFC0
01FFC0
03F7E0
07E3F0
0FC1F8
000000
000000
FF003F
7F007F
7F007F
7F007E
3F807E
3F80FE
3F80FC
3F80FC
1FC0FC
1FC1FC
1FC1F8
0FC1F8
0FE1F8
0FE3F0
0FE3F0
07E3F0
07F3F0
07F7E0
03F7E0
03F7E0
03FFC0
03FFC0
01FFC0
01FFC0
01FF80
00FF80
00FF80
00FF00
00FF00
007F00
007F00
007F00
007F00
007F00
007F00
007F00
007F00
007F00
007F00
007F00
007F00
007F00
007F00
007F00
007F00
ENDCHAR
STARTCHAR Ydieresis
ENCODING 376
SWIDTH 396 0
DWIDTH 25 0
BBX 24 53 0 -1
BITMAP
07E3F0
07E3F0
07E3F0
07E3F0
07E3F0
07E3F0
000000
000000
FF003F
7F007F
7F007F
7F007E
3F807E
3F80FE
3F80FC
3F80FC
1FC0FC
1FC1FC
1FC1F8
0FC1F8
0FE1F8
0FE3F0
0FE3F0
07E3F0
07F3F0
07F7E0
03F7E0
03F7E0
03FFC0
03FFC0
01FFC0
01FFC0
01FF80
00FF80
00FF80
00FF00
00FF00
007F00
007F00
007F00
007F00
007F00
007F00
007F00
007F00
007F00
007F00
007F00
007F00
007F00
007F00
007F00
007F00
ENDCHAR
STARTCHAR Zacute
ENCODING 377
SWIDTH 370 0
DWIDTH 23 0
BBX 20 54 1 -1
BITMAP
001F80
003F00
003F00
007E00
00FC00
00F800
01F000
000000
000000
7FFFF0
7FFFF0
7FFFF0
7FFFF0
7FFFF0
7FFFF0
0007F0
0007F0
000FE0
000FE0
000FE0
001FC0
001FC0
003F80
003F80
003F80
007F00
007F00
007E00
00FE00
00FE00
01FC00
01FC00
01F800
03F800
03F800
07F000
07F000
07F000
0FE000
0FE000
1FC000
1FC000
1FC000
3F8000
3F8000
7F0000
7F0000
7F0000
FFFFF0
FFFFF0
FFFFF0
FFFFF0
FFFFF0
FFFFF0
ENDCHAR
STARTCHAR zacute
ENCODING 378
SWIDTH 370 0
DWIDTH 23 0
BBX 20 54 1 -1
BITMAP
001F80
003F00
003F00
007E00
00FC00
00F800
01F000
000000
000000
7FFFF0
7FFFF0
7FFFF0
7FFFF0
7FFFF0
7FFFF0
0007F0
0007F0
000FE0
000FE0
000FE0
001FC0
001FC0
003F80
003F80
003F80
007F00
007F00
007E00
00FE00
00FE00
01FC00
01FC00
01F800
03F800
03F800
07F000
07F000
07F000
0FE000
0FE000
1FC000
1FC000
1FC000
3F8000
3F8000
7F0000
7F0000
7F0000
FFFFF0
FFFFF0
FFFFF0
FFFFF0
FFFFF0
FFFFF0
ENDCHAR
STARTCHAR Zdotaccent
ENCODING 379
SWIDTH 370 0
DWIDTH 23 0
BBX 20 53 1 -1
BITMAP
00FC00
00FC00
00FC00
00FC00
00FC00
00FC00
000000
000000
7FFFF0
7FFFF0
7FFFF0
7FFFF0
7FFFF0
7FFFF0
0007F0
0007F0
000FE0
000FE0
000FE0
001FC0
001FC0
003F80
003F80
003F80
007F00
007F00
007E00
00FE00
00FE00
01FC00
01FC00
01F800
03F800
03F800
07F000
07F000
07F000
0FE000
0FE000
1FC000
1FC000
1FC000
3F8000
3F8000
7F0000
7F0000
7F0000
FFFFF0
FFFFF0
FFFFF0
FFFFF0
FFFFF0
FFFFF0
ENDCHAR
STARTCHAR zdotaccent
ENCODING 380
SWIDTH 370 0
DWIDTH 23 0
BBX 20 53 1 -1
BITMAP
00FC00
00FC00
00FC00
00FC00
00FC00
00FC00
000000
000000
7FFFF0
7FFFF0
7FFFF0
7FFFF0
7FFFF0
7FFFF0
0007F0
0007F0
000FE0
000FE0
000FE0
001FC0
001FC0
003F80
003F80
003F80
007F00
007F00
007E00
00FE00
00FE00
01FC00
01FC00
01F800
03F800
03F800
07F000
07F000
07F000
0FE000
0FE000
1FC000
1FC000
1FC000
3F8000
3F8000
7F0000
7F0000
7F0000
FFFFF0
FFFFF0
FFFFF0
FFFFF0
FFFFF0
FFFFF0
ENDCHAR
STARTCHAR Zcaron
ENCODING 381
SWIDTH 370 0
DWIDTH 23 0
BBX 20 54 1 -1
BITMAP
3F07E0
1F8FC0
0FDF80
07FF00
03FF00
03FE00
01FC00
000000
000000
7FFFF0
7FFFF0
7FFFF0
7FFFF0
7FFFF0
7FFFF0
0007F0
0007F0
000FE0
000FE0
000FE0
001FC0
001FC0
003F80
003F80
003F80
007F00
007F00
007E00
00FE00
00FE00
01FC00
01FC00
01F800
03F800
03F800
07F000
07F000
07F000
0FE000
0FE000
1FC000
1FC000
1FC000
3F8000
3F8000
7F0000
7F0000
7F0000
FFFFF0
FFFFF0
FFFFF0
FFFFF0
FFFFF0
FFFFF0
ENDCHAR
STARTCHAR zcaron
ENCODING 382
SWIDTH 370 0
DWIDTH 23 0
BBX 20 54 1 -1
BITMAP
3F07E0
1F8FC0
0FDF80
07FF00
03FF00
03FE00
01FC00
000000
000000
7FFFF0
7FFFF0
7FFFF0
7FFFF0
7FFFF0
7FFFF0
0007F0
0007F0
000FE0
000FE0
000FE0
001FC0
001FC0
003F80
003F80
003F80
007F00
007F00
007E00
00FE00
00FE00
01FC00
01FC00
01F800
03F800
03F800
07F000
07F000
07F000
0FE000
0FE000
1FC000
1FC000
1FC000
3F8000
3F8000
7F0000
7F0000
7F0000
FFFFF0
FFFFF0
FFFFF0
FFFFF0
FFFFF0
FFFFF0
ENDCHAR
STARTCHAR AEacute
ENCODING 508
SWIDTH 580 0
DWIDTH 36 0
BBX 34 54 0 -1
BITMAP
00003F8000
00003F0000
00007E0000
0000FC0000
0000F80000
0001F00000
0001E00000
0000000000
0000000000
000FFFFFC0
001FFFFFC0
001FFFFFC0
001FFFFFC0
001FFFFFC0
003FFFFFC0
003FFC0000
003FFC0000
003FFC0000
007EFC0000
007EFC0000
007EFC0000
007EFC0000
00FEFC0000
00FCFC0000
00FCFC0000
00FCFC0000
01FCFC0000
01F8FC0000
01F8FFFF00
01F8FFFF00
03F8FFFF00
03F0FFFF00
03F0FFFF00
03F0FFFF00
07F0FC0000
07E0FC0000
07E0FC0000
0FE0FC0000
0FE0FC0000
0FC0FC0000
0FFFFC0000
1FFFFC0000
1FFFFC0000
1FFFFC0000
1FFFFC0000
3FFFFC0000
3F80FC0000
3F00FC0000
3F00FFFFC0
7F00FFFFC0
7F00FFFFC0
7E00FFFFC0
7E00FFFFC0
FE00FFFFC0
ENDCHAR
STARTCHAR aeacute
ENCODING 509
SWIDTH 580 0
DWIDTH 36 0
BBX 34 54 0 -1
BITMAP
00003F8000
00003F0000
00007E0000
0000FC0000
0000F80000
0001F00000
0001E00000
0000000000
0000000000
000FFFFFC0
001FFFFFC0
001FFFFFC0
001FFFFFC0
001FFFFFC0
003FFFFFC0
003FFC0000
003FFC0000
003FFC0000
007EFC0000
007EFC0000
007EFC0000
007EFC0000
00FEFC0000
00FCFC0000
00FCFC0000
00FCFC0000
01FCFC0000
01F8FC0000
01F8FFFF00
01F8FFFF00
03F8FFFF00
03F0FFFF00
03F0FFFF00
03F0FFFF00
07F0FC0000
07E0FC0000
07E0FC0000
0FE0FC0000
0FE0FC0000
0FC0FC0000
0FFFFC0000
1FFFFC0000
1FFFFC0000
1FFFFC0000
1FFFFC0000
3FFFFC0000
3F80FC0000
3F00FC0000
3F00FFFFC0
7F00FFFFC0
7F00FFFFC0
7E00FFFFC0
7E00FFFFC0
FE00FFFFC0
ENDCHAR
STARTCHAR Oslashacute
ENCODING 510
SWIDTH 396 0
DWIDTH 25 0
BBX 21 56 2 -3
BITMAP
001F80
003F00
007E00
007C00
00FC00
00F800
01F000
000020
000070
03FC60
0FFF60
1FFFE0
3FFFC0
7FFFE0
7FFFF0
7F8FF0
FE07F0
FE07F0
FE03F8
FE07F8
FE07F8
FE07F8
FE0FF8
FE0FF8
FE1FF8
FE1FF8
FE1BF8
FE3BF8
FE3BF8
FE33F8
FE73F8
FE73F8
FE63F8
FEE3F8
FEC3F8
FEC3F8
FFC3F8
FF83F8
FF83F8
FF83F8
FF03F8
FF03F8
FF03F8
FE03F8
FE03F8
FE03F0
FE07F0
FF8FF0
7FFFF0
7FFFE0
3FFFE0
3FFFC0
7FFF00
73FC00
600000
200000
ENDCHAR
STARTCHAR oslashacute
ENCODING 511
SWIDTH 396 0
DWIDTH 25 0
BBX 21 56 2 -3
BITMAP
001F80
003F00
007E00
007C00
00FC00
00F800
01F000
000020
000070
03FC60
0FFF60
1FFFE0
3FFFC0
7FFFE0
7FFFF0
7F8FF0
FE07F0
FE07F0
FE03F8
FE07F8
FE07F8
FE07F8
FE0FF8
FE0FF8
FE1FF8
FE1FF8
FE1BF8
FE3BF8
FE3BF8
FE33F8
FE73F8
FE73F8
FE63F8
FEE3F8
FEC3F8
FEC3F8
FFC3F8
FF83F8
FF83F8
FF83F8
FF03F8
FF03F8
FF03F8
FE03F8
FE03F8
FE03F0
FE07F0
FF8FF0
7FFFF0
7FFFE0
3FFFE0
3FFFC0
7FFF00
73FC00
600000
200000
ENDCHAR
STARTCHAR uni0218
ENCODING 536
SWIDTH 374 0
DWIDTH 23 0
BBX 21 55 1 -11
BITMAP
01FC00
07FF00
1FFFC0
1FFFE0
3FFFE0
3FFFF0
7F8FF0
7F03F0
7F03F8
7E03F8
7E03F8
7E03F8
7F0000
7F0000
7F0000
7F8000
3FC000
3FE000
1FE000
1FF000
0FFC00
07FE00
03FF00
01FF80
00FF80
007FC0
003FE0
001FE0
000FF0
000FF0
0007F0
FE07F8
FE03F8
FE03F8
FE03F8
FE03F8
7E03F8
7F07F0
7F8FF0
7FFFF0
3FFFE0
3FFFE0
1FFFC0
07FF80
01FC00
000000
00F800
00F800
00F800
00F800
00F800
00F800
003800
007000
006000
ENDCHAR
STARTCHAR uni0219
ENCODING 537
SWIDTH 374 0
DWIDTH 23 0
BBX 21 55 1 -11
BITMAP
01FC00
07FF00
1FFFC0
1FFFE0
3FFFE0
3FFFF0
7F8FF0
7F03F0
7F03F8
7E03F8
7E03F8
7E03F8
7F0000
7F0000
7F0000
7F8000
3FC000
3FE000
1FE000
1FF000
0FFC00
07FE00
03FF00
01FF80
00FF80
007FC0
003FE0
001FE0
000FF0
000FF0
0007F0
FE07F8
FE03F8
FE03F8
FE03F8
FE03F8
7E03F8
7F07F0
7F8FF0
7FFFF0
3FFFE0
3FFFE0
1FFFC0
07FF80
01FC00
000000
00F800
00F800
00F800
00F800
00F800
00F800
003800
007000
006000
ENDCHAR
STARTCHAR uni021A
ENCODING 538
SWIDTH 356 0
DWIDTH 22 0
BBX 22 56 0 -12
BITMAP
FFFFFC
FFFFFC
FFFFFC
FFFFFC
FFFFFC
FFFFFC
00FC00
00FC00
00FC00
00FC00
00FC00
00FC00
00FC00
00FC00
00FC00
00FC00
00FC00
00FC00
00FC00
00FC00
00FC00
00FC00
00FC00
00FC00
00FC00
00FC00
00FC00
00FC00
00FC00
00FC00
00FC00
00FC00
00FC00
00FC00
00FC00
00FC00
00FC00
00FC00
00FC00
00FC00
00FC00
00FC00
00FC00
00FC00
00FC00
000000
000000
00FC00
00FC00
00FC00
00FC00
00FC00
00FC00
003800
003000
007000
ENDCHAR
STARTCHAR uni021B
ENCODING 539
SWIDTH 356 0
DWIDTH 22 0
BBX 22 56 0 -12
BITMAP
FFFFFC
FFFFFC
FFFFFC
FFFFFC
FFFFFC
FFFFFC
00FC00
00FC00
00FC00
00FC00
00FC00
00FC00
00FC00
00FC00
00FC00
00FC00
00FC00
00FC00
00FC00
00FC00
00FC00
00FC00
00FC00
00FC00
00FC00
00FC00
00FC00
00FC00
00FC00
00FC00
00FC00
00FC00
00FC00
00FC00
00FC00
00FC00
00FC00
00FC00
00FC00
00FC00
00FC00
00FC00
00FC00
00FC00
00FC00
000000
000000
00FC00
00FC00
00FC00
00FC00
00FC00
00FC00
003800
003000
007000
ENDCHAR
STARTCHAR uni0237
ENCODING 567
SWIDTH 256 0
DWIDTH 16 0
BBX 13 45 1 -1
BITMAP
03F8
03F8
03F8
03F8
03F8
03F8
03F8
03F8
03F8
03F8
03F8
03F8
03F8
03F8
03F8
03F8
03F8
03F8
03F8
03F8
03F8
03F8
03F8
03F8
03F8
03F8
03F8
03F8
03F8
03F8
03F8
03F8
03F8
03F8
03F8
03F8
03F8
07F0
0FF0
FFF0
FFE0
FFE0
FFC0
FF80
FE00
ENDCHAR
STARTCHAR uni02BC
ENCODING 700
SWIDTH 186 0
DWIDTH 12 0
BBX 7 13 2 31
BITMAP
FE
FE
FE
FE
FE
FE
FE
1C
1C
38
38
38
70
ENDCHAR
STARTCHAR circumflex
ENCODING 710
SWIDTH 250 0
DWIDTH 16 0
BBX 16 7 0 46
BITMAP
0FE0
0FF0
1FF8
3FFC
7EFC
FC7E
F83F
ENDCHAR
STARTCHAR caron
ENCODING 711
SWIDTH 250 0
DWIDTH 16 0
BBX 17 7 -1 46
BITMAP
FC1F80
7E3F00
3F3E00
1FFE00
0FFC00
0FF800
07F000
ENDCHAR
STARTCHAR breve
ENCODING 728
SWIDTH 250 0
DWIDTH 16 0
BBX 14 7 1 46
BITMAP
F03C
F07C
F878
FFF8
7FF8
3FF0
1FC0
ENDCHAR
STARTCHAR dotaccent
ENCODING 729
SWIDTH 250 0
DWIDTH 16 0
BBX 6 6 5 46
BITMAP
FC
FC
FC
FC
FC
FC
ENDCHAR
STARTCHAR ring
ENCODING 730
SWIDTH 250 0
DWIDTH 16 0
BBX 10 9 3 46
BITMAP
3E00
7F00
FF80
E3C0
E1C0
E3C0
FF80
7F00
3E00
ENDCHAR
STARTCHAR ogonek
ENCODING 731
SWIDTH 250 0
DWIDTH 16 0
BBX 10 9 3 -9
BITMAP
1E00
3C00
7800
F800
F800
FFC0
FFC0
7FC0
3F80
ENDCHAR
STARTCHAR tilde
ENCODING 732
SWIDTH 250 0
DWIDTH 16 0
BBX 16 6 0 46
BITMAP
3E0C
7FFF
FFFF
FFFE
FFFE
60F8
ENDCHAR
STARTCHAR hungarumlaut
ENCODING 733
SWIDTH 250 0
DWIDTH 16 0
BBX 17 7 -1 46
BITMAP
3F3F80
3F3F00
7E3E00
7C7C00
787C00
F8F800
F0F000
ENDCHAR
STARTCHAR uni0401
ENCODING 1025
SWIDTH 368 0
DWIDTH 23 0
BBX 19 53 2 -1
BITMAP
3F1F80
3F1F80
3F1F80
3F1F80
3F1F80
3F1F80
000000
000000
FFFFE0
FFFFE0
FFFFE0
FFFFE0
FFFFE0
FFFFE0
FE0000
FE0000
FE0000
FE0000
FE0000
FE0000
FE0000
FE0000
FE0000
FE0000
FE0000
FE0000
FE0000
FFFF80
FFFF80
FFFF80
FFFF80
FFFF80
FFFF80
FE0000
FE0000
FE0000
FE0000
FE0000
FE0000
FE0000
FE0000
FE0000
FE0000
FE0000
FE0000
FE0000
FE0000
FFFFE0
FFFFE0
FFFFE0
FFFFE0
FFFFE0
FFFFE0
ENDCHAR
STARTCHAR uni0410
ENCODING 1040
SWIDTH 407 0
DWIDTH 25 0
BBX 23 45 1 -1
BITMAP
01FF80
03FF80
03FF80
03FF80
03FF80
03FF80
03FFC0
07FFC0
07FFC0
07EFC0
07EFC0
07EFC0
07EFE0
07CFE0
0FCFE0
0FCFE0
0FCFE0
0FC7E0
0FC7E0
0FC7F0
1F87F0
1F87F0
1F87F0
1F87F0
1F83F0
1F83F8
1F83F8
3F03F8
3F03F8
3F03F8
3F03F8
3FFFF8
3FFFFC
7FFFFC
7FFFFC
7FFFFC
7FFFFC
7E00FC
7E00FE
7E00FE
FE00FE
FC00FE
FC00FE
FC00FE
FC007E
ENDCHAR
STARTCHAR uni0411
ENCODING 1041
SWIDTH 415 0
DWIDTH 26 0
BBX 21 45 3 -1
BITMAP
FFFFE0
FFFFE0
FFFFE0
FFFFE0
FFFFE0
FFFFE0
FC0000
FC0000
FC0000
FC0000
FC0000
FC0000
FC0000
FC0000
FC0000
FC0000
FC0000
FC0000
FFFC00
FFFF00
FFFFC0
FFFFE0
FFFFE0
FFFFF0
FC0FF0
FC07F0
FC03F0
FC03F8
FC03F8
FC03F8
FC03F8
FC03F8
FC03F8
FC03F8
FC03F8
FC03F8
FC03F0
FC07F0
FC0FF0
FFFFF0
FFFFE0
FFFFE0
FFFFC0
FFFF00
FFFC00
ENDCHAR
STARTCHAR uni0412
ENCODING 1042
SWIDTH 406 0
DWIDTH 25 0
BBX 22 45 2 -1
BITMAP
FFFE00
FFFF80
FFFFC0
FFFFE0
FFFFF0
FFFFF0
FE0FF0
FE07F8
FE03F8
FE03F8
FE03F8
FE03F8
FE03F8
FE03F8
FE03F8
FE03F8
FE03F0
FE07F0
FE0FF0
FFFFE0
FFFFC0
FFFF80
FFFFC0
FFFFE0
FFFFF0
FE07F8
FE03F8
FE03F8
FE01F8
FE01F8
FE01FC
FE01FC
FE01FC
FE01FC
FE01FC
FE01FC
FE03F8
FE03F8
FE07F8
FFFFF8
FFFFF0
FFFFF0
FFFFE0
FFFF80
FFFE00
ENDCHAR
STARTCHAR uni0413
ENCODING 1043
SWIDTH 365 0
DWIDTH 23 0
BBX 18 45 3 -1
BITMAP
FFFFC0
FFFFC0
FFFFC0
FFFFC0
FFFFC0
FFFFC0
FC0000
FC0000
FC0000
FC0000
FC0000
FC0000
FC0000
FC0000
FC0000
FC0000
FC0000
FC0000
FC0000
FC0000
FC0000
FC0000
FC0000
FC0000
FC0000
FC0000
FC0000
FC0000
FC0000
FC0000
FC0000
FC0000
FC0000
FC0000
FC0000
FC0000
FC0000
FC0000
FC0000
FC0000
FC0000
FC0000
FC0000
FC0000
FC0000
ENDCHAR
STARTCHAR uni0414
ENCODING 1044
SWIDTH 488 0
DWIDTH 30 0
BBX 28 51 1 -7
BITMAP
03FFFF80
03FFFF80
03FFFF80
03FFFF80
03FFFF80
03FFFF80
03F03F80
03F03F80
07F03F80
07F03F80
07F03F80
07F03F80
07F03F80
07F03F80
07F03F80
07F03F80
07F03F80
07F03F80
07F03F80
07F03F80
07F03F80
07F03F80
07E03F80
07E03F80
07E03F80
07E03F80
07E03F80
07E03F80
07E03F80
0FE03F80
0FE03F80
0FE03F80
0FE03F80
0FE03F80
0FE03F80
0FE03F80
0FC03F80
1FC03F80
1F803F80
FFFFFFF0
FFFFFFF0
FFFFFFF0
FFFFFFF0
FFFFFFF0
FFFFFFF0
FE0007F0
FE0007F0
FE0007F0
FE0007F0
FE0007F0
FE0007F0
ENDCHAR
STARTCHAR uni0415
ENCODING 1045
SWIDTH 368 0
DWIDTH 23 0
BBX 19 45 2 -1
BITMAP
FFFFE0
FFFFE0
FFFFE0
FFFFE0
FFFFE0
FFFFE0
FE0000
FE0000
FE0000
FE0000
FE0000
FE0000
FE0000
FE0000
FE0000
FE0000
FE0000
FE0000
FE0000
FFFF80
FFFF80
FFFF80
FFFF80
FFFF80
FFFF80
FE0000
FE0000
FE0000
FE0000
FE0000
FE0000
FE0000
FE0000
FE0000
FE0000
FE0000
FE0000
FE0000
FE0000
FFFFE0
FFFFE0
FFFFE0
FFFFE0
FFFFE0
FFFFE0
ENDCHAR
STARTCHAR uni0416
ENCODING 1046
SWIDTH 604 0
DWIDTH 37 0
BBX 36 45 1 -1
BITMAP
FE03F807F0
FE03F807E0
7E03F80FE0
7F03F80FC0
3F03F81FC0
3F83F81F80
3F83F83F80
1FC3F83F80
1FC3F87F00
0FE3F87F00
0FE3F87E00
07E3F8FE00
07F3F8FC00
03F3F9FC00
03FBF9F800
01FBFBF800
01FFFBF000
01FFFFF000
00FFFFF000
00FFFFF000
01FFFFF000
01FFFFF800
01FFFFF800
03FFFFF800
03FFFFFC00
03FFFFFC00
07F7FDFC00
07F3FCFE00
07F3F8FE00
0FE3F8FE00
0FE3F8FE00
0FE3F87F00
1FC3F87F00
1FC3F87F00
1FC3F83F80
1F83F83F80
3F83F83F80
3F83F81FC0
3F83F81FC0
7F03F81FC0
7F03F80FE0
7F03F80FE0
FE03F80FE0
FE03F807F0
FE03F807F0
ENDCHAR
STARTCHAR uni0417
ENCODING 1047
SWIDTH 396 0
DWIDTH 25 0
BBX 20 45 2 -1
BITMAP
03FC00
0FFF00
1FFF80
3FFFC0
3FFFE0
7FFFE0
7F8FF0
7E07F0
FE07F0
FE07F0
FC03F0
FC03F0
FC03F0
FC03F0
0003F0
0007F0
0007F0
0007F0
001FE0
01FFE0
01FFC0
01FF00
01FF80
01FFC0
01FFE0
000FF0
0007F0
0007F0
0007F0
FE03F0
FE03F0
FE03F0
FE03F0
FE03F0
FE03F0
FE07F0
FE07F0
FE07F0
7F0FF0
7FFFF0
7FFFE0
3FFFC0
1FFFC0
0FFF00
01FC00
ENDCHAR
STARTCHAR uni0418
ENCODING 1048
SWIDTH 427 0
DWIDTH 26 0
BBX 22 45 2 -1
BITMAP
FE03FC
FE03FC
FE03FC
FE03FC
FE07FC
FE07FC
FE07FC
FE0FFC
FE0FFC
FE0FFC
FE1FFC
FE1FFC
FE1FFC
FE1FFC
FE3FFC
FE3EFC
FE3EFC
FE7EFC
FE7EFC
FE7CFC
FE7CFC
FEFCFC
FEFCFC
FEF8FC
FEF8FC
FFF8FC
FFF8FC
FFF0FC
FFF0FC
FFF0FC
FFE0FC
FFE0FC
FFE0FC
FFE0FC
FFC0FC
FFC0FC
FFC0FC
FFC0FC
FF80FC
FF80FC
FF80FC
FF00FC
FF00FC
FF00FC
FF00FC
ENDCHAR
STARTCHAR uni0419
ENCODING 1049
SWIDTH 429 0
DWIDTH 27 0
BBX 22 53 2 0
BITMAP
0F83E0
0F83E0
07C7C0
07FFC0
03FF80
03FF00
00FC00
000000
000000
000000
FE03FC
FE03FC
FE03FC
FE07FC
FE07FC
FE07FC
FE0FFC
FE0FFC
FE0FFC
FE0FFC
FE1FFC
FE1FFC
FE1FFC
FE3FFC
FE3EFC
FE3EFC
FE7EFC
FE7EFC
FE7CFC
FE7CFC
FEFCFC
FEFCFC
FEF8FC
FFF8FC
FFF8FC
FFF8FC
FFF0FC
FFF0FC
FFF0FC
FFE0FC
FFE0FC
FFE0FC
FFE0FC
FFC0FC
FFC0FC
FFC0FC
FF80FC
FF80FC
FF80FC
FF80FC
FF00FC
FF00FC
FF00FC
ENDCHAR
STARTCHAR uni041A
ENCODING 1050
SWIDTH 414 0
DWIDTH 26 0
BBX 23 45 2 -1
BITMAP
FE00FE
FE00FC
FE01FC
FE01F8
FE03F8
FE03F0
FE07F0
FE07E0
FE0FE0
FE0FE0
FE1FC0
FE1FC0
FE1F80
FE3F80
FE3F00
FE7F00
FE7E00
FEFE00
FEFC00
FFFC00
FFFC00
FFFC00
FFFC00
FFFE00
FFFE00
FFFF00
FFFF00
FFBF00
FFBF80
FF3F80
FF1FC0
FE1FC0
FE1FC0
FE0FE0
FE0FE0
FE07E0
FE07F0
FE07F0
FE03F8
FE03F8
FE03F8
FE01FC
FE01FC
FE01FC
FE00FE
ENDCHAR
STARTCHAR uni041B
ENCODING 1051
SWIDTH 450 0
DWIDTH 28 0
BBX 24 45 1 -1
BITMAP
07FFFF
07FFFF
07FFFF
07FFFF
07FFFF
07FFFF
07E07F
07E07F
07E07F
07E07F
07E07F
07E07F
0FE07F
0FE07F
0FE07F
0FE07F
0FE07F
0FE07F
0FE07F
0FE07F
0FE07F
0FE07F
0FE07F
0FE07F
0FE07F
0FE07F
0FE07F
0FE07F
0FE07F
0FE07F
0FE07F
0FE07F
0FE07F
0FE07F
0FC07F
0FC07F
0FC07F
1FC07F
3FC07F
FFC07F
FF807F
FF807F
FF007F
FE007F
F8007F
ENDCHAR
STARTCHAR uni041C
ENCODING 1052
SWIDTH 541 0
DWIDTH 34 0
BBX 29 45 2 -1
BITMAP
FFC01FF8
FFC01FF8
FFC01FF8
FFC01FF8
FFE01FF8
FFE01FF8
FFE01FF8
FFE03FF8
FFE03FF8
FFE03FF8
FFF03FF8
FFF03FF8
FFF03FF8
FFF03FF8
FDF07DF8
FDF07DF8
FDF07DF8
FDF87DF8
FDF87DF8
FDF87DF8
FCF879F8
FCF8F9F8
FCF8F9F8
FCFCF9F8
FCFCF9F8
FCFCF9F8
FCFCF9F8
FC7CF1F8
FC7DF1F8
FC7FF1F8
FC7FF1F8
FC7FF1F8
FC7FF1F8
FC3FF1F8
FC3FE1F8
FC3FE1F8
FC3FE1F8
FC3FE1F8
FC3FE1F8
FC1FE1F8
FC1FE1F8
FC1FC1F8
FC1FC1F8
FC1FC1F8
FC1FC1F8
ENDCHAR
STARTCHAR uni041D
ENCODING 1053
SWIDTH 427 0
DWIDTH 26 0
BBX 22 45 2 -1
BITMAP
FE01FC
FE01FC
FE01FC
FE01FC
FE01FC
FE01FC
FE01FC
FE01FC
FE01FC
FE01FC
FE01FC
FE01FC
FE01FC
FE01FC
FE01FC
FE01FC
FE01FC
FE01FC
FE01FC
FE01FC
FFFFFC
FFFFFC
FFFFFC
FFFFFC
FFFFFC
FFFFFC
FE01FC
FE01FC
FE01FC
FE01FC
FE01FC
FE01FC
FE01FC
FE01FC
FE01FC
FE01FC
FE01FC
FE01FC
FE01FC
FE01FC
FE01FC
FE01FC
FE01FC
FE01FC
FE01FC
ENDCHAR
STARTCHAR uni041E
ENCODING 1054
SWIDTH 396 0
DWIDTH 25 0
BBX 21 45 2 -1
BITMAP
03FC00
0FFF00
1FFFC0
3FFFC0
7FFFE0
7FFFF0
7F8FF0
FE07F0
FE03F0
FE03F8
FE03F8
FE03F8
FE03F8
FE03F8
FE03F8
FE03F8
FE03F8
FE03F8
FE03F8
FE03F8
FE03F8
FE03F8
FE03F8
FE03F8
FE03F8
FE03F8
FE03F8
FE03F8
FE03F8
FE03F8
FE03F8
FE03F8
FE03F8
FE03F8
FE03F8
FE03F8
FE03F0
FE07F0
7F8FF0
7FFFF0
7FFFE0
3FFFE0
1FFFC0
0FFF00
01FC00
ENDCHAR
STARTCHAR uni041F
ENCODING 1055
SWIDTH 427 0
DWIDTH 26 0
BBX 22 45 2 -1
BITMAP
FFFFFC
FFFFFC
FFFFFC
FFFFFC
FFFFFC
FFFFFC
FE01FC
FE01FC
FE01FC
FE01FC
FE01FC
FE01FC
FE01FC
FE01FC
FE01FC
FE01FC
FE01FC
FE01FC
FE01FC
FE01FC
FE01FC
FE01FC
FE01FC
FE01FC
FE01FC
FE01FC
FE01FC
FE01FC
FE01FC
FE01FC
FE01FC
FE01FC
FE01FC
FE01FC
FE01FC
FE01FC
FE01FC
FE01FC
FE01FC
FE01FC
FE01FC
FE01FC
FE01FC
FE01FC
FE01FC
ENDCHAR
STARTCHAR uni0420
ENCODING 1056
SWIDTH 377 0
DWIDTH 23 0
BBX 21 45 2 -1
BITMAP
FFFC00
FFFF80
FFFFC0
FFFFE0
FFFFE0
FFFFF0
FE0FF0
FE07F0
FE03F8
FE03F8
FE03F8
FE03F8
FE03F8
FE03F8
FE03F8
FE03F8
FE03F8
FE03F8
FE03F8
FE03F8
FE07F0
FE0FF0
FFFFF0
FFFFE0
FFFFE0
FFFFC0
FFFF80
FFFC00
FE0000
FE0000
FE0000
FE0000
FE0000
FE0000
FE0000
FE0000
FE0000
FE0000
FE0000
FE0000
FE0000
FE0000
FE0000
FE0000
FE0000
ENDCHAR
STARTCHAR uni0421
ENCODING 1057
SWIDTH 386 0
DWIDTH 24 0
BBX 20 45 2 -1
BITMAP
03FC00
0FFF00
1FFF80
3FFFC0
7FFFE0
7FFFE0
FF8FF0
FE07F0
FE03F0
FE03F0
FE03F0
FE03F0
FE03F0
FE03F0
FE03F0
FE0000
FE0000
FE0000
FE0000
FE0000
FE0000
FE0000
FE0000
FE0000
FE0000
FE0000
FE0000
FE0000
FE03F0
FE03F0
FE03F0
FE03F0
FE03F0
FE03F0
FE03F0
FE03F0
FE03F0
FE07F0
FF8FF0
7FFFE0
7FFFE0
3FFFC0
1FFF80
0FFF00
03FC00
ENDCHAR
STARTCHAR uni0422
ENCODING 1058
SWIDTH 356 0
DWIDTH 22 0
BBX 22 45 0 -1
BITMAP
FFFFFC
FFFFFC
FFFFFC
FFFFFC
FFFFFC
FFFFFC
00FC00
00FC00
00FC00
00FC00
00FC00
00FC00
00FC00
00FC00
00FC00
00FC00
00FC00
00FC00
00FC00
00FC00
00FC00
00FC00
00FC00
00FC00
00FC00
00FC00
00FC00
00FC00
00FC00
00FC00
00FC00
00FC00
00FC00
00FC00
00FC00
00FC00
00FC00
00FC00
00FC00
00FC00
00FC00
00FC00
00FC00
00FC00
00FC00
ENDCHAR
STARTCHAR uni0423
ENCODING 1059
SWIDTH 408 0
DWIDTH 25 0
BBX 24 45 1 -1
BITMAP
FC007F
FE00FF
FE00FE
FE00FE
7E00FE
7F00FE
7F01FE
3F01FC
3F01FC
3F81FC
3F81FC
1F83F8
1F83F8
1FC3F8
1FC3F8
0FC3F8
0FC3F0
0FC7F0
0FE7F0
07E7F0
07E7E0
07E7E0
03E7E0
03FFE0
03FFE0
03FFC0
01FFC0
01FFC0
01FFC0
01FFC0
00FF80
00FF80
00FF80
007F80
007F00
007F00
007F00
00FF00
01FE00
1FFE00
1FFC00
1FFC00
1FF800
1FE000
1F8000
ENDCHAR
STARTCHAR uni0424
ENCODING 1060
SWIDTH 583 0
DWIDTH 36 0
BBX 32 45 2 -1
BITMAP
0007E000
0007E000
0007E000
0007E000
0007E000
03FFFFC0
0FFFFFF0
1FFFFFF8
3FFFFFFC
7FFFFFFE
7FFFFFFE
FF87E1FE
FE07E07F
FE07E07F
FE07E07F
FE07E07F
FE07E07F
FE07E07F
FE07E07F
FE07E07F
FE07E07F
FE07E07F
FE07E07F
FE07E07F
FE07E07F
FE07E07F
FE07E07F
FE07E07F
FE07E07F
FE07E07F
FE07E07F
FE07E07F
FE07E07F
FF07E0FE
7FFFFFFE
7FFFFFFE
3FFFFFFC
1FFFFFF8
0FFFFFF0
03FFFFC0
0007E000
0007E000
0007E000
0007E000
0007E000
ENDCHAR
STARTCHAR uni0425
ENCODING 1061
SWIDTH 430 0
DWIDTH 27 0
BBX 25 45 1 -1
BITMAP
7F003F00
7F007F00
7F007E00
3F807E00
3F80FE00
3F80FC00
1FC0FC00
1FC0FC00
1FC1F800
1FC1F800
0FE1F800
0FE3F000
0FE3F000
07F3F000
07F7E000
07F7E000
03FFE000
03FFE000
03FFC000
01FFC000
01FFC000
01FF8000
01FF8000
01FFC000
01FFC000
03FFC000
03FFE000
03FFE000
07FFE000
07E7F000
07E7F000
0FE7F000
0FC3F800
0FC3F800
1FC3F800
1F81FC00
1F81FC00
3F81FC00
3F01FE00
3F00FE00
7F00FE00
7E00FF00
7E007F00
FE007F00
FC007F80
ENDCHAR
STARTCHAR uni0426
ENCODING 1062
SWIDTH 455 0
DWIDTH 28 0
BBX 25 51 2 -7
BITMAP
FE01FC00
FE01FC00
FE01FC00
FE01FC00
FE01FC00
FE01FC00
FE01FC00
FE01FC00
FE01FC00
FE01FC00
FE01FC00
FE01FC00
FE01FC00
FE01FC00
FE01FC00
FE01FC00
FE01FC00
FE01FC00
FE01FC00
FE01FC00
FE01FC00
FE01FC00
FE01FC00
FE01FC00
FE01FC00
FE01FC00
FE01FC00
FE01FC00
FE01FC00
FE01FC00
FE01FC00
FE01FC00
FE01FC00
FE01FC00
FE01FC00
FE01FC00
FE01FC00
FE01FC00
FE01FC00
FFFFFF80
FFFFFF80
FFFFFF80
FFFFFF80
FFFFFF80
FFFFFF80
00003F80
00003F80
00003F80
00003F80
00003F80
00003F80
ENDCHAR
STARTCHAR uni0427
ENCODING 1063
SWIDTH 415 0
DWIDTH 26 0
BBX 21 45 2 -1
BITMAP
FE03F8
FE03F8
FE03F8
FE03F8
FE03F8
FE03F8
FE03F8
FE03F8
FE03F8
FE03F8
FE03F8
FE03F8
FE03F8
FE03F8
FE03F8
FE03F8
FE03F8
FE03F8
FE03F8
FE03F8
FE03F8
FF03F8
FF87F8
7FFFF8
7FFFF8
7FFFF8
3FFFF8
1FFFF8
07F3F8
0003F8
0003F8
0003F8
0003F8
0003F8
0003F8
0003F8
0003F8
0003F8
0003F8
0003F8
0003F8
0003F8
0003F8
0003F8
0003F8
ENDCHAR
STARTCHAR uni0428
ENCODING 1064
SWIDTH 600 0
DWIDTH 37 0
BBX 33 45 2 -1
BITMAP
FE07F03F80
FE07F03F80
FE07F03F80
FE07F03F80
FE07F03F80
FE07F03F80
FE07F03F80
FE07F03F80
FE07F03F80
FE07F03F80
FE07F03F80
FE07F03F80
FE07F03F80
FE07F03F80
FE07F03F80
FE07F03F80
FE07F03F80
FE07F03F80
FE07F03F80
FE07F03F80
FE07F03F80
FE07F03F80
FE07F03F80
FE07F03F80
FE07F03F80
FE07F03F80
FE07F03F80
FE07F03F80
FE07F03F80
FE07F03F80
FE07F03F80
FE07F03F80
FE07F03F80
FE07F03F80
FE07F03F80
FE07F03F80
FE07F03F80
FE07F03F80
FE07F03F80
FFFFFFFF80
FFFFFFFF80
FFFFFFFF80
FFFFFFFF80
FFFFFFFF80
FFFFFFFF80
ENDCHAR
STARTCHAR uni0429
ENCODING 1065
SWIDTH 629 0
DWIDTH 39 0
BBX 36 51 2 -7
BITMAP
FE07F03F80
FE07F03F80
FE07F03F80
FE07F03F80
FE07F03F80
FE07F03F80
FE07F03F80
FE07F03F80
FE07F03F80
FE07F03F80
FE07F03F80
FE07F03F80
FE07F03F80
FE07F03F80
FE07F03F80
FE07F03F80
FE07F03F80
FE07F03F80
FE07F03F80
FE07F03F80
FE07F03F80
FE07F03F80
FE07F03F80
FE07F03F80
FE07F03F80
FE07F03F80
FE07F03F80
FE07F03F80
FE07F03F80
FE07F03F80
FE07F03F80
FE07F03F80
FE07F03F80
FE07F03F80
FE07F03F80
FE07F03F80
FE07F03F80
FE07F03F80
FE07F03F80
FFFFFFFFF0
FFFFFFFFF0
FFFFFFFFF0
FFFFFFFFF0
FFFFFFFFF0
FFFFFFFFF0
00000007F0
00000007F0
00000007F0
00000007F0
00000007F0
00000007F0
ENDCHAR
STARTCHAR uni042A
ENCODING 1066
SWIDTH 439 0
DWIDTH 27 0
BBX 26 45 0 -1
BITMAP
FFF00000
FFF00000
FFF00000
FFF00000
FFF00000
FFF00000
07F00000
07F00000
07F00000
07F00000
07F00000
07F00000
07F00000
07F00000
07F00000
07F00000
07F00000
07FFE000
07FFF800
07FFFE00
07FFFF00
07FFFF00
07FFFF80
07F07F80
07F03F80
07F01F80
07F01FC0
07F01FC0
07F01FC0
07F01FC0
07F01FC0
07F01FC0
07F01FC0
07F01FC0
07F01FC0
07F01FC0
07F01F80
07F03F80
07F07F80
07FFFF80
07FFFF00
07FFFF00
07FFFE00
07FFFC00
07FFE000
ENDCHAR
STARTCHAR uni042B
ENCODING 1067
SWIDTH 579 0
DWIDTH 36 0
BBX 31 45 2 -1
BITMAP
FE00007E
FE00007E
FE00007E
FE00007E
FE00007E
FE00007E
FE00007E
FE00007E
FE00007E
FE00007E
FE00007E
FE00007E
FE00007E
FE00007E
FE00007E
FE00007E
FE00007E
FFFC007E
FFFF807E
FFFFC07E
FFFFE07E
FFFFE07E
FFFFF07E
FE0FF07E
FE07F07E
FE03F87E
FE03F87E
FE03F87E
FE03F87E
FE03F87E
FE03F87E
FE03F87E
FE03F87E
FE03F87E
FE03F87E
FE03F87E
FE03F87E
FE07F07E
FE0FF07E
FFFFF07E
FFFFE07E
FFFFE07E
FFFFC07E
FFFF807E
FFFC007E
ENDCHAR
STARTCHAR uni042C
ENCODING 1068
SWIDTH 392 0
DWIDTH 24 0
BBX 21 45 2 -1
BITMAP
FE0000
FE0000
FE0000
FE0000
FE0000
FE0000
FE0000
FE0000
FE0000
FE0000
FE0000
FE0000
FE0000
FE0000
FE0000
FE0000
FE0000
FFFC00
FFFF80
FFFFC0
FFFFE0
FFFFE0
FFFFF0
FE0FF0
FE07F0
FE03F8
FE03F8
FE03F8
FE03F8
FE03F8
FE03F8
FE03F8
FE03F8
FE03F8
FE03F8
FE03F8
FE03F8
FE07F0
FE0FF0
FFFFF0
FFFFE0
FFFFE0
FFFFC0
FFFF80
FFFC00
ENDCHAR
STARTCHAR uni042D
ENCODING 1069
SWIDTH 386 0
DWIDTH 24 0
BBX 20 45 2 -1
BITMAP
03F800
0FFF00
1FFF80
3FFFC0
7FFFC0
7FFFE0
FF1FE0
FE0FF0
FC07F0
FC07F0
FC07F0
FC07F0
FC07F0
FC07F0
FC07F0
0007F0
0007F0
0007F0
0007F0
01FFF0
01FFF0
01FFF0
01FFF0
01FFF0
01FFF0
0007F0
0007F0
0007F0
0007F0
FC07F0
FC07F0
FC07F0
FC07F0
FC07F0
FC07F0
FC07F0
FC07F0
FE0FF0
FF1FE0
7FFFE0
7FFFE0
3FFFC0
1FFF80
0FFF00
03FC00
ENDCHAR
STARTCHAR uni042E
ENCODING 1070
SWIDTH 599 0
DWIDTH 37 0
BBX 33 45 2 -1
BITMAP
FE001FC000
FE007FF800
FE01FFFC00
FE03FFFE00
FE03FFFF00
FE07FFFF00
FE07F8FF00
FE07F03F80
FE07E03F80
FE0FE03F80
FE0FE03F80
FE0FE03F80
FE0FE03F80
FE0FE03F80
FE0FE03F80
FE0FE03F80
FE0FE03F80
FE0FE03F80
FE0FE03F80
FFFFE03F80
FFFFE03F80
FFFFE03F80
FFFFE03F80
FFFFE03F80
FFFFE03F80
FE0FE03F80
FE0FE03F80
FE0FE03F80
FE0FE03F80
FE0FE03F80
FE0FE03F80
FE0FE03F80
FE0FE03F80
FE0FE03F80
FE0FE03F80
FE0FE03F80
FE07E03F80
FE07F07F80
FE07F8FF00
FE07FFFF00
FE03FFFF00
FE01FFFE00
FE01FFFC00
FE007FF800
FE001FC000
ENDCHAR
STARTCHAR uni042F
ENCODING 1071
SWIDTH 402 0
DWIDTH 25 0
BBX 21 45 1 -1
BITMAP
01FFF8
07FFF8
1FFFF8
1FFFF8
3FFFF8
3FFFF8
7FC1F8
7F81F8
7F01F8
7F01F8
7F01F8
7F01F8
7F01F8
7F01F8
7F01F8
7F01F8
7F01F8
7F01F8
3F81F8
3FC1F8
1FFFF8
0FFFF8
07FFF8
0FFFF8
1FFFF8
3FFFF8
3FC1F8
7F81F8
7F01F8
7F01F8
7F01F8
7F01F8
7F01F8
7F01F8
7F01F8
7F01F8
7F01F8
7F01F8
7F01F8
7F01F8
7F01F8
7F01F8
7F01F8
7F01F8
FE01F8
ENDCHAR
STARTCHAR uni0430
ENCODING 1072
SWIDTH 407 0
DWIDTH 25 0
BBX 23 45 1 -1
BITMAP
01FF80
03FF80
03FF80
03FF80
03FF80
03FF80
03FFC0
07FFC0
07FFC0
07EFC0
07EFC0
07EFC0
07EFE0
07CFE0
0FCFE0
0FCFE0
0FCFE0
0FC7E0
0FC7E0
0FC7F0
1F87F0
1F87F0
1F87F0
1F87F0
1F83F0
1F83F8
1F83F8
3F03F8
3F03F8
3F03F8
3F03F8
3FFFF8
3FFFFC
7FFFFC
7FFFFC
7FFFFC
7FFFFC
7E00FC
7E00FE
7E00FE
FE00FE
FC00FE
FC00FE
FC00FE
FC007E
ENDCHAR
STARTCHAR uni0431
ENCODING 1073
SWIDTH 415 0
DWIDTH 26 0
BBX 21 45 3 -1
BITMAP
FFFFE0
FFFFE0
FFFFE0
FFFFE0
FFFFE0
FFFFE0
FC0000
FC0000
FC0000
FC0000
FC0000
FC0000
FC0000
FC0000
FC0000
FC0000
FC0000
FC0000
FFFC00
FFFF00
FFFFC0
FFFFE0
FFFFE0
FFFFF0
FC0FF0
FC07F0
FC03F0
FC03F8
FC03F8
FC03F8
FC03F8
FC03F8
FC03F8
FC03F8
FC03F8
FC03F8
FC03F0
FC07F0
FC0FF0
FFFFF0
FFFFE0
FFFFE0
FFFFC0
FFFF00
FFFC00
ENDCHAR
STARTCHAR uni0432
ENCODING 1074
SWIDTH 406 0
DWIDTH 25 0
BBX 22 45 2 -1
BITMAP
FFFE00
FFFF80
FFFFC0
FFFFE0
FFFFF0
FFFFF0
FE0FF0
FE07F8
FE03F8
FE03F8
FE03F8
FE03F8
FE03F8
FE03F8
FE03F8
FE03F8
FE03F0
FE07F0
FE0FF0
FFFFE0
FFFFC0
FFFF80
FFFFC0
FFFFE0
FFFFF0
FE07F8
FE03F8
FE03F8
FE01F8
FE01F8
FE01FC
FE01FC
FE01FC
FE01FC
FE01FC
FE01FC
FE03F8
FE03F8
FE07F8
FFFFF8
FFFFF0
FFFFF0
FFFFE0
FFFF80
FFFE00
ENDCHAR
STARTCHAR uni0433
ENCODING 1075
SWIDTH 365 0
DWIDTH 23 0
BBX 18 45 3 -1
BITMAP
FFFFC0
FFFFC0
FFFFC0
FFFFC0
FFFFC0
FFFFC0
FC0000
FC0000
FC0000
FC0000
FC0000
FC0000
FC0000
FC0000
FC0000
FC0000
FC0000
FC0000
FC0000
FC0000
FC0000
FC0000
FC0000
FC0000
FC0000
FC0000
FC0000
FC0000
FC0000
FC0000
FC0000
FC0000
FC0000
FC0000
FC0000
FC0000
FC0000
FC0000
FC0000
FC0000
FC0000
FC0000
FC0000
FC0000
FC0000
ENDCHAR
STARTCHAR uni0434
ENCODING 1076
SWIDTH 488 0
DWIDTH 30 0
BBX 28 51 1 -7
BITMAP
03FFFF80
03FFFF80
03FFFF80
03FFFF80
03FFFF80
03FFFF80
03F03F80
03F03F80
07F03F80
07F03F80
07F03F80
07F03F80
07F03F80
07F03F80
07F03F80
07F03F80
07F03F80
07F03F80
07F03F80
07F03F80
07F03F80
07F03F80
07E03F80
07E03F80
07E03F80
07E03F80
07E03F80
07E03F80
07E03F80
0FE03F80
0FE03F80
0FE03F80
0FE03F80
0FE03F80
0FE03F80
0FE03F80
0FC03F80
1FC03F80
1F803F80
FFFFFFF0
FFFFFFF0
FFFFFFF0
FFFFFFF0
FFFFFFF0
FFFFFFF0
FE0007F0
FE0007F0
FE0007F0
FE0007F0
FE0007F0
FE0007F0
ENDCHAR
STARTCHAR uni0435
ENCODING 1077
SWIDTH 368 0
DWIDTH 23 0
BBX 19 45 2 -1
BITMAP
FFFFE0
FFFFE0
FFFFE0
FFFFE0
FFFFE0
FFFFE0
FE0000
FE0000
FE0000
FE0000
FE0000
FE0000
FE0000
FE0000
FE0000
FE0000
FE0000
FE0000
FE0000
FFFF80
FFFF80
FFFF80
FFFF80
FFFF80
FFFF80
FE0000
FE0000
FE0000
FE0000
FE0000
FE0000
FE0000
FE0000
FE0000
FE0000
FE0000
FE0000
FE0000
FE0000
FFFFE0
FFFFE0
FFFFE0
FFFFE0
FFFFE0
FFFFE0
ENDCHAR
STARTCHAR uni0436
ENCODING 1078
SWIDTH 604 0
DWIDTH 37 0
BBX 36 45 1 -1
BITMAP
FE03F807F0
FE03F807E0
7E03F80FE0
7F03F80FC0
3F03F81FC0
3F83F81F80
3F83F83F80
1FC3F83F80
1FC3F87F00
0FE3F87F00
0FE3F87E00
07E3F8FE00
07F3F8FC00
03F3F9FC00
03FBF9F800
01FBFBF800
01FFFBF000
01FFFFF000
00FFFFF000
00FFFFF000
01FFFFF000
01FFFFF800
01FFFFF800
03FFFFF800
03FFFFFC00
03FFFFFC00
07F7FDFC00
07F3FCFE00
07F3F8FE00
0FE3F8FE00
0FE3F8FE00
0FE3F87F00
1FC3F87F00
1FC3F87F00
1FC3F83F80
1F83F83F80
3F83F83F80
3F83F81FC0
3F83F81FC0
7F03F81FC0
7F03F80FE0
7F03F80FE0
FE03F80FE0
FE03F807F0
FE03F807F0
ENDCHAR
STARTCHAR uni0437
ENCODING 1079
SWIDTH 396 0
DWIDTH 25 0
BBX 20 45 2 -1
BITMAP
03FC00
0FFF00
1FFF80
3FFFC0
3FFFE0
7FFFE0
7F8FF0
7E07F0
FE07F0
FE07F0
FC03F0
FC03F0
FC03F0
FC03F0
0003F0
0007F0
0007F0
0007F0
001FE0
01FFE0
01FFC0
01FF00
01FF80
01FFC0
01FFE0
000FF0
0007F0
0007F0
0007F0
FE03F0
FE03F0
FE03F0
FE03F0
FE03F0
FE03F0
FE07F0
FE07F0
FE07F0
7F0FF0
7FFFF0
7FFFE0
3FFFC0
1FFFC0
0FFF00
01FC00
ENDCHAR
STARTCHAR uni0438
ENCODING 1080
SWIDTH 427 0
DWIDTH 26 0
BBX 22 45 2 -1
BITMAP
FE03FC
FE03FC
FE03FC
FE03FC
FE07FC
FE07FC
FE07FC
FE0FFC
FE0FFC
FE0FFC
FE1FFC
FE1FFC
FE1FFC
FE1FFC
FE3FFC
FE3EFC
FE3EFC
FE7EFC
FE7EFC
FE7CFC
FE7CFC
FEFCFC
FEFCFC
FEF8FC
FEF8FC
FFF8FC
FFF8FC
FFF0FC
FFF0FC
FFF0FC
FFE0FC
FFE0FC
FFE0FC
FFE0FC
FFC0FC
FFC0FC
FFC0FC
FFC0FC
FF80FC
FF80FC
FF80FC
FF00FC
FF00FC
FF00FC
FF00FC
ENDCHAR
STARTCHAR uni0439
ENCODING 1081
SWIDTH 429 0
DWIDTH 27 0
BBX 22 53 2 0
BITMAP
0F83E0
0F83E0
07C7C0
07FFC0
03FF80
03FF00
00FC00
000000
000000
000000
FE03FC
FE03FC
FE03FC
FE07FC
FE07FC
FE07FC
FE0FFC
FE0FFC
FE0FFC
FE0FFC
FE1FFC
FE1FFC
FE1FFC
FE3FFC
FE3EFC
FE3EFC
FE7EFC
FE7EFC
FE7CFC
FE7CFC
FEFCFC
FEFCFC
FEF8FC
FFF8FC
FFF8FC
FFF8FC
FFF0FC
FFF0FC
FFF0FC
FFE0FC
FFE0FC
FFE0FC
FFE0FC
FFC0FC
FFC0FC
FFC0FC
FF80FC
FF80FC
FF80FC
FF80FC
FF00FC
FF00FC
FF00FC
ENDCHAR
STARTCHAR uni043A
ENCODING 1082
SWIDTH 414 0
DWIDTH 26 0
BBX 23 45 2 -1
BITMAP
FE00FE
FE00FC
FE01FC
FE01F8
FE03F8
FE03F0
FE07F0
FE07E0
FE0FE0
FE0FE0
FE1FC0
FE1FC0
FE1F80
FE3F80
FE3F00
FE7F00
FE7E00
FEFE00
FEFC00
FFFC00
FFFC00
FFFC00
FFFC00
FFFE00
FFFE00
FFFF00
FFFF00
FFBF00
FFBF80
FF3F80
FF1FC0
FE1FC0
FE1FC0
FE0FE0
FE0FE0
FE07E0
FE07F0
FE07F0
FE03F8
FE03F8
FE03F8
FE01FC
FE01FC
FE01FC
FE00FE
ENDCHAR
STARTCHAR uni043B
ENCODING 1083
SWIDTH 450 0
DWIDTH 28 0
BBX 24 45 1 -1
BITMAP
07FFFF
07FFFF
07FFFF
07FFFF
07FFFF
07FFFF
07E07F
07E07F
07E07F
07E07F
07E07F
07E07F
0FE07F
0FE07F
0FE07F
0FE07F
0FE07F
0FE07F
0FE07F
0FE07F
0FE07F
0FE07F
0FE07F
0FE07F
0FE07F
0FE07F
0FE07F
0FE07F
0FE07F
0FE07F
0FE07F
0FE07F
0FE07F
0FE07F
0FC07F
0FC07F
0FC07F
1FC07F
3FC07F
FFC07F
FF807F
FF807F
FF007F
FE007F
F8007F
ENDCHAR
STARTCHAR uni043C
ENCODING 1084
SWIDTH 541 0
DWIDTH 34 0
BBX 29 45 2 -1
BITMAP
FFC01FF8
FFC01FF8
FFC01FF8
FFC01FF8
FFE01FF8
FFE01FF8
FFE01FF8
FFE03FF8
FFE03FF8
FFE03FF8
FFF03FF8
FFF03FF8
FFF03FF8
FFF03FF8
FDF07DF8
FDF07DF8
FDF07DF8
FDF87DF8
FDF87DF8
FDF87DF8
FCF879F8
FCF8F9F8
FCF8F9F8
FCFCF9F8
FCFCF9F8
FCFCF9F8
FCFCF9F8
FC7CF1F8
FC7DF1F8
FC7FF1F8
FC7FF1F8
FC7FF1F8
FC7FF1F8
FC3FF1F8
FC3FE1F8
FC3FE1F8
FC3FE1F8
FC3FE1F8
FC3FE1F8
FC1FE1F8
FC1FE1F8
FC1FC1F8
FC1FC1F8
FC1FC1F8
FC1FC1F8
ENDCHAR
STARTCHAR uni043D
ENCODING 1085
SWIDTH 427 0
DWIDTH 26 0
BBX 22 45 2 -1
BITMAP
FE01FC
FE01FC
FE01FC
FE01FC
FE01FC
FE01FC
FE01FC
FE01FC
FE01FC
FE01FC
FE01FC
FE01FC
FE01FC
FE01FC
FE01FC
FE01FC
FE01FC
FE01FC
FE01FC
FE01FC
FFFFFC
FFFFFC
FFFFFC
FFFFFC
FFFFFC
FFFFFC
FE01FC
FE01FC
FE01FC
FE01FC
FE01FC
FE01FC
FE01FC
FE01FC
FE01FC
FE01FC
FE01FC
FE01FC
FE01FC
FE01FC
FE01FC
FE01FC
FE01FC
FE01FC
FE01FC
ENDCHAR
STARTCHAR uni043E
ENCODING 1086
SWIDTH 396 0
DWIDTH 25 0
BBX 21 45 2 -1
BITMAP
03FC00
0FFF00
1FFFC0
3FFFC0
7FFFE0
7FFFF0
7F8FF0
FE07F0
FE03F0
FE03F8
FE03F8
FE03F8
FE03F8
FE03F8
FE03F8
FE03F8
FE03F8
FE03F8
FE03F8
FE03F8
FE03F8
FE03F8
FE03F8
FE03F8
FE03F8
FE03F8
FE03F8
FE03F8
FE03F8
FE03F8
FE03F8
FE03F8
FE03F8
FE03F8
FE03F8
FE03F8
FE03F0
FE07F0
7F8FF0
7FFFF0
7FFFE0
3FFFE0
1FFFC0
0FFF00
01FC00
ENDCHAR
STARTCHAR uni043F
ENCODING 1087
SWIDTH 427 0
DWIDTH 26 0
BBX 22 45 2 -1
BITMAP
FFFFFC
FFFFFC
FFFFFC
FFFFFC
FFFFFC
FFFFFC
FE01FC
FE01FC
FE01FC
FE01FC
FE01FC
FE01FC
FE01FC
FE01FC
FE01FC
FE01FC
FE01FC
FE01FC
FE01FC
FE01FC
FE01FC
FE01FC
FE01FC
FE01FC
FE01FC
FE01FC
FE01FC
FE01FC
FE01FC
FE01FC
FE01FC
FE01FC
FE01FC
FE01FC
FE01FC
FE01FC
FE01FC
FE01FC
FE01FC
FE01FC
FE01FC
FE01FC
FE01FC
FE01FC
FE01FC
ENDCHAR
STARTCHAR uni0440
ENCODING 1088
SWIDTH 377 0
DWIDTH 23 0
BBX 21 45 2 -1
BITMAP
FFFC00
FFFF80
FFFFC0
FFFFE0
FFFFE0
FFFFF0
FE0FF0
FE07F0
FE03F8
FE03F8
FE03F8
FE03F8
FE03F8
FE03F8
FE03F8
FE03F8
FE03F8
FE03F8
FE03F8
FE03F8
FE07F0
FE0FF0
FFFFF0
FFFFE0
FFFFE0
FFFFC0
FFFF80
FFFC00
FE0000
FE0000
FE0000
FE0000
FE0000
FE0000
FE0000
FE0000
FE0000
FE0000
FE0000
FE0000
FE0000
FE0000
FE0000
FE0000
FE0000
ENDCHAR
STARTCHAR uni0441
ENCODING 1089
SWIDTH 386 0
DWIDTH 24 0
BBX 20 45 2 -1
BITMAP
03FC00
0FFF00
1FFF80
3FFFC0
7FFFE0
7FFFE0
FF8FF0
FE07F0
FE03F0
FE03F0
FE03F0
FE03F0
FE03F0
FE03F0
FE03F0
FE0000
FE0000
FE0000
FE0000
FE0000
FE0000
FE0000
FE0000
FE0000
FE0000
FE0000
FE0000
FE0000
FE03F0
FE03F0
FE03F0
FE03F0
FE03F0
FE03F0
FE03F0
FE03F0
FE03F0
FE07F0
FF8FF0
7FFFE0
7FFFE0
3FFFC0
1FFF80
0FFF00
03FC00
ENDCHAR
STARTCHAR uni0442
ENCODING 1090
SWIDTH 356 0
DWIDTH 22 0
BBX 22 45 0 -1
BITMAP
FFFFFC
FFFFFC
FFFFFC
FFFFFC
FFFFFC
FFFFFC
00FC00
00FC00
00FC00
00FC00
00FC00
00FC00
00FC00
00FC00
00FC00
00FC00
00FC00
00FC00
00FC00
00FC00
00FC00
00FC00
00FC00
00FC00
00FC00
00FC00
00FC00
00FC00
00FC00
00FC00
00FC00
00FC00
00FC00
00FC00
00FC00
00FC00
00FC00
00FC00
00FC00
00FC00
00FC00
00FC00
00FC00
00FC00
00FC00
ENDCHAR
STARTCHAR uni0443
ENCODING 1091
SWIDTH 408 0
DWIDTH 25 0
BBX 24 45 1 -1
BITMAP
FC007F
FE00FF
FE00FE
FE00FE
7E00FE
7F00FE
7F01FE
3F01FC
3F01FC
3F81FC
3F81FC
1F83F8
1F83F8
1FC3F8
1FC3F8
0FC3F8
0FC3F0
0FC7F0
0FE7F0
07E7F0
07E7E0
07E7E0
03E7E0
03FFE0
03FFE0
03FFC0
01FFC0
01FFC0
01FFC0
01FFC0
00FF80
00FF80
00FF80
007F80
007F00
007F00
007F00
00FF00
01FE00
1FFE00
1FFC00
1FFC00
1FF800
1FE000
1F8000
ENDCHAR
STARTCHAR uni0444
ENCODING 1092
SWIDTH 583 0
DWIDTH 36 0
BBX 32 45 2 -1
BITMAP
0007E000
0007E000
0007E000
0007E000
0007E000
03FFFFC0
0FFFFFF0
1FFFFFF8
3FFFFFFC
7FFFFFFE
7FFFFFFE
FF87E1FE
FE07E07F
FE07E07F
FE07E07F
FE07E07F
FE07E07F
FE07E07F
FE07E07F
FE07E07F
FE07E07F
FE07E07F
FE07E07F
FE07E07F
FE07E07F
FE07E07F
FE07E07F
FE07E07F
FE07E07F
FE07E07F
FE07E07F
FE07E07F
FE07E07F
FF07E0FE
7FFFFFFE
7FFFFFFE
3FFFFFFC
1FFFFFF8
0FFFFFF0
03FFFFC0
0007E000
0007E000
0007E000
0007E000
0007E000
ENDCHAR
STARTCHAR uni0445
ENCODING 1093
SWIDTH 430 0
DWIDTH 27 0
BBX 25 45 1 -1
BITMAP
7F003F00
7F007F00
7F007E00
3F807E00
3F80FE00
3F80FC00
1FC0FC00
1FC0FC00
1FC1F800
1FC1F800
0FE1F800
0FE3F000
0FE3F000
07F3F000
07F7E000
07F7E000
03FFE000
03FFE000
03FFC000
01FFC000
01FFC000
01FF8000
01FF8000
01FFC000
01FFC000
03FFC000
03FFE000
03FFE000
07FFE000
07E7F000
07E7F000
0FE7F000
0FC3F800
0FC3F800
1FC3F800
1F81FC00
1F81FC00
3F81FC00
3F01FE00
3F00FE00
7F00FE00
7E00FF00
7E007F00
FE007F00
FC007F80
ENDCHAR
STARTCHAR uni0446
ENCODING 1094
SWIDTH 455 0
DWIDTH 28 0
BBX 25 51 2 -7
BITMAP
FE01FC00
FE01FC00
FE01FC00
FE01FC00
FE01FC00
FE01FC00
FE01FC00
FE01FC00
FE01FC00
FE01FC00
FE01FC00
FE01FC00
FE01FC00
FE01FC00
FE01FC00
FE01FC00
FE01FC00
FE01FC00
FE01FC00
FE01FC00
FE01FC00
FE01FC00
FE01FC00
FE01FC00
FE01FC00
FE01FC00
FE01FC00
FE01FC00
FE01FC00
FE01FC00
FE01FC00
FE01FC00
FE01FC00
FE01FC00
FE01FC00
FE01FC00
FE01FC00
FE01FC00
FE01FC00
FFFFFF80
FFFFFF80
FFFFFF80
FFFFFF80
FFFFFF80
FFFFFF80
00003F80
00003F80
00003F80
00003F80
00003F80
00003F80
ENDCHAR
STARTCHAR uni0447
ENCODING 1095
SWIDTH 415 0
DWIDTH 26 0
BBX 21 45 2 -1
BITMAP
FE03F8
FE03F8
FE03F8
FE03F8
FE03F8
FE03F8
FE03F8
FE03F8
FE03F8
FE03F8
FE03F8
FE03F8
FE03F8
FE03F8
FE03F8
FE03F8
FE03F8
FE03F8
FE03F8
FE03F8
FE03F8
FF03F8
FF87F8
7FFFF8
7FFFF8
7FFFF8
3FFFF8
1FFFF8
07F3F8
0003F8
0003F8
0003F8
0003F8
0003F8
0003F8
0003F8
0003F8
0003F8
0003F8
0003F8
0003F8
0003F8
0003F8
0003F8
0003F8
ENDCHAR
STARTCHAR uni0448
ENCODING 1096
SWIDTH 600 0
DWIDTH 37 0
BBX 33 45 2 -1
BITMAP
FE07F03F80
FE07F03F80
FE07F03F80
FE07F03F80
FE07F03F80
FE07F03F80
FE07F03F80
FE07F03F80
FE07F03F80
FE07F03F80
FE07F03F80
FE07F03F80
FE07F03F80
FE07F03F80
FE07F03F80
FE07F03F80
FE07F03F80
FE07F03F80
FE07F03F80
FE07F03F80
FE07F03F80
FE07F03F80
FE07F03F80
FE07F03F80
FE07F03F80
FE07F03F80
FE07F03F80
FE07F03F80
FE07F03F80
FE07F03F80
FE07F03F80
FE07F03F80
FE07F03F80
FE07F03F80
FE07F03F80
FE07F03F80
FE07F03F80
FE07F03F80
FE07F03F80
FFFFFFFF80
FFFFFFFF80
FFFFFFFF80
FFFFFFFF80
FFFFFFFF80
FFFFFFFF80
ENDCHAR
STARTCHAR uni0449
ENCODING 1097
SWIDTH 629 0
DWIDTH 39 0
BBX 36 51 2 -7
BITMAP
FE07F03F80
FE07F03F80
FE07F03F80
FE07F03F80
FE07F03F80
FE07F03F80
FE07F03F80
FE07F03F80
FE07F03F80
FE07F03F80
FE07F03F80
FE07F03F80
FE07F03F80
FE07F03F80
FE07F03F80
FE07F03F80
FE07F03F80
FE07F03F80
FE07F03F80
FE07F03F80
FE07F03F80
FE07F03F80
FE07F03F80
FE07F03F80
FE07F03F80
FE07F03F80
FE07F03F80
FE07F03F80
FE07F03F80
FE07F03F80
FE07F03F80
FE07F03F80
FE07F03F80
FE07F03F80
FE07F03F80
FE07F03F80
FE07F03F80
FE07F03F80
FE07F03F80
FFFFFFFFF0
FFFFFFFFF0
FFFFFFFFF0
FFFFFFFFF0
FFFFFFFFF0
FFFFFFFFF0
00000007F0
00000007F0
00000007F0
00000007F0
00000007F0
00000007F0
ENDCHAR
STARTCHAR uni044A
ENCODING 1098
SWIDTH 439 0
DWIDTH 27 0
BBX 26 45 0 -1
BITMAP
FFF00000
FFF00000
FFF00000
FFF00000
FFF00000
FFF00000
07F00000
07F00000
07F00000
07F00000
07F00000
07F00000
07F00000
07F00000
07F00000
07F00000
07F00000
07FFE000
07FFF800
07FFFE00
07FFFF00
07FFFF00
07FFFF80
07F07F80
07F03F80
07F01F80
07F01FC0
07F01FC0
07F01FC0
07F01FC0
07F01FC0
07F01FC0
07F01FC0
07F01FC0
07F01FC0
07F01FC0
07F01F80
07F03F80
07F07F80
07FFFF80
07FFFF00
07FFFF00
07FFFE00
07FFFC00
07FFE000
ENDCHAR
STARTCHAR uni044B
ENCODING 1099
SWIDTH 579 0
DWIDTH 36 0
BBX 31 45 2 -1
BITMAP
FE00007E
FE00007E
FE00007E
FE00007E
FE00007E
FE00007E
FE00007E
FE00007E
FE00007E
FE00007E
FE00007E
FE00007E
FE00007E
FE00007E
FE00007E
FE00007E
FE00007E
FFFC007E
FFFF807E
FFFFC07E
FFFFE07E
FFFFE07E
FFFFF07E
FE0FF07E
FE07F07E
FE03F87E
FE03F87E
FE03F87E
FE03F87E
FE03F87E
FE03F87E
FE03F87E
FE03F87E
FE03F87E
FE03F87E
FE03F87E
FE03F87E
FE07F07E
FE0FF07E
FFFFF07E
FFFFE07E
FFFFE07E
FFFFC07E
FFFF807E
FFFC007E
ENDCHAR
STARTCHAR uni044C
ENCODING 1100
SWIDTH 392 0
DWIDTH 24 0
BBX 21 45 2 -1
BITMAP
FE0000
FE0000
FE0000
FE0000
FE0000
FE0000
FE0000
FE0000
FE0000
FE0000
FE0000
FE0000
FE0000
FE0000
FE0000
FE0000
FE0000
FFFC00
FFFF80
FFFFC0
FFFFE0
FFFFE0
FFFFF0
FE0FF0
FE07F0
FE03F8
FE03F8
FE03F8
FE03F8
FE03F8
FE03F8
FE03F8
FE03F8
FE03F8
FE03F8
FE03F8
FE03F8
FE07F0
FE0FF0
FFFFF0
FFFFE0
FFFFE0
FFFFC0
FFFF80
FFFC00
ENDCHAR
STARTCHAR uni044D
ENCODING 1101
SWIDTH 386 0
DWIDTH 24 0
BBX 20 45 2 -1
BITMAP
03F800
0FFF00
1FFF80
3FFFC0
7FFFC0
7FFFE0
FF1FE0
FE0FF0
FC07F0
FC07F0
FC07F0
FC07F0
FC07F0
FC07F0
FC07F0
0007F0
0007F0
0007F0
0007F0
01FFF0
01FFF0
01FFF0
01FFF0
01FFF0
01FFF0
0007F0
0007F0
0007F0
0007F0
FC07F0
FC07F0
FC07F0
FC07F0
FC07F0
FC07F0
FC07F0
FC07F0
FE0FF0
FF1FE0
7FFFE0
7FFFE0
3FFFC0
1FFF80
0FFF00
03FC00
ENDCHAR
STARTCHAR uni044E
ENCODING 1102
SWIDTH 599 0
DWIDTH 37 0
BBX 33 45 2 -1
BITMAP
FE001FC000
FE007FF800
FE01FFFC00
FE03FFFE00
FE03FFFF00
FE07FFFF00
FE07F8FF00
FE07F03F80
FE07E03F80
FE0FE03F80
FE0FE03F80
FE0FE03F80
FE0FE03F80
FE0FE03F80
FE0FE03F80
FE0FE03F80
FE0FE03F80
FE0FE03F80
FE0FE03F80
FFFFE03F80
FFFFE03F80
FFFFE03F80
FFFFE03F80
FFFFE03F80
FFFFE03F80
FE0FE03F80
FE0FE03F80
FE0FE03F80
FE0FE03F80
FE0FE03F80
FE0FE03F80
FE0FE03F80
FE0FE03F80
FE0FE03F80
FE0FE03F80
FE0FE03F80
FE07E03F80
FE07F07F80
FE07F8FF00
FE07FFFF00
FE03FFFF00
FE01FFFE00
FE01FFFC00
FE007FF800
FE001FC000
ENDCHAR
STARTCHAR uni044F
ENCODING 1103
SWIDTH 402 0
DWIDTH 25 0
BBX 21 45 1 -1
BITMAP
01FFF8
07FFF8
1FFFF8
1FFFF8
3FFFF8
3FFFF8
7FC1F8
7F81F8
7F01F8
7F01F8
7F01F8
7F01F8
7F01F8
7F01F8
7F01F8
7F01F8
7F01F8
7F01F8
3F81F8
3FC1F8
1FFFF8
0FFFF8
07FFF8
0FFFF8
1FFFF8
3FFFF8
3FC1F8
7F81F8
7F01F8
7F01F8
7F01F8
7F01F8
7F01F8
7F01F8
7F01F8
7F01F8
7F01F8
7F01F8
7F01F8
7F01F8
7F01F8
7F01F8
7F01F8
7F01F8
FE01F8
ENDCHAR
STARTCHAR uni0451
ENCODING 1105
SWIDTH 368 0
DWIDTH 23 0
BBX 19 53 2 -1
BITMAP
3F1F80
3F1F80
3F1F80
3F1F80
3F1F80
3F1F80
000000
000000
FFFFE0
FFFFE0
FFFFE0
FFFFE0
FFFFE0
FFFFE0
FE0000
FE0000
FE0000
FE0000
FE0000
FE0000
FE0000
FE0000
FE0000
FE0000
FE0000
FE0000
FE0000
FFFF80
FFFF80
FFFF80
FFFF80
FFFF80
FFFF80
FE0000
FE0000
FE0000
FE0000
FE0000
FE0000
FE0000
FE0000
FE0000
FE0000
FE0000
FE0000
FE0000
FE0000
FFFFE0
FFFFE0
FFFFE0
FFFFE0
FFFFE0
FFFFE0
ENDCHAR
STARTCHAR uni1E02
ENCODING 7682
SWIDTH 406 0
DWIDTH 25 0
BBX 22 53 2 -1
BITMAP
01F800
01F800
01F800
01F800
01F800
01F800
000000
000000
FFFE00
FFFF80
FFFFC0
FFFFE0
FFFFF0
FFFFF0
FE0FF0
FE07F8
FE03F8
FE03F8
FE03F8
FE03F8
FE03F8
FE03F8
FE03F8
FE03F8
FE03F0
FE07F0
FE0FF0
FFFFE0
FFFFC0
FFFF80
FFFFC0
FFFFE0
FFFFF0
FE07F8
FE03F8
FE03F8
FE01F8
FE01F8
FE01FC
FE01FC
FE01FC
FE01FC
FE01FC
FE01FC
FE03F8
FE03F8
FE07F8
FFFFF8
FFFFF0
FFFFF0
FFFFE0
FFFF80
FFFE00
ENDCHAR
STARTCHAR uni1E03
ENCODING 7683
SWIDTH 406 0
DWIDTH 25 0
BBX 22 53 2 -1
BITMAP
01F800
01F800
01F800
01F800
01F800
01F800
000000
000000
FFFE00
FFFF80
FFFFC0
FFFFE0
FFFFF0
FFFFF0
FE0FF0
FE07F8
FE03F8
FE03F8
FE03F8
FE03F8
FE03F8
FE03F8
FE03F8
FE03F8
FE03F0
FE07F0
FE0FF0
FFFFE0
FFFFC0
FFFF80
FFFFC0
FFFFE0
FFFFF0
FE07F8
FE03F8
FE03F8
FE01F8
FE01F8
FE01FC
FE01FC
FE01FC
FE01FC
FE01FC
FE01FC
FE03F8
FE03F8
FE07F8
FFFFF8
FFFFF0
FFFFF0
FFFFE0
FFFF80
FFFE00
ENDCHAR
STARTCHAR uni1E0A
ENCODING 7690
SWIDTH 408 0
DWIDTH 25 0
BBX 21 53 2 -1
BITMAP
01F800
01F800
01F800
01F800
01F800
01F800
000000
000000
FFFE00
FFFF80
FFFFE0
FFFFE0
FFFFF0
FFFFF8
FE07F8
FE03F8
FE03F8
FE01F8
FE01F8
FE01F8
FE01F8
FE01F8
FE01F8
FE01F8
FE01F8
FE01F8
FE01F8
FE01F8
FE01F8
FE01F8
FE01F8
FE01F8
FE01F8
FE01F8
FE01F8
FE01F8
FE01F8
FE01F8
FE01F8
FE01F8
FE01F8
FE01F8
FE01F8
FE01F8
FE03F8
FE03F8
FE07F8
FFFFF8
FFFFF0
FFFFE0
FFFFE0
FFFF80
FFFE00
ENDCHAR
STARTCHAR uni1E0B
ENCODING 7691
SWIDTH 408 0
DWIDTH 25 0
BBX 21 53 2 -1
BITMAP
01F800
01F800
01F800
01F800
01F800
01F800
000000
000000
FFFE00
FFFF80
FFFFE0
FFFFE0
FFFFF0
FFFFF8
FE07F8
FE03F8
FE03F8
FE01F8
FE01F8
FE01F8
FE01F8
FE01F8
FE01F8
FE01F8
FE01F8
FE01F8
FE01F8
FE01F8
FE01F8
FE01F8
FE01F8
FE01F8
FE01F8
FE01F8
FE01F8
FE01F8
FE01F8
FE01F8
FE01F8
FE01F8
FE01F8
FE01F8
FE01F8
FE01F8
FE03F8
FE03F8
FE07F8
FFFFF8
FFFFF0
FFFFE0
FFFFE0
FFFF80
FFFE00
ENDCHAR
STARTCHAR uni1E1E
ENCODING 7710
SWIDTH 344 0
DWIDTH 21 0
BBX 19 53 2 -1
BITMAP
03F000
03F000
03F000
03F000
03F000
03F000
000000
000000
FFFFE0
FFFFE0
FFFFE0
FFFFE0
FFFFE0
FFFFE0
FE0000
FE0000
FE0000
FE0000
FE0000
FE0000
FE0000
FE0000
FE0000
FE0000
FE0000
FE0000
FE0000
FE0000
FFFF00
FFFF00
FFFF00
FFFF00
FFFF00
FFFF00
FE0000
FE0000
FE0000
FE0000
FE0000
FE0000
FE0000
FE0000
FE0000
FE0000
FE0000
FE0000
FE0000
FE0000
FE0000
FE0000
FE0000
FE0000
FE0000
ENDCHAR
STARTCHAR uni1E1F
ENCODING 7711
SWIDTH 344 0
DWIDTH 21 0
BBX 19 53 2 -1
BITMAP
03F000
03F000
03F000
03F000
03F000
03F000
000000
000000
FFFFE0
FFFFE0
FFFFE0
FFFFE0
FFFFE0
FFFFE0
FE0000
FE0000
FE0000
FE0000
FE0000
FE0000
FE0000
FE0000
FE0000
FE0000
FE0000
FE0000
FE0000
FE0000
FFFF00
FFFF00
FFFF00
FFFF00
FFFF00
FFFF00
FE0000
FE0000
FE0000
FE0000
FE0000
FE0000
FE0000
FE0000
FE0000
FE0000
FE0000
FE0000
FE0000
FE0000
FE0000
FE0000
FE0000
FE0000
FE0000
ENDCHAR
STARTCHAR uni1E40
ENCODING 7744
SWIDTH 541 0
DWIDTH 34 0
BBX 29 53 2 -1
BITMAP
000FC000
000FC000
000FC000
000FC000
000FC000
000FC000
00000000
00000000
FFC01FF8
FFC01FF8
FFC01FF8
FFC01FF8
FFE01FF8
FFE01FF8
FFE01FF8
FFE03FF8
FFE03FF8
FFE03FF8
FFF03FF8
FFF03FF8
FFF03FF8
FFF03FF8
FDF07DF8
FDF07DF8
FDF07DF8
FDF87DF8
FDF87DF8
FDF87DF8
FCF879F8
FCF8F9F8
FCF8F9F8
FCFCF9F8
FCFCF9F8
FCFCF9F8
FCFCF9F8
FC7CF1F8
FC7DF1F8
FC7FF1F8
FC7FF1F8
FC7FF1F8
FC7FF1F8
FC3FF1F8
FC3FE1F8
FC3FE1F8
FC3FE1F8
FC3FE1F8
FC3FE1F8
FC1FE1F8
FC1FE1F8
FC1FC1F8
FC1FC1F8
FC1FC1F8
FC1FC1F8
ENDCHAR
STARTCHAR uni1E41
ENCODING 7745
SWIDTH 541 0
DWIDTH 34 0
BBX 29 53 2 -1
BITMAP
000FC000
000FC000
000FC000
000FC000
000FC000
000FC000
00000000
00000000
FFC01FF8
FFC01FF8
FFC01FF8
FFC01FF8
FFE01FF8
FFE01FF8
FFE01FF8
FFE03FF8
FFE03FF8
FFE03FF8
FFF03FF8
FFF03FF8
FFF03FF8
FFF03FF8
FDF07DF8
FDF07DF8
FDF07DF8
FDF87DF8
FDF87DF8
FDF87DF8
FCF879F8
FCF8F9F8
FCF8F9F8
FCFCF9F8
FCFCF9F8
FCFCF9F8
FCFCF9F8
FC7CF1F8
FC7DF1F8
FC7FF1F8
FC7FF1F8
FC7FF1F8
FC7FF1F8
FC3FF1F8
FC3FE1F8
FC3FE1F8
FC3FE1F8
FC3FE1F8
FC3FE1F8
FC1FE1F8
FC1FE1F8
FC1FC1F8
FC1FC1F8
FC1FC1F8
FC1FC1F8
ENDCHAR
STARTCHAR uni1E56
ENCODING 7766
SWIDTH 377 0
DWIDTH 23 0
BBX 21 53 2 -1
BITMAP
01F800
01F800
01F800
01F800
01F800
01F800
000000
000000
FFFC00
FFFF80
FFFFC0
FFFFE0
FFFFE0
FFFFF0
FE0FF0
FE07F0
FE03F8
FE03F8
FE03F8
FE03F8
FE03F8
FE03F8
FE03F8
FE03F8
FE03F8
FE03F8
FE03F8
FE03F8
FE07F0
FE0FF0
FFFFF0
FFFFE0
FFFFE0
FFFFC0
FFFF80
FFFC00
FE0000
FE0000
FE0000
FE0000
FE0000
FE0000
FE0000
FE0000
FE0000
FE0000
FE0000
FE0000
FE0000
FE0000
FE0000
FE0000
FE0000
ENDCHAR
STARTCHAR uni1E57
ENCODING 7767
SWIDTH 377 0
DWIDTH 23 0
BBX 21 53 2 -1
BITMAP
01F800
01F800
01F800
01F800
01F800
01F800
000000
000000
FFFC00
FFFF80
FFFFC0
FFFFE0
FFFFE0
FFFFF0
FE0FF0
FE07F0
FE03F8
FE03F8
FE03F8
FE03F8
FE03F8
FE03F8
FE03F8
FE03F8
FE03F8
FE03F8
FE03F8
FE03F8
FE07F0
FE0FF0
FFFFF0
FFFFE0
FFFFE0
FFFFC0
FFFF80
FFFC00
FE0000
FE0000
FE0000
FE0000
FE0000
FE0000
FE0000
FE0000
FE0000
FE0000
FE0000
FE0000
FE0000
FE0000
FE0000
FE0000
FE0000
ENDCHAR
STARTCHAR uni1E60
ENCODING 7776
SWIDTH 374 0
DWIDTH 23 0
BBX 21 53 1 -1
BITMAP
00FC00
00FC00
00FC00
00FC00
00FC00
00FC00
000000
000000
01FC00
07FF00
1FFFC0
1FFFE0
3FFFE0
3FFFF0
7F8FF0
7F03F0
7F03F8
7E03F8
7E03F8
7E03F8
7F0000
7F0000
7F0000
7F8000
3FC000
3FE000
1FE000
1FF000
0FFC00
07FE00
03FF00
01FF80
00FF80
007FC0
003FE0
001FE0
000FF0
000FF0
0007F0
FE07F8
FE03F8
FE03F8
FE03F8
FE03F8
7E03F8
7F07F0
7F8FF0
7FFFF0
3FFFE0
3FFFE0
1FFFC0
07FF80
01FC00
ENDCHAR
STARTCHAR uni1E61
ENCODING 7777
SWIDTH 374 0
DWIDTH 23 0
BBX 21 53 1 -1
BITMAP
00FC00
00FC00
00FC00
00FC00
00FC00
00FC00
000000
000000
01FC00
07FF00
1FFFC0
1FFFE0
3FFFE0
3FFFF0
7F8FF0
7F03F0
7F03F8
7E03F8
7E03F8
7E03F8
7F0000
7F0000
7F0000
7F8000
3FC000
3FE000
1FE000
1FF000
0FFC00
07FE00
03FF00
01FF80
00FF80
007FC0
003FE0
001FE0
000FF0
000FF0
0007F0
FE07F8
FE03F8
FE03F8
FE03F8
FE03F8
7E03F8
7F07F0
7F8FF0
7FFFF0
3FFFE0
3FFFE0
1FFFC0
07FF80
01FC00
ENDCHAR
STARTCHAR uni1E6A
ENCODING 7786
SWIDTH 356 0
DWIDTH 22 0
BBX 22 53 0 -1
BITMAP
00FC00
00FC00
00FC00
00FC00
00FC00
00FC00
000000
000000
FFFFFC
FFFFFC
FFFFFC
FFFFFC
FFFFFC
FFFFFC
00FC00
00FC00
00FC00
00FC00
00FC00
00FC00
00FC00
00FC00
00FC00
00FC00
00FC00
00FC00
00FC00
00FC00
00FC00
00FC00
00FC00
00FC00
00FC00
00FC00
00FC00
00FC00
00FC00
00FC00
00FC00
00FC00
00FC00
00FC00
00FC00
00FC00
00FC00
00FC00
00FC00
00FC00
00FC00
00FC00
00FC00
00FC00
00FC00
ENDCHAR
STARTCHAR uni1E6B
ENCODING 7787
SWIDTH 356 0
DWIDTH 22 0
BBX 22 53 0 -1
BITMAP
00FC00
00FC00
00FC00
00FC00
00FC00
00FC00
000000
000000
FFFFFC
FFFFFC
FFFFFC
FFFFFC
FFFFFC
FFFFFC
00FC00
00FC00
00FC00
00FC00
00FC00
00FC00
00FC00
00FC00
00FC00
00FC00
00FC00
00FC00
00FC00
00FC00
00FC00
00FC00
00FC00
00FC00
00FC00
00FC00
00FC00
00FC00
00FC00
00FC00
00FC00
00FC00
00FC00
00FC00
00FC00
00FC00
00FC00
00FC00
00FC00
00FC00
00FC00
00FC00
00FC00
00FC00
00FC00
ENDCHAR
STARTCHAR Wgrave
ENCODING 7808
SWIDTH 563 0
DWIDTH 35 0
BBX 33 54 1 -1
BITMAP
007F000000
003F800000
001FC00000
000FC00000
0007E00000
0003E00000
0001F00000
0000000000
0000000000
FE07F01F80
FE07F01F80
FE07F01F80
FE07F01F80
FE07F81F00
FE07F83F00
7E07F83F00
7E07F83F00
7E07F83F00
7F07F83F00
7F07F83F00
7F0FF83F00
7F0FF83F00
7F0FF83F00
7F0FF83E00
3F0FFC3E00
3F0FFC7E00
3F0FFC7E00
3F0FFC7E00
3F8FFC7E00
3F8FFC7E00
3F8FFC7E00
3F9F7C7E00
3F9F7C7C00
1F9F7C7C00
1F9F7E7C00
1F9F7EFC00
1F9F7EFC00
1F9F7EFC00
1FDF7EFC00
1FDF3EFC00
1FDF3EFC00
1FDE3EF800
0FFE3EF800
0FFE3EF800
0FFE3EF800
0FFE3FF800
0FFE3FF800
0FFE3FF800
0FFE3FF800
0FFE1FF800
0FFC1FF000
0FFC1FF000
07FC1FF000
07FC1FF000
ENDCHAR
STARTCHAR wgrave
ENCODING 7809
SWIDTH 563 0
DWIDTH 35 0
BBX 33 54 1 -1
BITMAP
007F000000
003F800000
001FC00000
000FC00000
0007E00000
0003E00000
0001F00000
0000000000
0000000000
FE07F01F80
FE07F01F80
FE07F01F80
FE07F01F80
FE07F81F00
FE07F83F00
7E07F83F00
7E07F83F00
7E07F83F00
7F07F83F00
7F07F83F00
7F0FF83F00
7F0FF83F00
7F0FF83F00
7F0FF83E00
3F0FFC3E00
3F0FFC7E00
3F0FFC7E00
3F0FFC7E00
3F8FFC7E00
3F8FFC7E00
3F8FFC7E00
3F9F7C7E00
3F9F7C7C00
1F9F7C7C00
1F9F7E7C00
1F9F7EFC00
1F9F7EFC00
1F9F7EFC00
1FDF7EFC00
1FDF3EFC00
1FDF3EFC00
1FDE3EF800
0FFE3EF800
0FFE3EF800
0FFE3EF800
0FFE3FF800
0FFE3FF800
0FFE3FF800
0FFE3FF800
0FFE1FF800
0FFC1FF000
0FFC1FF000
07FC1FF000
07FC1FF000
ENDCHAR
STARTCHAR Wacute
ENCODING 7810
SWIDTH 563 0
DWIDTH 35 0
BBX 33 54 1 -1
BITMAP
00007E0000
0000FC0000
0001F80000
0001F80000
0003F00000
0003E00000
0007C00000
0000000000
0000000000
FE07F01F80
FE07F01F80
FE07F01F80
FE07F01F80
FE07F81F00
FE07F83F00
7E07F83F00
7E07F83F00
7E07F83F00
7F07F83F00
7F07F83F00
7F0FF83F00
7F0FF83F00
7F0FF83F00
7F0FF83E00
3F0FFC3E00
3F0FFC7E00
3F0FFC7E00
3F0FFC7E00
3F8FFC7E00
3F8FFC7E00
3F8FFC7E00
3F9F7C7E00
3F9F7C7C00
1F9F7C7C00
1F9F7E7C00
1F9F7EFC00
1F9F7EFC00
1F9F7EFC00
1FDF7EFC00
1FDF3EFC00
1FDF3EFC00
1FDE3EF800
0FFE3EF800
0FFE3EF800
0FFE3EF800
0FFE3FF800
0FFE3FF800
0FFE3FF800
0FFE3FF800
0FFE1FF800
0FFC1FF000
0FFC1FF000
07FC1FF000
07FC1FF000
ENDCHAR
STARTCHAR wacute
ENCODING 7811
SWIDTH 563 0
DWIDTH 35 0
BBX 33 54 1 -1
BITMAP
00007E0000
0000FC0000
0001F80000
0001F80000
0003F00000
0003E00000
0007C00000
0000000000
0000000000
FE07F01F80
FE07F01F80
FE07F01F80
FE07F01F80
FE07F81F00
FE07F83F00
7E07F83F00
7E07F83F00
7E07F83F00
7F07F83F00
7F07F83F00
7F0FF83F00
7F0FF83F00
7F0FF83F00
7F0FF83E00
3F0FFC3E00
3F0FFC7E00
3F0FFC7E00
3F0FFC7E00
3F8FFC7E00
3F8FFC7E00
3F8FFC7E00
3F9F7C7E00
3F9F7C7C00
1F9F7C7C00
1F9F7E7C00
1F9F7EFC00
1F9F7EFC00
1F9F7EFC00
1FDF7EFC00
1FDF3EFC00
1FDF3EFC00
1FDE3EF800
0FFE3EF800
0FFE3EF800
0FFE3EF800
0FFE3FF800
0FFE3FF800
0FFE3FF800
0FFE3FF800
0FFE1FF800
0FFC1FF000
0FFC1FF000
07FC1FF000
07FC1FF000
ENDCHAR
STARTCHAR Wdieresis
ENCODING 7812
SWIDTH 563 0
DWIDTH 35 0
BBX 33 53 1 -1
BITMAP
007E3F0000
007E3F0000
007E3F0000
007E3F0000
007E3F0000
007E3F0000
0000000000
0000000000
FE07F01F80
FE07F01F80
FE07F01F80
FE07F01F80
FE07F81F00
FE07F83F00
7E07F83F00
7E07F83F00
7E07F83F00
7F07F83F00
7F07F83F00
7F0FF83F00
7F0FF83F00
7F0FF83F00
7F0FF83E00
3F0FFC3E00
3F0FFC7E00
3F0FFC7E00
3F0FFC7E00
3F8FFC7E00
3F8FFC7E00
3F8FFC7E00
3F9F7C7E00
3F9F7C7C00
1F9F7C7C00
1F9F7E7C00
1F9F7EFC00
1F9F7EFC00
1F9F7EFC00
1FDF7EFC00
1FDF3EFC00
1FDF3EFC00
1FDE3EF800
0FFE3EF800
0FFE3EF800
0FFE3EF800
0FFE3FF800
0FFE3FF800
0FFE3FF800
0FFE3FF800
0FFE1FF800
0FFC1FF000
0FFC1FF000
07FC1FF000
07FC1FF000
ENDCHAR
STARTCHAR wdieresis
ENCODING 7813
SWIDTH 563 0
DWIDTH 35 0
BBX 33 53 1 -1
BITMAP
007E3F0000
007E3F0000
007E3F0000
007E3F0000
007E3F0000
007E3F0000
0000000000
0000000000
FE07F01F80
FE07F01F80
FE07F01F80
FE07F01F80
FE07F81F00
FE07F83F00
7E07F83F00
7E07F83F00
7E07F83F00
7F07F83F00
7F07F83F00
7F0FF83F00
7F0FF83F00
7F0FF83F00
7F0FF83E00
3F0FFC3E00
3F0FFC7E00
3F0FFC7E00
3F0FFC7E00
3F8FFC7E00
3F8FFC7E00
3F8FFC7E00
3F9F7C7E00
3F9F7C7C00
1F9F7C7C00
1F9F7E7C00
1F9F7EFC00
1F9F7EFC00
1F9F7EFC00
1FDF7EFC00
1FDF3EFC00
1FDF3EFC00
1FDE3EF800
0FFE3EF800
0FFE3EF800
0FFE3EF800
0FFE3FF800
0FFE3FF800
0FFE3FF800
0FFE3FF800
0FFE1FF800
0FFC1FF000
0FFC1FF000
07FC1FF000
07FC1FF000
ENDCHAR
STARTCHAR Ygrave
ENCODING 7922
SWIDTH 396 0
DWIDTH 25 0
BBX 24 54 0 -1
BITMAP
03F000
03F800
01FC00
00FC00
007E00
003E00
001F00
000000
000000
FF003F
7F007F
7F007F
7F007E
3F807E
3F80FE
3F80FC
3F80FC
1FC0FC
1FC1FC
1FC1F8
0FC1F8
0FE1F8
0FE3F0
0FE3F0
07E3F0
07F3F0
07F7E0
03F7E0
03F7E0
03FFC0
03FFC0
01FFC0
01FFC0
01FF80
00FF80
00FF80
00FF00
00FF00
007F00
007F00
007F00
007F00
007F00
007F00
007F00
007F00
007F00
007F00
007F00
007F00
007F00
007F00
007F00
007F00
ENDCHAR
STARTCHAR ygrave
ENCODING 7923
SWIDTH 396 0
DWIDTH 25 0
BBX 24 54 0 -1
BITMAP
03F000
03F800
01FC00
00FC00
007E00
003E00
001F00
000000
000000
FF003F
7F007F
7F007F
7F007E
3F807E
3F80FE
3F80FC
3F80FC
1FC0FC
1FC1FC
1FC1F8
0FC1F8
0FE1F8
0FE3F0
0FE3F0
07E3F0
07F3F0
07F7E0
03F7E0
03F7E0
03FFC0
03FFC0
01FFC0
01FFC0
01FF80
00FF80
00FF80
00FF00
00FF00
007F00
007F00
007F00
007F00
007F00
007F00
007F00
007F00
007F00
007F00
007F00
007F00
007F00
007F00
007F00
007F00
ENDCHAR
STARTCHAR figuredash
ENCODING 8210
SWIDTH 396 0
DWIDTH 25 0
BBX 25 6 0 19
BITMAP
FFFFFF80
FFFFFF80
FFFFFF80
FFFFFF80
FFFFFF80
FFFFFF80
ENDCHAR
STARTCHAR endash
ENCODING 8211
SWIDTH 500 0
DWIDTH 31 0
BBX 31 6 0 19
BITMAP
FFFFFFFE
FFFFFFFE
FFFFFFFE
FFFFFFFE
FFFFFFFE
FFFFFFFE
ENDCHAR
STARTCHAR emdash
ENCODING 8212
SWIDTH 1000 0
DWIDTH 62 0
BBX 62 6 0 19
BITMAP
FFFFFFFFFFFFFFFC
FFFFFFFFFFFFFFFC
FFFFFFFFFFFFFFFC
FFFFFFFFFFFFFFFC
FFFFFFFFFFFFFFFC
FFFFFFFFFFFFFFFC
ENDCHAR
STARTCHAR quoteleft
ENCODING 8216
SWIDTH 186 0
DWIDTH 12 0
BBX 7 13 2 31
BITMAP
1C
1C
3C
38
38
78
7E
FE
FE
FE
FE
FE
FE
ENDCHAR
STARTCHAR quoteright
ENCODING 8217
SWIDTH 186 0
DWIDTH 12 0
BBX 7 13 2 31
BITMAP
FE
FE
FE
FE
FE
FE
FE
1C
1C
38
38
38
70
ENDCHAR
STARTCHAR quotesinglbase
ENCODING 8218
SWIDTH 186 0
DWIDTH 12 0
BBX 7 13 2 -7
BITMAP
FE
FE
FE
FE
FE
FE
FE
1E
1C
3C
38
38
70
ENDCHAR
STARTCHAR quotedblleft
ENCODING 8220
SWIDTH 332 0
DWIDTH 21 0
BBX 16 13 2 31
BITMAP
1C0E
1C0E
381E
381C
381C
783C
7E3F
FE3F
FE3F
FE3F
FE3F
FE3F
FE3F
ENDCHAR
STARTCHAR quotedblright
ENCODING 8221
SWIDTH 332 0
DWIDTH 21 0
BBX 16 13 2 31
BITMAP
FE3F
FE3F
FE3F
FE3F
FE3F
FE3F
FE3F
1C0E
1C0E
381E
381C
381C
7038
ENDCHAR
STARTCHAR quotedblbase
ENCODING 8222
SWIDTH 332 0
DWIDTH 21 0
BBX 16 13 2 -7
BITMAP
FE3F
FE3F
FE3F
FE3F
FE3F
FE3F
FE3F
1E0F
1C0E
3C1E
381C
381C
7018
ENDCHAR
STARTCHAR dagger
ENCODING 8224
SWIDTH 396 0
DWIDTH 25 0
BBX 21 48 2 -4
BITMAP
01F800
01F800
01F800
01F800
01F800
01F800
01F800
01F800
01F800
01F800
01F800
FFFFF8
FFFFF8
FFFFF8
FFFFF8
FFFFF8
01F800
01F800
01F800
01F800
01F800
01F800
01F800
01F800
01F800
01F800
01F800
01F800
01F800
01F800
01F800
01F800
01F800
01F800
01F800
01F800
01F800
01F800
01F800
01F800
01F800
01F800
01F800
01F800
01F800
01F800
01F800
01F800
ENDCHAR
STARTCHAR daggerdbl
ENCODING 8225
SWIDTH 396 0
DWIDTH 25 0
BBX 21 48 2 -4
BITMAP
01F800
01F800
01F800
01F800
01F800
01F800
01F800
01F800
01F800
01F800
01F800
FFFFF8
FFFFF8
FFFFF8
FFFFF8
FFFFF8
01F800
01F800
01F800
01F800
01F800
01F800
01F800
01F800
01F800
01F800
01F800
01F800
01F800
01F800
01F800
01F800
FFFFF8
FFFFF8
FFFFF8
FFFFF8
FFFFF8
01F800
01F800
01F800
01F800
01F800
01F800
01F800
01F800
01F800
01F800
01F800
ENDCHAR
STARTCHAR bullet
ENCODING 8226
SWIDTH 396 0
DWIDTH 25 0
BBX 17 17 4 13
BITMAP
07F000
1FF800
3FFE00
7FFE00
7FFF00
FFFF00
FFFF80
FFFF80
FFFF80
FFFF80
FFFF80
FFFF00
7FFF00
7FFE00
3FFC00
1FF800
07E000
ENDCHAR
STARTCHAR ellipsis
ENCODING 8230
SWIDTH 478 0
DWIDTH 30 0
BBX 25 7 2 -1
BITMAP
FE3F1F80
FE3F1F80
FE3F1F80
FE3F1F80
FE3F1F80
FE3F1F80
FE3F1F80
ENDCHAR
STARTCHAR perthousand
ENCODING 8240
SWIDTH 883 0
DWIDTH 55 0
BBX 51 45 2 -1
BITMAP
0FC000F0000000
3FE001E0000000
7FF001E0000000
7FF803C0000000
F8F803C0000000
F87803C0000000
F0780780000000
F0780780000000
F0780780000000
F0780F00000000
F0780F00000000
F0781E00000000
F0781E00000000
F0781E00000000
F0783C00000000
F0783C00000000
F0783C3E003C00
F07878FF80FF00
F07879FFC1FF80
F078F3FFC3FFC0
F078F3E3C3E7C0
F078F3C3E3C3E0
F079E3C3E7C3E0
F879E3C3E7C3E0
F8FBC3C3E7C3E0
7FFBC3C3E7C3E0
7FF3C3C3E7C3E0
3FE783C3E7C3E0
0F8783C3E7C3E0
000783C3E7C3E0
000F03C3E7C3E0
000F03C3E7C3E0
001E03C3E7C3E0
001E03C3E7C3E0
001E03C3E7C3E0
003C03C3E7C3E0
003C03C3E7C3E0
003C03C3E7C3E0
007803C3E7C3E0
007803C3E3C3E0
00F003E3C3C3C0
00F003FFC3FFC0
00F001FFC1FF80
01E000FF81FF80
01E0007E007E00
ENDCHAR
STARTCHAR guilsinglleft
ENCODING 8249
SWIDTH 196 0
DWIDTH 12 0
BBX 10 34 1 4
BITMAP
0FC0
1FC0
1FC0
1F80
1F80
3F80
3F80
3F00
3F00
3F00
7F00
7F00
7E00
7E00
FE00
FE00
FE00
FE00
FE00
7E00
7E00
7F00
7F00
7F00
3F00
3F00
3F80
3F80
1F80
1F80
1F80
1FC0
1FC0
0FC0
ENDCHAR
STARTCHAR guilsinglright
ENCODING 8250
SWIDTH 196 0
DWIDTH 12 0
BBX 10 34 1 4
BITMAP
FE00
FE00
7E00
7E00
7E00
7F00
7F00
3F00
3F00
3F80
3F80
1F80
1F80
1F80
1FC0
1FC0
0FC0
1FC0
1FC0
1FC0
1F80
1F80
3F80
3F80
3F00
3F00
3F00
7F00
7F00
7E00
7E00
7E00
FE00
FE00
ENDCHAR
STARTCHAR fraction
ENCODING 8260
SWIDTH 67 0
DWIDTH 4 0
BBX 20 45 -8 -1
BITMAP
0000F0
0000F0
0000F0
0001E0
0001E0
0001E0
0003C0
0003C0
000780
000780
000780
000F00
000F00
001F00
001E00
001E00
003C00
003C00
003C00
007800
007800
00F000
00F000
00F000
01E000
01E000
01E000
03C000
03C000
078000
078000
078000
0F0000
0F0000
1F0000
1E0000
1E0000
3C0000
3C0000
3C0000
780000
780000
F00000
F00000
F00000
ENDCHAR
STARTCHAR uni2070
ENCODING 8304
SWIDTH 280 0
DWIDTH 17 0
BBX 13 29 2 21
BITMAP
0F80
3FE0
7FF0
7FF8
F8F8
F878
F078
F078
F078
F078
F078
F078
F078
F078
F078
F078
F078
F078
F078
F078
F078
F078
F078
F878
F8F8
7FF8
7FF0
3FE0
0F80
ENDCHAR
STARTCHAR uni2074
ENCODING 8308
SWIDTH 280 0
DWIDTH 17 0
BBX 15 28 1 22
BITMAP
00F8
00F8
01F8
01F8
01F8
03F8
03F8
07F8
07F8
07F8
0F78
0F78
1E78
1E78
3C78
3C78
3878
7878
7878
FFFE
FFFE
FFFE
FFFE
0078
0078
0078
0078
0078
ENDCHAR
STARTCHAR uni2075
ENCODING 8309
SWIDTH 280 0
DWIDTH 17 0
BBX 13 28 2 21
BITMAP
7FF8
7FF8
7FF8
7FF8
7800
7800
7800
7800
7BE0
7FF0
7FF0
FFF8
F8F8
F878
F078
F078
0078
0078
0078
F078
F078
F078
F878
78F8
7FF8
7FF0
3FE0
0FC0
ENDCHAR
STARTCHAR uni2076
ENCODING 8310
SWIDTH 280 0
DWIDTH 17 0
BBX 13 29 2 21
BITMAP
0F80
3FE0
7FF0
7FF8
78F8
F878
F878
F878
F800
F800
F9E0
FFF0
FFF8
FFF8
F8F8
F878
F878
F878
F878
F878
F878
F878
F878
F878
F8F8
7FF8
7FF0
3FE0
0FC0
ENDCHAR
STARTCHAR uni2077
ENCODING 8311
SWIDTH 280 0
DWIDTH 17 0
BBX 13 28 2 21
BITMAP
FFF8
FFF8
FFF8
FFF8
0078
00F8
00F0
00F0
00F0
01F0
01E0
01E0
03E0
03E0
03C0
03C0
07C0
07C0
0780
0780
0F80
0F00
0F00
0F00
1F00
1E00
1E00
3E00
ENDCHAR
STARTCHAR uni2078
ENCODING 8312
SWIDTH 280 0
DWIDTH 17 0
BBX 13 29 2 21
BITMAP
0F80
3FE0
7FF0
7FF8
F8F8
F078
F078
F078
F078
F078
F078
F8F8
7FF0
3FE0
3FF0
7FF0
F8F8
F078
F078
F078
F078
F078
F078
F078
F8F8
7FF8
7FF0
3FE0
0F80
ENDCHAR
STARTCHAR uni2079
ENCODING 8313
SWIDTH 280 0
DWIDTH 17 0
BBX 13 29 2 21
BITMAP
0F80
3FE0
7FF0
7FF0
F8F8
F078
F078
F078
F078
F078
F078
F078
F078
F078
F8F8
FFF8
7FF8
7F78
1E78
0078
0078
F078
F078
F078
F8F8
7FF0
7FF0
3FE0
0F80
ENDCHAR
STARTCHAR uni2080
ENCODING 8320
SWIDTH 280 0
DWIDTH 17 0
BBX 13 28 2 -4
BITMAP
0F80
3FE0
7FF0
7FF8
F8F8
F878
F078
F078
F078
F078
F078
F078
F078
F078
F078
F078
F078
F078
F078
F078
F078
F078
F878
F8F8
7FF8
7FF0
3FE0
0FC0
ENDCHAR
STARTCHAR uni2081
ENCODING 8321
SWIDTH 200 0
DWIDTH 12 0
BBX 7 28 2 -4
BITMAP
0E
0E
1E
3E
FE
FE
FE
1E
1E
1E
1E
1E
1E
1E
1E
1E
1E
1E
1E
1E
1E
1E
1E
1E
1E
1E
1E
1E
ENDCHAR
STARTCHAR uni2082
ENCODING 8322
SWIDTH 280 0
DWIDTH 17 0
BBX 12 28 3 -4
BITMAP
0F00
3FC0
7FE0
FFF0
F1F0
F0F0
F0F0
F0F0
F0F0
F0F0
00F0
01F0
01E0
03E0
07C0
0F80
1F00
3F00
3E00
7C00
F800
F000
F000
F000
FFF0
FFF0
FFF0
FFF0
ENDCHAR
STARTCHAR uni2083
ENCODING 8323
SWIDTH 280 0
DWIDTH 17 0
BBX 13 28 2 -4
BITMAP
0F80
3FE0
7FF0
7FF0
F8F8
F078
F078
F078
F078
0078
0078
00F0
0FF0
0FC0
0FE0
0FF0
00F8
0078
0078
F078
F078
F078
F078
F8F8
7FF8
7FF0
3FE0
0FC0
ENDCHAR
STARTCHAR uni2084
ENCODING 8324
SWIDTH 280 0
DWIDTH 17 0
BBX 15 28 1 -4
BITMAP
00F8
00F8
01F8
01F8
01F8
03F8
03F8
07F8
07F8
07F8
0F78
0F78
1E78
1E78
3C78
3C78
3878
7878
7878
FFFE
FFFE
FFFE
FFFE
0078
0078
0078
0078
0078
ENDCHAR
STARTCHAR uni2085
ENCODING 8325
SWIDTH 280 0
DWIDTH 17 0
BBX 13 27 2 -4
BITMAP
7FF8
7FF8
7FF8
7FF8
7800
7800
7800
7800
7BE0
7FF0
7FF0
FFF8
F8F8
F878
F078
0078
0078
0078
F078
F078
F078
F078
F8F8
7FF8
7FF0
3FE0
0FC0
ENDCHAR
STARTCHAR uni2086
ENCODING 8326
SWIDTH 280 0
DWIDTH 17 0
BBX 13 28 2 -4
BITMAP
0F80
3FE0
7FF0
7FF8
78F8
F878
F878
F878
F800
F800
F9E0
FFF0
FFF8
FFF8
F8F8
F878
F878
F878
F878
F878
F878
F878
F878
F8F8
7FF8
7FF0
3FE0
0FC0
ENDCHAR
STARTCHAR uni2087
ENCODING 8327
SWIDTH 280 0
DWIDTH 17 0
BBX 13 28 2 -4
BITMAP
FFF8
FFF8
FFF8
FFF8
0078
00F8
00F0
00F0
00F0
01F0
01E0
01E0
03E0
03E0
03C0
03C0
07C0
07C0
0780
0780
0F80
0F00
0F00
0F00
1F00
1E00
1E00
3E00
ENDCHAR
STARTCHAR uni2088
ENCODING 8328
SWIDTH 280 0
DWIDTH 17 0
BBX 13 28 2 -4
BITMAP
0F80
3FE0
7FF0
7FF8
F8F8
F078
F078
F078
F078
F078
F078
F8F8
7FF0
3FE0
3FF0
7FF0
F8F8
F078
F078
F078
F078
F078
F078
F8F8
FFF8
7FF0
3FE0
0FC0
ENDCHAR
STARTCHAR uni2089
ENCODING 8329
SWIDTH 280 0
DWIDTH 17 0
BBX 13 28 2 -4
BITMAP
0F80
3FE0
7FF0
7FF0
F8F8
F078
F078
F078
F078
F078
F078
F078
F078
F8F8
FFF8
7FF8
7F78
3E78
0078
0078
F078
F078
F078
F8F8
7FF8
7FF0
3FE0
0FC0
ENDCHAR
STARTCHAR Euro
ENCODING 8364
SWIDTH 396 0
DWIDTH 25 0
BBX 22 45 1 -1
BITMAP
00FF00
03FFC0
07FFE0
0FFFF0
1FFFF8
1FFFF8
3FE3F8
3F81FC
3F81FC
3F81FC
3F81FC
3F81FC
3F81FC
3F81FC
3F8000
3F8000
3F8000
FFFFC0
FFFFC0
FFFFC0
3F8000
3F8000
3F8000
3F8000
FFFFC0
FFFFC0
FFFFC0
3F8000
3F8000
3F8000
3F81FC
3F81FC
3F81FC
3F81FC
3F81FC
3F81FC
3F81FC
3F81FC
3FE3F8
1FFFF8
1FFFF8
0FFFF0
07FFE0
03FFC0
00FF00
ENDCHAR
STARTCHAR uni20B9
ENCODING 8377
SWIDTH 396 0
DWIDTH 25 0
BBX 21 45 2 -1
BITMAP
FFFFF8
FFFFF8
FFFFF8
FFFFF8
FFFFF8
00FF00
007F00
003F80
003F80
003F80
FFFFF8
FFFFF8
FFFFF8
FFFFF8
FFFFF8
003F80
003F80
003F80
007F80
01FF00
FFFF00
FFFE00
FFFC00
FFF800
FFC000
FE0000
7F0000
7F8000
3F8000
1FC000
0FE000
0FF000
07F000
03F800
03FC00
01FC00
00FE00
007F00
007F80
003F80
001FC0
001FE0
000FF0
0007F0
0003F8
ENDCHAR
STARTCHAR uni2117
ENCODING 8471
SWIDTH 736 0
DWIDTH 46 0
BBX 43 45 1 -1
BITMAP
00007FE00000
0003FFFC0000
001FFFFF0000
003FFFFFC000
00FFF1FFE000
01FF000FF000
03F80003F800
07F00000FC00
07E000007E00
0FC000003F00
1F80FFE01F00
1F00FFF80F80
3E00FFF80F80
3E00FFFC07C0
3C00F87C07C0
7C00F87C03C0
7C00F87C03E0
7800F83C03E0
7800F83C03E0
F800F83C01E0
F800F87C01E0
F800F87C01E0
F800F87C01E0
F800FFFC01E0
F800FFF801E0
F800FFF801E0
F800FFE001E0
7800F80003E0
7C00F80003E0
7C00F80003C0
7C00F80007C0
3E00F80007C0
3E00F8000F80
1F00F8000F80
1F80F8001F00
0F80F8003F00
07C0F8007E00
07F00000FC00
03F80003F800
01FE000FF000
00FFF0FFE000
003FFFFFC000
001FFFFF0000
0003FFFC0000
00007FE00000
ENDCHAR
STARTCHAR trademark
ENCODING 8482
SWIDTH 586 0
DWIDTH 36 0
BBX 34 22 1 22
BITMAP
FFF8FC0FC0
FFF8FC1FC0
FFF8FC1FC0
FFF8FC1FC0
0F00FE1FC0
0F00FE1FC0
0F00FE1FC0
0F00EE3BC0
0F00EE3BC0
0F00EF3BC0
0F00EF3BC0
0F00EF3BC0
0F00E77BC0
0F00E773C0
0F00E7F3C0
0F00E7F3C0
0F00E7F3C0
0F00E3F3C0
0F00E3E3C0
0F00E3E3C0
0F00E3E3C0
0F00E1E3C0
ENDCHAR
STARTCHAR uni2153
ENCODING 8531
SWIDTH 600 0
DWIDTH 37 0
BBX 1 1 0 0
BITMAP
00
ENDCHAR
STARTCHAR uni2154
ENCODING 8532
SWIDTH 600 0
DWIDTH 37 0
BBX 1 1 0 0
BITMAP
00
ENDCHAR
STARTCHAR oneeighth
ENCODING 8539
SWIDTH 627 0
DWIDTH 39 0
BBX 33 45 4 -1
BITMAP
0700078000
0F00078000
1F000F0000
FF000F0000
FF001E0000
FF001E0000
FF001E0000
1F003C0000
1F003C0000
1F003C0000
1F00780000
1F00780000
1F00F00000
1F00F00000
1F00F00000
1F01E00000
1F01E1F800
1F01E3FE00
1F03C7FF00
1F03CFFF00
1F078F8F80
1F078F0F80
1F079F0780
1F0F1F0780
1F0F1F0780
1F1E1F0780
1F1E0F0F80
1F1E0F8F00
003C07FF00
003C03FE00
003C07FE00
00780FFF00
00780F8F00
00F00F0F80
00F01F0780
00F01F0780
01E01F0780
01E01F0780
01E01F0780
03C01F0F80
03C00F8F80
07800FFF00
078007FF00
078003FE00
0F0001F800
ENDCHAR
STARTCHAR threeeighths
ENCODING 8540
SWIDTH 627 0
DWIDTH 39 0
BBX 35 45 2 -1
BITMAP
0FC000F000
3FE001E000
7FF001E000
7FF801E000
F8F803C000
F07803C000
F07807C000
F078078000
F078078000
00780F0000
00780F0000
00F00F0000
0FF01E0000
0FC01E0000
0FE03C0000
0FF03C0000
00F83C3E00
00F878FF80
007879FFC0
00787BFFC0
F078F3E3E0
F078F3C3E0
F079E7C1E0
F079E7C1E0
F8F9E7C1E0
7FF3C7C1E0
7FF3C3C3E0
3FE3C3E3C0
0F8781FFC0
000781FF80
000F01FF80
000F03FFC0
000F03E3C0
001E03C3E0
001E07C1E0
003E07C1E0
003C07C1E0
003C07C1E0
007807C1E0
007807C3E0
007803E3E0
00F003FFC0
00F001FFC0
01E000FF80
01E0007E00
ENDCHAR
STARTCHAR fiveeighths
ENCODING 8541
SWIDTH 627 0
DWIDTH 39 0
BBX 35 44 2 -1
BITMAP
7FF800F000
7FF801E000
7FF801E000
7FF801E000
780003C000
780003C000
7800078000
7800078000
7800078000
7BE00F0000
7FF00F0000
7FF01F0000
FFF81E0000
F8F81E0000
F8783C0000
F0783C0000
F0783C7E00
007879FF80
007879FFC0
F078F3FFC0
F078F3E3E0
F078F7C3E0
F079E7C1E0
F8F9E7C1E0
7FFBC7C1E0
7FF3C3C3E0
3FE3C3C3C0
0FC783FFC0
000781FF80
000F81FF80
000F03FFC0
000F03E3C0
001E03C3E0
001E07C1E0
001E07C1E0
003C07C1E0
003C07C1E0
007807C1E0
007807C3E0
007803E3E0
00F003FFC0
00F001FFC0
01E000FF80
01E0007E00
ENDCHAR
STARTCHAR seveneighths
ENCODING 8542
SWIDTH 627 0
DWIDTH 39 0
BBX 35 45 2 -1
BITMAP
FFF803C000
FFF803C000
FFF8078000
FFF8078000
00780F0000
00F80F0000
00F00F0000
00F01E0000
00F01E0000
01F03E0000
01E03C0000
01E03C0000
01E0780000
03E0780000
03C0780000
03C0F00000
03C0F03E00
07C1E0FF80
0781E1FFC0
0781E3FFC0
0F83C3E3E0
0F83C3C3E0
0F03C7C1E0
0F0787C1E0
1F0787C1E0
1F0F07C1E0
1E0F03C3E0
1E0F03E3C0
001E01FFC0
001E00FF80
001E01FF80
003C03FFC0
003C03E3C0
007803C3E0
007807C1E0
007807C1E0
00F007C1E0
00F007C1E0
01F007C1E0
01E007C3E0
01E003E3E0
03C003FFC0
03C001FFC0
03C000FF80
0780007E00
ENDCHAR
STARTCHAR minus
ENCODING 8722
SWIDTH 396 0
DWIDTH 25 0
BBX 21 5 2 19
BITMAP
FFFFF8
FFFFF8
FFFFF8
FFFFF8
FFFFF8
ENDCHAR
STARTCHAR infinity
ENCODING 8734
SWIDTH 600 0
DWIDTH 37 0
BBX 33 17 2 13
BITMAP
03FC0FF000
1FFF3FFC00
3FFFFFFE00
3FFFFFFF00
7FFFFFFF80
7C07F01F80
F803E00F80
F801E00780
F801E00780
F801E00F80
7C03F00F80
7E07F81F80
7FFFFFFF80
3FFFFFFF00
1FFF3FFE00
0FFE1FFC00
01F007E000
ENDCHAR
STARTCHAR approxequal
ENCODING 8776
SWIDTH 396 0
DWIDTH 25 0
BBX 23 19 1 12
BITMAP
0F8000
1FE018
3FF83C
7FFC7E
FFFFFC
F8FFFC
703FF8
200FF0
0003C0
000000
0F8000
1FE018
3FF03C
7FFC7E
FFFFFC
FCFFFC
F03FF8
700FF0
0003C0
ENDCHAR
STARTCHAR uniF6C3
ENCODING 63171
SWIDTH 0 0
DWIDTH 0 0
BBX 1 1 0 0
BITMAP
00
ENDCHAR
STARTCHAR .notdef
ENCODING -1
SWIDTH 548 0
DWIDTH 34 0
BBX 28 45 3 -1
BITMAP
FFFFFFF0
FFFFFFF0
FFFFFFF0
FFFFFFF0
FFFFFFF0
F83FC1F0
F83FC3F0
FC1F83F0
FC1F83F0
FC1F87F0
FC0F07F0
FE0F07F0
FE0F0FF0
FE060FF0
FF060FF0
FF061FF0
FF021FF0
FF801FF0
FF801FF0
FF803FF0
FFC03FF0
FFC03FF0
FFC03FF0
FFC03FF0
FF803FF0
FF803FF0
FF841FF0
FF041FF0
FF041FF0
FF0E0FF0
FE0E0FF0
FE0E0FF0
FE1E07F0
FC1F07F0
FC1F07F0
FC1F03F0
F83F83F0
F83F83F0
F83F81F0
F87FC1F0
FFFFFFF0
FFFFFFF0
FFFFFFF0
FFFFFFF0
FFFFFFF0
ENDCHAR
STARTCHAR zero.alt
ENCODING -1
SWIDTH 396 0
DWIDTH 25 0
BBX 21 45 2 -1
BITMAP
03FC00
0FFF00
1FFFC0
3FFFC0
7FFFE0
7FFFF0
7F8FF0
FE07F0
FE03F0
FE03F8
FE03F8
FE03F8
FE03F8
FE03F8
FE03F8
FE03F8
FE03F8
FE03F8
FE03F8
FE03F8
FE03F8
FE03F8
FE03F8
FE03F8
FE03F8
FE03F8
FE03F8
FE03F8
FE03F8
FE03F8
FE03F8
FE03F8
FE03F8
FE03F8
FE03F8
FE03F8
FE03F0
FE07F0
7F8FF0
7FFFF0
7FFFE0
3FFFE0
1FFFC0
0FFF00
01FC00
ENDCHAR
STARTCHAR one.alt
ENCODING -1
SWIDTH 250 0
DWIDTH 16 0
BBX 12 45 1 -1
BITMAP
01F0
01F0
03F0
03F0
07F0
1FF0
FFF0
FFF0
FFF0
FFF0
FFF0
07F0
07F0
07F0
07F0
07F0
07F0
07F0
07F0
07F0
07F0
07F0
07F0
07F0
07F0
07F0
07F0
07F0
07F0
07F0
07F0
07F0
07F0
07F0
07F0
07F0
07F0
07F0
07F0
07F0
07F0
07F0
07F0
07F0
07F0
ENDCHAR
STARTCHAR two.alt
ENCODING -1
SWIDTH 369 0
DWIDTH 23 0
BBX 20 45 2 -1
BITMAP
03F800
0FFF00
3FFF80
3FFFC0
7FFFC0
7FFFE0
FF1FE0
FE0FF0
FC07F0
FC07F0
FC07F0
FC07F0
FC07F0
FC07F0
FC07F0
0007E0
000FE0
000FE0
001FE0
001FC0
003FC0
003F80
007F80
00FF00
01FE00
03FC00
07FC00
07F800
0FF000
1FE000
3FC000
3F8000
7F0000
7F0000
FE0000
FE0000
FC0000
FC0000
FC0000
FFFFE0
FFFFE0
FFFFE0
FFFFE0
FFFFE0
FFFFE0
ENDCHAR
STARTCHAR three.alt
ENCODING -1
SWIDTH 382 0
DWIDTH 24 0
BBX 20 45 2 -1
BITMAP
03F800
0FFF00
1FFF80
3FFFC0
7FFFE0
7FFFE0
FF1FE0
FE0FF0
FC07F0
FC07F0
FC07F0
FC07F0
FC07F0
0007F0
0007F0
0007F0
000FE0
001FE0
03FFC0
03FF80
03FF00
03FF00
03FFC0
03FFC0
001FE0
000FE0
0007F0
0007F0
0007F0
0007F0
FC07F0
FC07F0
FC07F0
FC07F0
FC07F0
FC07F0
FC07F0
FE0FF0
FF1FE0
7FFFE0
7FFFE0
3FFFC0
1FFF80
0FFF00
03FC00
ENDCHAR
STARTCHAR four.alt
ENCODING -1
SWIDTH 397 0
DWIDTH 25 0
BBX 23 45 1 -1
BITMAP
000FF0
000FF0
001FF0
001FF0
003FF0
003FF0
003FF0
007FF0
007FF0
00FFF0
00FFF0
00FFF0
01FFF0
01FFF0
03FFF0
03F7F0
03F7F0
07E7F0
07E7F0
0FE7F0
0FC7F0
0FC7F0
1F87F0
1F87F0
3F87F0
3F07F0
3F07F0
7E07F0
7E07F0
FE07F0
FC07F0
FFFFFE
FFFFFE
FFFFFE
FFFFFE
FFFFFE
FFFFFE
0007F0
0007F0
0007F0
0007F0
0007F0
0007F0
0007F0
0007F0
ENDCHAR
STARTCHAR five.alt
ENCODING -1
SWIDTH 383 0
DWIDTH 24 0
BBX 20 45 2 -1
BITMAP
7FFFE0
7FFFE0
7FFFE0
7FFFE0
7FFFE0
7FFFE0
7E0000
7E0000
7E0000
7E0000
FE0000
FE0000
FE0000
FE0000
FE7F00
FEFF80
FFFFC0
FFFFE0
FFFFE0
FFFFF0
FF0FF0
FE07F0
FC07F0
FC07F0
FC07F0
FC07F0
0007F0
0007F0
0007F0
0007F0
FC07F0
FC07F0
FC07F0
FC07F0
FC07F0
FC07F0
FC07F0
FE0FF0
FF1FE0
7FFFE0
7FFFE0
3FFFC0
1FFF80
0FFF00
03FC00
ENDCHAR
STARTCHAR six.alt
ENCODING -1
SWIDTH 392 0
DWIDTH 24 0
BBX 21 45 2 -1
BITMAP
03FC00
0FFF00
1FFFC0
3FFFC0
7FFFE0
7FFFF0
7F8FF0
FF07F0
FE03F0
FE03F0
FE03F0
FE03F8
FE0000
FE0000
FE0000
FE0000
FE3F00
FEFFC0
FFFFE0
FFFFE0
FFFFF0
FFFFF0
FF0FF0
FE07F8
FE03F8
FE03F8
FE03F8
FE03F8
FE03F8
FE03F8
FE03F8
FE03F8
FE03F8
FE03F8
FE03F8
FE03F8
FE03F0
FE07F0
7F8FF0
7FFFF0
7FFFE0
3FFFC0
1FFFC0
0FFF00
01FC00
ENDCHAR
STARTCHAR seven.alt
ENCODING -1
SWIDTH 340 0
DWIDTH 21 0
BBX 19 45 1 -1
BITMAP
FFFFE0
FFFFE0
FFFFE0
FFFFE0
FFFFE0
FFFFE0
000FE0
000FE0
000FE0
000FE0
000FC0
001FC0
001FC0
001FC0
001F80
003F80
003F80
003F80
003F00
007F00
007F00
007F00
007E00
00FE00
00FE00
00FE00
00FC00
01FC00
01FC00
01FC00
01FC00
03F800
03F800
03F800
03F800
07F000
07F000
07F000
07F000
07E000
0FE000
0FE000
0FE000
0FC000
1FC000
ENDCHAR
STARTCHAR eight.alt
ENCODING -1
SWIDTH 398 0
DWIDTH 25 0
BBX 21 45 2 -1
BITMAP
03FC00
0FFF00
1FFFC0
3FFFE0
7FFFE0
7FFFF0
FF8FF0
FE07F8
FE03F8
FE03F8
FC03F8
FC03F8
FC03F8
FC03F8
FC03F8
FE03F8
FE03F8
FE07F0
7F8FF0
7FFFE0
3FFFC0
0FFF80
1FFFC0
3FFFE0
7FFFF0
7F0FF0
FE07F0
FE03F8
FE03F8
FC03F8
FC03F8
FC03F8
FC03F8
FC03F8
FC03F8
FE03F8
FE03F8
FE07F8
FF8FF0
7FFFF0
7FFFE0
3FFFE0
1FFFC0
0FFF80
03FC00
ENDCHAR
STARTCHAR nine.alt
ENCODING -1
SWIDTH 392 0
DWIDTH 24 0
BBX 20 45 2 -1
BITMAP
03FC00
0FFF00
1FFF80
3FFFC0
7FFFE0
7FFFE0
FF9FF0
FE07F0
FE07F0
FE07F0
FC03F0
FC03F0
FC03F0
FC03F0
FC03F0
FC03F0
FC03F0
FC03F0
FC03F0
FE07F0
FE07F0
FE07F0
FF0FF0
FFFFF0
FFFFF0
7FFBF0
7FFBF0
3FF3F0
0FE3F0
0003F0
0003F0
0003F0
0003F0
FC03F0
FC07F0
FC07F0
FC07F0
FE07F0
FF1FF0
7FFFE0
7FFFE0
3FFFC0
1FFF80
0FFF00
03FC00
ENDCHAR
STARTCHAR CR
ENCODING -1
SWIDTH 155 0
DWIDTH 10 0
BBX 1 1 0 0
BITMAP
00
ENDCHAR
STARTCHAR NULL
ENCODING -1
SWIDTH 0 0
DWIDTH 0 0
BBX 1 1 0 0
BITMAP
00
ENDCHAR
STARTCHAR Edotaaccent
ENCODING -1
SWIDTH 600 0
DWIDTH 37 0
BBX 1 1 0 0
BITMAP
00
ENDCHAR
STARTCHAR edotaaccent
ENCODING -1
SWIDTH 600 0
DWIDTH 37 0
BBX 1 1 0 0
BITMAP
00
ENDCHAR
STARTCHAR lcute
ENCODING -1
SWIDTH 600 0
DWIDTH 37 0
BBX 1 1 0 0
BITMAP
00
ENDCHAR
ENDFONT
